<?xml version="1.0" encoding="UTF-8"?><svg id="Layer_2" xmlns="http://www.w3.org/2000/svg" width="341.86" height="341.86" viewBox="0 0 341.86 341.86"><defs><style>.cls-1{fill:none;stroke:#ec6342;stroke-miterlimit:10;stroke-width:.5px;}</style></defs><g id="Layer_2-2"><rect class="cls-1" x=".25" y=".25" width="341.36" height="341.36"/><line class="cls-1" x1=".25" y1="303.68" x2="341.61" y2="303.68"/><line class="cls-1" x1=".25" y1="265.76" x2="341.61" y2="265.76"/><line class="cls-1" x1=".25" y1="227.83" x2="341.61" y2="227.83"/><line class="cls-1" x1=".25" y1="189.9" x2="341.61" y2="189.9"/><line class="cls-1" x1=".25" y1="151.97" x2="341.61" y2="151.97"/><line class="cls-1" x1=".25" y1="114.04" x2="341.61" y2="114.04"/><line class="cls-1" x1=".25" y1="76.11" x2="341.61" y2="76.11"/><line class="cls-1" x1=".25" y1="38.18" x2="341.61" y2="38.18"/><line class="cls-1" x1="303.68" y1=".25" x2="303.68" y2="341.61"/><line class="cls-1" x1="265.76" y1=".25" x2="265.76" y2="341.61"/><line class="cls-1" x1="227.83" y1=".25" x2="227.83" y2="341.61"/><line class="cls-1" x1="189.9" y1=".25" x2="189.9" y2="341.61"/><line class="cls-1" x1="151.97" y1=".25" x2="151.97" y2="341.61"/><line class="cls-1" x1="114.04" y1=".25" x2="114.04" y2="341.61"/><line class="cls-1" x1="76.11" y1=".25" x2="76.11" y2="341.61"/><line class="cls-1" x1="38.18" y1=".25" x2="38.18" y2="341.61"/></g></svg>