<svg width="183" height="231" viewBox="0 0 183 231" fill="none" xmlns="http://www.w3.org/2000/svg">
<g clip-path="url(#clip0_215_7052)">
<path d="M8.10873 107.026H15.7459C20.3049 107.026 22.7169 104.624 22.7169 100.089V95.2793C22.7169 90.7444 20.3049 88.3428 15.7459 88.3428H0.316406V116.527H8.10873V107.026ZM8.10873 95.0437H13.3661C14.5366 95.0437 14.9246 95.4364 14.9246 96.5816V98.7869C14.9246 99.932 14.5366 100.325 13.3661 100.325H8.10873V95.0437Z" fill="#262525"/>
<path d="M27.3926 88.3428V116.527H46.8702V109.826H35.1784V88.3428H27.3926Z" fill="#262525"/>
<path d="M49.5928 116.527H57.5791L59.1764 110.972H68.4496L70.008 116.527H77.9943L69.5036 88.3428H58.09L49.5992 116.527H49.5928ZM63.813 94.6118L66.5419 104.271H61.0517L63.8194 94.6118H63.813Z" fill="#262525"/>
<path d="M77.5996 95.0437H85.1979V116.527H92.9903V95.0437H100.582V88.3428H77.5996V95.0437Z" fill="#262525"/>
<path d="M105.063 116.527H124.929V109.826H112.856V105.488H123.293V98.7869H112.856V95.0437H124.929V88.3428H105.063V116.527Z" fill="#262525"/>
<path d="M136.537 88.3428L128.046 116.527H136.032L137.629 110.972H146.903L148.461 116.527H156.447L147.957 88.3428H136.543H136.537ZM139.498 104.271L142.266 94.6118L144.995 104.271H139.505H139.498Z" fill="#262525"/>
<path d="M167.933 108.681V88.3428H160.141V109.983C160.141 114.518 162.553 116.92 167.112 116.92H175.952C180.511 116.92 182.923 114.518 182.923 109.983V88.3428H175.13V108.681C175.13 109.826 174.742 110.219 173.572 110.219H169.478C168.308 110.219 167.92 109.826 167.92 108.681H167.933Z" fill="#262525"/>
<path d="M7.15213 133.496H3.46613V128.784H0V141.316H3.46613V136.48H7.15213V141.316H10.6183V128.784H7.15213V133.496Z" fill="#262525"/>
<path d="M16.8777 138.842H21.0035L21.6954 141.315H25.2456L21.4691 128.777H16.3927L12.6162 141.315H16.1664L16.8777 138.842ZM18.9406 131.565L20.1563 135.858H17.7119L18.9406 131.565Z" fill="#262525"/>
<path d="M30.5483 128.784H27.2051V141.316H30.6647V134.621L34.687 141.316H38.0303V128.784H34.5641V135.479L30.5483 128.784Z" fill="#262525"/>
<path d="M40.7656 128.784V141.322H47.6785C49.7025 141.322 50.7825 140.255 50.7825 138.233V131.866C50.7825 129.851 49.709 128.777 47.6785 128.777H40.7656V128.784ZM47.3163 137.657C47.3163 138.168 47.1417 138.338 46.6244 138.338H44.2318V131.761H46.6244C47.1417 131.761 47.3163 131.938 47.3163 132.442V137.651V137.657Z" fill="#262525"/>
<path d="M62.8556 134.621V141.316H66.3217V128.784H62.9785L59.8421 133.849L56.6929 128.784H53.3496V141.316H56.8093V134.621L59.2407 138.528H60.4306L62.8556 134.621Z" fill="#262525"/>
<path d="M72.0968 128.784L68.3203 141.322H71.8705L72.5818 138.849H76.7076L77.3995 141.322H80.9497L77.1732 128.784H72.0968ZM73.416 135.865L74.6447 131.572L75.8604 135.865H73.416Z" fill="#262525"/>
<path d="M92.9514 138.233V131.866C92.9514 129.851 91.878 128.777 89.8474 128.777H82.9346V141.315H89.8474C91.8715 141.315 92.9514 140.249 92.9514 138.227V138.233ZM89.4853 137.657C89.4853 138.168 89.3107 138.338 88.7934 138.338H86.4007V131.761H88.7934C89.3107 131.761 89.4853 131.938 89.4853 132.442V137.651V137.657Z" fill="#262525"/>
<path d="M95.5518 141.316H104.392V138.338H99.0179V136.408H103.661V133.424H99.0179V131.762H104.392V128.784H95.5518V141.316Z" fill="#262525"/>
<path d="M120.991 136.545C120.991 134.739 120.195 133.954 118.029 133.633L115.255 133.227C114.265 133.09 114.149 133.018 114.149 132.56V132.259C114.149 131.768 114.337 131.578 114.88 131.578H116.787C117.305 131.578 117.479 131.755 117.479 132.259V132.383L120.926 131.964C120.946 131.892 120.946 131.879 120.946 131.683C120.946 129.667 119.872 128.594 117.842 128.594H113.787C111.763 128.594 110.683 129.661 110.683 131.683V133.522C110.683 135.295 111.517 136.08 113.664 136.395L116.438 136.8C117.357 136.938 117.531 137.029 117.531 137.468V137.821C117.531 138.332 117.357 138.502 116.839 138.502H114.796C114.278 138.502 114.104 138.325 114.104 137.821V137.697L110.657 138.116C110.638 138.168 110.638 138.188 110.638 138.397C110.638 140.413 111.711 141.486 113.742 141.486H117.9C119.924 141.486 121.004 140.419 121.004 138.397V136.539L120.991 136.545Z" fill="#262525"/>
<path d="M133.465 134.006V131.866C133.465 129.851 132.392 128.777 130.361 128.777H123.5V141.315H126.966V137.088H130.361C132.385 137.088 133.465 136.021 133.465 133.999V134.006ZM129.999 133.43C129.999 133.94 129.824 134.111 129.307 134.111H126.966V131.761H129.307C129.824 131.761 129.999 131.938 129.999 132.442V133.424V133.43Z" fill="#262525"/>
<path d="M139.007 128.784H135.541V141.322H139.007V128.784Z" fill="#262525"/>
<path d="M145.247 137.023H146.444L149.199 141.315H153.234L150.272 136.722C151.274 136.283 151.798 135.334 151.798 133.934V131.866C151.798 129.851 150.725 128.777 148.694 128.777H141.781V141.315H145.247V137.023ZM145.247 131.761H147.64C148.157 131.761 148.332 131.938 148.332 132.442V133.352C148.332 133.862 148.157 134.032 147.64 134.032H145.247V131.755V131.761Z" fill="#262525"/>
<path d="M158.692 128.784H155.226V141.322H158.692V128.784Z" fill="#262525"/>
<path d="M160.684 131.762H164.059V141.316H167.525V131.762H170.907V128.784H160.684V131.762Z" fill="#262525"/>
<path d="M180.038 133.64L177.264 133.234C176.274 133.097 176.158 133.025 176.158 132.567V132.266C176.158 131.775 176.345 131.585 176.889 131.585H178.796C179.314 131.585 179.488 131.762 179.488 132.266V132.39L182.935 131.971C182.954 131.899 182.954 131.886 182.954 131.69C182.954 129.674 181.881 128.601 179.85 128.601H175.796C173.772 128.601 172.692 129.668 172.692 131.69V133.529C172.692 135.302 173.526 136.087 175.673 136.401L178.447 136.807C179.365 136.945 179.54 137.036 179.54 137.475V137.828C179.54 138.338 179.365 138.509 178.848 138.509H176.805C176.287 138.509 176.113 138.332 176.113 137.828V137.704L172.666 138.122C172.646 138.175 172.646 138.194 172.646 138.404C172.646 140.419 173.72 141.493 175.75 141.493H179.909C181.933 141.493 183.013 140.426 183.013 138.404V136.545C183.013 134.739 182.217 133.954 180.051 133.633L180.038 133.64Z" fill="#262525"/>
<path d="M25.1751 150.831L25.0264 154.502L33.6076 154.273L33.6658 150.831H32.6441L32.6118 153.278L26.0804 153.442L26.1904 150.831H25.1751Z" fill="#262525"/>
<path d="M90.6494 167.073L90.1191 167.04C89.0069 166.988 87.8946 166.811 86.8211 166.517L86.3361 166.373L85.4502 169.487L85.9546 169.618C87.2544 169.959 88.5736 170.181 89.8669 170.286L90.3649 170.325L90.6429 167.06L90.6494 167.073ZM89.4466 169.226C88.5413 169.128 87.623 168.97 86.7112 168.761L87.0345 167.636C87.8429 167.832 88.69 167.969 89.5436 168.041L89.4466 169.226Z" fill="#262525"/>
<path d="M90.126 173.322L89.6151 173.283C88.1084 173.159 86.5887 172.897 85.1014 172.504L84.6229 172.38L82.4307 180.076L82.8898 180.233C84.8557 180.92 86.8862 181.345 88.9232 181.502L89.4276 181.541L90.126 173.316V173.322ZM83.6787 179.415L85.3277 173.617C86.537 173.911 87.7786 174.127 89.0267 174.258L88.5029 180.435C86.8797 180.272 85.2631 179.932 83.6787 179.415Z" fill="#262525"/>
<path d="M89.1821 184.532L88.6712 184.492C86.4596 184.316 84.2545 183.858 82.1141 183.131L81.6161 182.968L79.1006 191.802L79.5533 191.966C82.211 192.921 84.9335 193.405 87.643 193.405C87.753 193.405 87.8694 193.405 87.9793 193.405H88.4449L89.1886 184.538L89.1821 184.532ZM80.3357 191.148L82.3016 184.263C84.1963 184.865 86.1428 185.271 88.0828 185.461L87.5008 192.371C85.1081 192.358 82.7025 191.946 80.3357 191.148Z" fill="#262525"/>
<path d="M86.3367 204.163C86.5825 204.163 86.8347 204.163 87.0804 204.15L87.5331 204.131L88.1862 196.396H87.6301C84.6489 196.396 81.6678 195.872 78.7772 194.858L78.2728 194.681L76.21 201.925L76.6238 202.102C79.799 203.47 83.0646 204.163 86.3303 204.163H86.3367ZM87.0804 197.417L86.6019 203.136C83.5173 203.169 80.4392 202.567 77.4386 201.336L78.9518 196.003C81.6096 196.886 84.345 197.358 87.0804 197.417Z" fill="#262525"/>
<path d="M82.5471 168.401L82.9933 168.65L84.5905 165.712L84.112 165.476C83.1226 164.979 82.1785 164.364 81.3119 163.65L80.9239 163.33L78.8223 165.856L79.2361 166.183C80.3096 167.04 81.4219 167.786 82.5406 168.401H82.5471ZM80.2837 165.698L81.0727 164.756C81.7452 165.273 82.4565 165.738 83.1937 166.143L82.5923 167.249C81.8293 166.804 81.0533 166.281 80.2837 165.698Z" fill="#262525"/>
<path d="M77.6258 178.492L81.564 171.267L81.1178 171.018C79.7986 170.292 78.5182 169.428 77.3089 168.46L76.9209 168.139L71.8252 174.264L72.1744 174.598C73.6941 176.031 75.3754 177.255 77.1731 178.236L77.6193 178.485L77.6258 178.492ZM73.2285 174.179L77.0632 169.566C78.0655 170.344 79.1131 171.051 80.1866 171.673L77.2249 177.098C75.8151 176.28 74.4701 175.305 73.2285 174.179Z" fill="#262525"/>
<path d="M71.9544 188.909L76.1965 181.116L75.7438 180.874C73.8103 179.813 71.9803 178.485 70.3054 176.928L69.9109 176.574L64.0586 183.609L64.4013 183.949C66.5289 185.997 68.928 187.601 71.5276 188.733L71.9544 188.916V188.909ZM65.4554 183.524L70.0144 178.047C71.5082 179.382 73.1249 180.553 74.8191 181.528L71.5147 187.594C69.3289 186.593 67.2984 185.225 65.4619 183.524H65.4554Z" fill="#262525"/>
<path d="M66.4001 198.182L66.8205 198.346L70.5194 191.553L70.0215 191.324C67.3055 190.094 64.7899 188.399 62.5525 186.272L62.158 185.906L57.3662 191.677L57.6701 192.011C60.2051 194.766 63.1409 196.841 66.4066 198.189L66.4001 198.182ZM58.7113 191.632L62.2421 187.385C64.3179 189.282 66.62 190.84 69.0967 192.024L66.3613 197.05C63.5354 195.82 60.9681 193.994 58.7113 191.632Z" fill="#262525"/>
<path d="M76.921 164.062L79.5917 162.014L79.249 161.595C78.5376 160.738 77.9168 159.802 77.406 158.801L77.1796 158.35L74.2373 159.802L74.3925 160.103L74.483 160.274C75.1103 161.478 75.8281 162.616 76.617 163.663L76.921 164.062ZM76.7399 159.711C77.1473 160.457 77.6194 161.17 78.1367 161.838L77.115 162.623C76.5782 161.877 76.0803 161.085 75.6276 160.254L76.7399 159.704V159.711Z" fill="#262525"/>
<path d="M67.758 170.443L68.0619 170.855L74.5674 165.875L74.257 165.469C73.3452 164.259 72.5174 162.943 71.8061 161.556L71.5733 161.118L64.46 164.619L64.654 165.07C65.4688 167.007 66.5099 168.82 67.758 170.449V170.443ZM68.2624 169.415C67.2924 168.087 66.4646 166.641 65.7856 165.103L71.1465 162.466C71.735 163.572 72.4075 164.645 73.1512 165.672L68.2688 169.409L68.2624 169.415Z" fill="#262525"/>
<path d="M58.6974 178.033L65.7008 172.667L65.3969 172.255C64.0453 170.475 62.9072 168.512 62.0084 166.418L61.8014 165.927L53.6211 169.945L53.8022 170.39C54.9209 173.139 56.4664 175.593 58.387 177.693L58.6974 178.027V178.033ZM61.2906 167.315C62.1183 169.153 63.1271 170.888 64.2782 172.471L58.8203 176.659C57.2295 174.84 55.9168 172.753 54.9274 170.449L61.297 167.321L61.2906 167.315Z" fill="#262525"/>
<path d="M49.8899 184.211L50.2003 184.545L56.3178 179.859L55.9556 179.44C53.9704 177.202 52.3537 174.617 51.1638 171.758L50.9569 171.254L44.251 174.552L44.3932 174.984C45.6025 178.537 47.452 181.639 49.8899 184.211ZM50.3167 183.17C48.228 180.873 46.6113 178.151 45.5055 175.076L50.4396 172.648C51.5712 175.239 53.0521 177.615 54.8304 179.709L50.3102 183.17H50.3167Z" fill="#262525"/>
<path d="M73.2288 157.381L76.5009 156.609L76.3522 156.085C76.0353 155.012 75.8413 153.899 75.7766 152.767L75.7443 152.27L72.498 152.375L72.5304 152.905C72.6209 154.272 72.8149 155.607 73.1124 156.877L73.2352 157.374L73.2288 157.381ZM74.7937 153.337C74.8778 154.207 75.02 155.051 75.227 155.856L73.9789 156.151C73.7914 155.241 73.6556 154.312 73.5715 153.376L74.7872 153.337H74.7937Z" fill="#262525"/>
<path d="M62.3969 159.933L70.3444 158.061L70.2216 157.558C69.8724 156.072 69.6525 154.528 69.562 152.977L69.5296 152.479L61.6209 152.748V153.239C61.5756 155.339 61.802 157.427 62.2805 159.436L62.3904 159.933H62.3969ZM68.579 153.54C68.676 154.809 68.8571 156.072 69.1222 157.296L63.1535 158.703C62.8043 157.086 62.6297 155.424 62.6232 153.742L68.579 153.54Z" fill="#262525"/>
<path d="M49.5734 153.16L49.554 153.644C49.4764 156.615 49.8967 159.495 50.8085 162.204L50.9573 162.642L59.5062 160.62L59.3963 160.116C58.8789 157.944 58.6267 155.686 58.6461 153.389V152.853L49.5734 153.16ZM51.6233 161.425C50.8991 159.109 50.5434 156.668 50.5563 154.155L57.6309 153.913C57.6503 155.928 57.8701 157.918 58.2905 159.848L51.6169 161.425H51.6233Z" fill="#262525"/>
<path d="M39.1237 153.965C38.7939 157.708 39.2336 161.301 40.43 164.658L40.5852 165.09L48.0606 163.323L47.886 162.793C46.9678 159.913 46.5345 156.89 46.5992 153.801L46.6121 153.258L39.169 153.507L39.1302 153.959L39.1237 153.965ZM41.2383 163.879C40.2489 160.928 39.8674 157.774 40.1002 154.508L45.5774 154.318C45.5774 157.152 45.9654 159.927 46.7608 162.577L41.2383 163.879Z" fill="#262525"/>
<path d="M156.971 154.502L156.816 150.831H155.801L155.911 153.442L149.386 153.278L149.347 150.831H148.332L148.384 154.273L156.971 154.502Z" fill="#262525"/>
<path d="M159.849 158.278L159.953 150.831H158.937L158.847 157.165L148.267 156.295L146.974 165.882L154.941 167.858L155.82 163.938L152.121 162.989L152.412 160.516L158.523 161.419L156.085 170.848L146.062 167.845L142.926 177.333L149.929 180.828L151.436 177.124L148.623 175.468L149.198 173.944L154.973 176.09L151.365 184.172L141.736 179.028L136.828 187.607L143.65 192.653L145.545 189.322L142.564 186.783L143.508 185.395L148.416 188.209L143.301 195.597L135.638 188.681L128.369 196.01L133.336 202.043L136.789 199.131L134.112 196.101L135.793 194.681L140.824 200.028L133.213 205.943L126.914 197.423L119.323 202.809L122.827 209.804L126.604 208.057L124.832 204.105L126.332 202.842L129.883 208.476L122.129 213.541L117.596 203.267L107.928 207.193L110.424 215.432L113.981 214.149L113.16 210.066L114.537 209.457L116.781 215.563L109.047 218.2L105.891 207.612L96.2365 209.7L97.4458 217.408L101.688 217.153L101.442 214.123L102.664 213.724L104.035 219.601L95.9261 219.993L94.691 209.765L91.393 209.641V209.615L91.2507 209.621V209.615L90.9985 209.628L90.7463 209.615V209.621H90.6041V209.641L87.3061 209.765L86.071 219.993L77.9553 219.601L79.3262 213.724L80.5484 214.123L80.3092 217.153L84.5448 217.408L85.7605 209.7L76.1058 207.612L72.9501 218.2L65.2095 215.563L67.4534 209.457L68.8373 210.066L68.016 214.149L71.5727 215.432L74.0624 207.193L64.3947 203.267L59.8616 213.541L52.1145 208.476L55.6582 202.842L57.1585 204.105L55.3867 208.057L59.1632 209.804L62.6681 202.809L55.0762 197.423L48.7777 205.943L41.1729 200.028L46.204 194.681L47.8789 196.101L45.2081 199.131L48.6549 202.043L53.6277 196.01L46.3592 188.681L38.6962 195.597L33.5811 188.209L38.4893 185.395L39.4334 186.783L36.4458 189.322L38.3405 192.653L45.1629 187.607L40.2547 179.028L30.6323 184.172L27.0174 176.09L32.7921 173.944L33.3677 175.468L30.5547 177.124L32.0614 180.828L39.0713 177.333L35.9349 167.845L25.9116 170.848L23.4737 161.419L29.5782 160.516L29.8757 162.989L26.1703 163.938L27.0497 167.858L35.0167 165.882L33.7233 156.295L23.1439 157.165L23.0534 150.831H22.0381L22.1416 158.278L32.8503 157.394L33.8915 165.103L27.8128 166.614L27.3795 164.691L30.9879 163.761L30.4641 159.344L22.2062 160.568L25.1938 172.131L35.2818 169.108L37.8232 176.81L32.5917 179.421L31.8286 177.562L34.6222 175.913L33.3871 172.628L25.6465 175.508L30.1537 185.592L39.8667 180.396L43.8243 187.319L38.6574 191.148L37.7521 189.557L40.7914 186.966L38.7932 184.041L32.1067 187.869L38.5216 197.135L46.3204 190.094L52.2503 196.075L48.5255 200.597L46.6567 199.026L49.3403 195.99L46.1199 193.281L39.6597 200.145L48.9717 207.396L55.3026 198.83L61.3683 203.136L58.704 208.456L56.7317 207.547L58.4001 203.817L55.4254 201.31L50.7113 208.783L60.3078 215.052L64.925 204.589L72.8208 207.795L70.9131 214.104L69.1865 213.482L69.9948 209.451L66.8779 208.083L63.8968 216.198L73.6162 219.515L76.8042 208.816L84.6095 210.504L83.6912 216.329L81.402 216.191L81.6219 213.397L78.589 212.402L76.6943 220.562L86.9633 221.06L88.2049 210.76L90.9985 210.655L93.7857 210.76L95.0337 221.06L105.296 220.562L103.402 212.402L100.369 213.397L100.589 216.191L98.2994 216.329L97.3876 210.504L105.186 208.816L108.374 219.515L118.094 216.198L115.119 208.083L112.002 209.451L112.811 213.482L111.084 214.104L109.176 207.795L117.072 204.589L121.683 215.052L131.279 208.783L126.565 201.31L123.597 203.817L125.265 207.547L123.293 208.456L120.629 203.136L126.695 198.83L133.019 207.396L142.331 200.145L135.871 193.281L132.657 195.99L135.334 199.026L133.465 200.597L129.74 196.075L135.677 190.094L143.475 197.135L149.884 187.869L143.197 184.041L141.199 186.966L144.245 189.557L143.34 191.148L138.166 187.319L142.124 180.396L151.843 185.592L156.351 175.508L148.604 172.628L147.375 175.913L150.162 177.562L149.405 179.421L144.167 176.81L146.709 169.108L156.797 172.131L159.791 160.568L151.533 159.344L151.009 163.761L154.611 164.691L154.184 166.614L148.106 165.103L149.147 157.394L159.849 158.278Z" fill="#262525"/>
<path d="M92.1174 170.298C93.4108 170.194 94.73 169.971 96.0298 169.631L96.5342 169.5L95.6482 166.385L95.1632 166.529C94.0898 166.83 92.9775 167.007 91.8588 167.053L91.335 167.085L91.613 170.351L92.111 170.312L92.1174 170.298ZM92.5378 169.225L92.4408 168.041C93.3008 167.969 94.1415 167.838 94.9498 167.635L95.2732 168.761C94.3614 168.977 93.4431 169.127 92.5378 169.225Z" fill="#262525"/>
<path d="M93.0622 181.502C95.0992 181.345 97.1297 180.913 99.0956 180.233L99.5547 180.076L97.3625 172.38L96.884 172.504C95.3966 172.897 93.877 173.159 92.3702 173.283L91.8594 173.322L92.5578 181.548L93.0557 181.509L93.0622 181.502ZM96.6641 173.617L98.3131 179.415C96.7288 179.925 95.1121 180.272 93.489 180.435L92.9652 174.258C94.2132 174.127 95.4548 173.918 96.6641 173.617Z" fill="#262525"/>
<path d="M94.0124 193.398C94.1223 193.398 94.2387 193.398 94.3486 193.398C97.0582 193.398 99.7806 192.914 102.438 191.959L102.891 191.795L100.376 182.961L99.8712 183.125C97.7307 183.851 95.5256 184.309 93.3204 184.486L92.8096 184.525L93.5532 193.392H94.0124V193.398ZM99.6901 184.263L101.656 191.147C99.2892 191.946 96.8836 192.358 94.4909 192.371L93.9089 185.461C95.8554 185.271 97.7954 184.865 99.6901 184.263Z" fill="#262525"/>
<path d="M94.9115 204.15C95.1637 204.157 95.4094 204.163 95.6551 204.163C98.9273 204.163 102.186 203.47 105.362 202.102L105.782 201.925L103.719 194.681L103.215 194.858C100.324 195.872 97.3429 196.389 94.3618 196.396H93.8057L94.4523 204.131L94.905 204.15H94.9115ZM103.04 196.003L104.553 201.336C101.553 202.567 98.4875 203.175 95.39 203.136L94.9115 197.417C97.6469 197.358 100.376 196.88 103.04 196.003Z" fill="#262525"/>
<path d="M100.679 163.65C99.8125 164.364 98.8683 164.979 97.8789 165.476L97.4004 165.712L98.9977 168.65L99.4439 168.401C100.563 167.786 101.675 167.04 102.748 166.183L103.162 165.856L101.061 163.33L100.673 163.65H100.679ZM101.714 165.705C100.944 166.287 100.175 166.804 99.4051 167.256L98.8037 166.15C99.5409 165.744 100.252 165.28 100.925 164.763L101.714 165.705Z" fill="#262525"/>
<path d="M110.166 174.271L105.07 168.146L104.689 168.46C103.479 169.435 102.199 170.298 100.88 171.025L100.434 171.273L104.372 178.498L104.818 178.256C106.616 177.274 108.297 176.044 109.823 174.611L110.172 174.277L110.166 174.271ZM108.763 174.186C107.521 175.305 106.176 176.286 104.766 177.104L101.805 171.679C102.878 171.058 103.926 170.351 104.928 169.572L108.763 174.186Z" fill="#262525"/>
<path d="M110.463 188.726C113.063 187.601 115.455 185.991 117.589 183.943L117.932 183.609L112.08 176.574L111.685 176.934C110.011 178.485 108.187 179.813 106.253 180.874L105.801 181.122L110.043 188.916L110.47 188.733L110.463 188.726ZM110.483 187.594L107.172 181.528C108.866 180.553 110.483 179.388 111.976 178.047L116.535 183.524C114.699 185.225 112.668 186.593 110.483 187.594Z" fill="#262525"/>
<path d="M115.598 198.182C118.857 196.834 121.793 194.76 124.328 192.005L124.632 191.671L119.84 185.899L119.445 186.266C117.208 188.386 114.692 190.088 111.976 191.318L111.479 191.547L115.177 198.339L115.604 198.176L115.598 198.182ZM112.895 192.031C115.371 190.847 117.674 189.289 119.749 187.391L123.28 191.638C121.03 194.001 118.456 195.827 115.63 197.057L112.895 192.031Z" fill="#262525"/>
<path d="M105.265 163.807L105.375 163.663C106.164 162.616 106.881 161.478 107.502 160.274L107.741 159.802L104.799 158.35L104.579 158.801C104.068 159.802 103.448 160.745 102.736 161.602L102.394 162.021L105.064 164.069L105.258 163.814L105.265 163.807ZM103.849 161.844C104.366 161.177 104.838 160.463 105.245 159.717L106.358 160.267C105.905 161.092 105.407 161.89 104.87 162.636L103.849 161.851V161.844Z" fill="#262525"/>
<path d="M114.233 170.443C115.481 168.807 116.529 166.994 117.337 165.057L117.531 164.605L110.418 161.104L110.185 161.543C109.474 162.93 108.652 164.246 107.741 165.45L107.424 165.862L113.929 170.842L114.233 170.436V170.443ZM108.847 165.672C109.59 164.645 110.263 163.572 110.851 162.466L116.212 165.103C115.533 166.641 114.699 168.087 113.735 169.415L108.853 165.679L108.847 165.672Z" fill="#262525"/>
<path d="M128.376 169.939L120.196 165.921L119.989 166.412C119.09 168.512 117.946 170.475 116.594 172.255L116.29 172.668L123.293 178.034L123.61 177.693C125.531 175.593 127.076 173.139 128.195 170.39L128.376 169.945V169.939ZM117.713 172.465C118.87 170.881 119.873 169.154 120.7 167.308L127.07 170.436C126.074 172.746 124.768 174.827 123.177 176.646L117.719 172.458L117.713 172.465Z" fill="#262525"/>
<path d="M132.101 184.211C134.539 181.633 136.388 178.531 137.598 174.977L137.74 174.552L131.034 171.254L130.834 171.758C129.644 174.617 128.027 177.202 126.042 179.44L125.68 179.859L131.797 184.545L132.108 184.211H132.101ZM127.161 179.702C128.945 177.608 130.42 175.233 131.551 172.641L136.485 175.069C135.38 178.151 133.763 180.873 131.674 183.164L127.154 179.702H127.161Z" fill="#262525"/>
<path d="M108.892 156.884C109.19 155.614 109.384 154.279 109.474 152.912L109.507 152.382L106.261 152.277L106.228 152.774C106.157 153.906 105.963 155.019 105.653 156.092L105.504 156.615L108.776 157.388L108.899 156.89L108.892 156.884ZM106.771 155.85C106.978 155.045 107.121 154.201 107.205 153.33L108.42 153.37C108.343 154.305 108.207 155.235 108.013 156.144L106.765 155.85H106.771Z" fill="#262525"/>
<path d="M119.711 159.436C120.196 157.42 120.422 155.339 120.383 153.239V152.748L112.468 152.479L112.436 152.983C112.345 154.534 112.119 156.079 111.776 157.564L111.653 158.068L119.601 159.94L119.711 159.442V159.436ZM112.869 157.296C113.134 156.072 113.315 154.809 113.412 153.54L119.368 153.742C119.368 155.424 119.187 157.086 118.838 158.703L112.869 157.296Z" fill="#262525"/>
<path d="M122.485 160.614L131.034 162.636L131.183 162.197C132.095 159.495 132.515 156.615 132.438 153.638L132.418 153.16L123.332 152.853L123.345 153.389C123.365 155.686 123.113 157.95 122.595 160.123L122.485 160.62V160.614ZM124.361 153.913L131.435 154.155C131.455 156.668 131.099 159.115 130.375 161.425L123.701 159.848C124.121 157.918 124.341 155.928 124.361 153.913Z" fill="#262525"/>
<path d="M141.569 164.658C142.765 161.301 143.205 157.702 142.875 153.959L142.836 153.507L135.393 153.258V153.801C135.464 156.89 135.031 159.92 134.119 162.793L133.944 163.323L141.42 165.09L141.569 164.658ZM135.238 162.577C136.027 159.927 136.421 157.152 136.421 154.318L141.898 154.508C142.131 157.78 141.75 160.928 140.76 163.879L135.238 162.577Z" fill="#262525"/>
<path d="M148.332 80.2742H149.347L149.386 77.8267L155.911 77.6631L155.801 80.2742H156.816L156.971 76.603L148.384 76.8321L148.332 80.2742Z" fill="#262525"/>
<path d="M159.849 72.8272L149.147 73.7106L148.106 65.9954L154.184 64.4903L154.611 66.4142L151.009 67.3369L151.533 71.754L159.791 70.5368L156.797 58.9672L146.709 61.997L144.167 54.2948L149.405 51.6838L150.162 53.5423L147.375 55.1914L148.604 58.4764L156.351 55.5971L151.843 45.5129L142.124 50.7088L138.166 43.7853L143.34 39.9571L144.245 41.5473L141.199 44.1387L143.197 47.0638L149.884 43.2356L143.475 33.9695L135.677 41.0107L129.74 35.0296L133.465 30.5077L135.334 32.0783L132.657 35.1146L135.871 37.8238L142.331 30.9593L133.019 23.7086L126.695 32.268L120.629 27.9687L123.293 22.6419L125.265 23.5581L123.597 27.2881L126.565 29.7944L131.279 22.3213L121.683 16.0457L117.072 26.5159L109.176 23.3094L111.084 17.0011L112.811 17.6228L112.002 21.6538L115.119 23.0215L118.094 14.907L108.374 11.5893L105.186 22.2886L97.3876 20.6002L98.2994 14.7762L100.589 14.9136L100.369 17.7013L103.402 18.7025L105.296 10.5423L95.0337 10.0449L93.7857 20.345L90.9985 20.4497L88.2049 20.345L86.9633 10.0449L76.6943 10.5423L78.589 18.7025L81.6219 17.7013L81.402 14.9136L83.6912 14.7762L84.6095 20.6002L76.8042 22.2886L73.6162 11.5893L63.8968 14.907L66.8779 23.0215L69.9948 21.6538L69.1865 17.6228L70.9131 17.0011L72.8208 23.3094L64.925 26.5159L60.3078 16.0457L50.7113 22.3213L55.4254 29.7944L58.4001 27.2881L56.7317 23.5581L58.704 22.6419L61.3683 27.9687L55.3026 32.268L48.9717 23.7086L39.6597 30.9593L46.1199 37.8238L49.3403 35.1146L46.6567 32.0783L48.5255 30.5077L52.2503 35.0296L46.3204 41.0107L38.5216 33.9695L32.1067 43.2356L38.7932 47.0638L40.7914 44.1387L37.7521 41.5473L38.6574 39.9571L43.8243 43.7853L39.8667 50.7088L30.1537 45.5129L25.6465 55.5971L33.3871 58.4764L34.6222 55.1914L31.8286 53.5423L32.5917 51.6838L37.8232 54.2948L35.2818 61.997L25.1938 58.9672L22.2062 70.5368L30.4641 71.754L30.9879 67.3369L27.3795 66.4142L27.8128 64.4903L33.8915 65.9954L32.8503 73.7106L22.1416 72.8272L22.0381 80.2742H23.0534L23.1439 73.9397L33.7233 74.81L35.0167 65.2232L27.0497 63.2469L26.1703 67.1667L29.8757 68.1156L29.5782 70.5892L23.4737 69.6861L25.9116 60.2563L35.9349 63.26L39.0713 53.7713L32.0614 50.2769L30.5547 53.9807L33.3677 55.6363L32.7921 57.1611L27.0174 55.0147L30.6323 46.9329L40.2547 52.0765L45.1629 43.4974L38.3405 38.452L36.4458 41.7829L39.4334 44.3219L38.4893 45.7092L33.5811 42.8954L38.6962 35.5073L46.3592 42.4242L53.6277 35.0885L48.6549 29.055L45.2081 31.9736L47.8789 35.0034L46.204 36.4234L41.1729 31.077L48.7777 25.1614L55.0762 33.6815L62.6681 28.2959L59.1632 21.3004L55.3867 23.0477L57.1585 27.0002L55.6582 28.2566L52.1145 22.6289L59.8616 17.5573L64.3947 27.8378L74.0624 23.9115L71.5727 15.6727L68.016 16.9553L68.8373 21.0387L67.4534 21.6473L65.2095 15.5418L72.9501 12.8981L76.1058 23.4927L85.7605 21.4051L84.5448 13.6964L80.3092 13.9516L80.5484 16.9815L79.3262 17.3806L77.9553 11.5042L86.071 11.1116L87.3061 21.3397L90.6041 21.464V21.4902L90.7463 21.4837L90.9985 21.4771L91.2507 21.4837H91.393V21.464L94.691 21.3397L95.9261 11.1116L104.035 11.5042L102.664 17.3806L101.442 16.9815L101.688 13.9516L97.4458 13.6964L96.2365 21.4051L105.891 23.4927L109.047 12.8981L116.781 15.5418L114.537 21.6473L113.16 21.0387L113.981 16.9553L110.424 15.6727L107.928 23.9115L117.596 27.8378L122.129 17.5573L129.883 22.6289L126.332 28.2566L124.832 27.0002L126.604 23.0477L122.827 21.3004L119.323 28.2959L126.914 33.6815L133.213 25.1614L140.824 31.077L135.793 36.4234L134.112 35.0034L136.789 31.9736L133.336 29.055L128.369 35.0885L135.638 42.4242L143.301 35.5073L148.416 42.8954L143.508 45.7092L142.564 44.3219L145.545 41.7829L143.65 38.452L136.828 43.4974L141.736 52.0765L151.365 46.9329L154.973 55.0147L149.198 57.1611L148.623 55.6363L151.436 53.9807L149.929 50.2769L142.926 53.7713L146.062 63.26L156.085 60.2563L158.523 69.6861L152.412 70.5892L152.121 68.1156L155.82 67.1667L154.941 63.2469L146.974 65.2232L148.267 74.81L158.847 73.9397L158.937 80.2742H159.953L159.849 72.8272Z" fill="#262525"/>
<path d="M91.3418 64.0321L91.8721 64.0648C92.9843 64.1172 94.0966 64.2939 95.1701 64.5883L95.6551 64.7323L96.541 61.6174L96.0366 61.4865C94.7368 61.1462 93.4176 60.9238 92.1243 60.8191L91.6263 60.7798L91.3483 64.0452L91.3418 64.0321ZM92.5446 61.8792C93.4499 61.9773 94.3682 62.1344 95.28 62.3438L94.9567 63.4693C94.1483 63.273 93.3012 63.1356 92.4476 63.0636L92.5446 61.8792Z" fill="#262525"/>
<path d="M91.8652 57.7826L92.3761 57.8219C93.8828 57.9462 95.4025 58.208 96.8898 58.6006L97.3684 58.7249L99.5606 51.0293L99.1014 50.8723C97.1356 50.1851 95.105 49.7598 93.068 49.6027L92.5636 49.5635L91.8652 57.7892V57.7826ZM98.3125 51.6902L96.6635 57.4882C95.4542 57.1937 94.2126 56.9777 92.9646 56.8469L93.4884 50.6694C95.1115 50.833 96.7282 51.1733 98.3125 51.6902Z" fill="#262525"/>
<path d="M92.8092 46.573L93.3201 46.6123C95.5252 46.789 97.7303 47.247 99.8773 47.9734L100.375 48.137L102.891 39.3027L102.438 39.1391C99.6703 38.1445 96.8315 37.6602 94.012 37.6995H93.5464L92.8027 46.5665L92.8092 46.573ZM101.656 39.9571L99.6897 46.8413C97.795 46.2393 95.8485 45.8336 93.9085 45.6438L94.4905 38.7334C96.8832 38.7465 99.2888 39.1588 101.656 39.9571Z" fill="#262525"/>
<path d="M94.9109 26.9542L94.4582 26.9739L93.8115 34.7088H94.3676C97.3488 34.7088 100.33 35.2323 103.221 36.2466L103.725 36.4233L105.788 29.1792L105.374 29.0025C101.96 27.5301 98.4416 26.8365 94.9173 26.9542H94.9109ZM94.9109 33.6879L95.3894 27.9686C98.474 27.9358 101.552 28.5379 104.553 29.7681L103.039 35.1014C100.382 34.218 97.6462 33.7468 94.9109 33.6879Z" fill="#262525"/>
<path d="M99.4439 62.7037L98.9977 62.4551L97.4004 65.3933L97.8789 65.6289C98.8683 66.1262 99.8125 66.7413 100.679 67.4546L101.067 67.7753L103.169 65.2493L102.755 64.9221C101.681 64.0649 100.569 63.3189 99.4503 62.7037H99.4439ZM101.707 65.4064L100.918 66.3487C100.246 65.8317 99.5344 65.3671 98.7972 64.9614L99.3986 63.8555C100.168 64.3005 100.938 64.824 101.707 65.4064Z" fill="#262525"/>
<path d="M104.365 52.6128L100.427 59.8373L100.873 60.0859C102.192 60.8123 103.473 61.6761 104.682 62.6511L105.07 62.9718L110.166 56.8467L109.816 56.513C108.297 55.0798 106.615 53.8561 104.818 52.8746L104.371 52.6324L104.365 52.6128ZM108.762 56.9187L104.928 61.5321C103.925 60.7534 102.878 60.0467 101.804 59.425L104.766 54.0001C106.176 54.8181 107.521 55.7931 108.762 56.9187Z" fill="#262525"/>
<path d="M110.037 42.195L105.795 49.9888L106.248 50.2309C108.181 51.2911 110.011 52.6195 111.686 54.1769L112.081 54.5303L117.933 47.4956L117.59 47.1553C115.463 45.1071 113.063 43.5038 110.464 42.3717L110.037 42.1885V42.195ZM116.536 47.5807L111.977 53.0579C110.483 51.723 108.873 50.5516 107.172 49.5766L110.483 43.5103C112.669 44.5116 114.7 45.8792 116.536 47.5807Z" fill="#262525"/>
<path d="M115.592 32.916L115.172 32.7524L111.473 39.545L111.971 39.7741C114.687 41.0043 117.202 42.6992 119.44 44.826L119.834 45.1924L124.626 39.4207L124.322 39.0935C121.787 36.3385 118.851 34.2641 115.585 32.916H115.592ZM123.281 39.4665L119.75 43.7069C117.674 41.8092 115.372 40.2518 112.895 39.0673L115.631 34.0416C118.457 35.2718 121.024 37.0976 123.281 39.4599V39.4665Z" fill="#262525"/>
<path d="M105.07 67.0425L102.399 69.0907L102.742 69.5095C103.453 70.3602 104.074 71.3026 104.585 72.3038L104.811 72.7553L107.754 71.3026L107.508 70.8314C106.881 69.6273 106.163 68.4887 105.374 67.4417L105.07 67.0425ZM105.251 71.3942C104.844 70.6482 104.372 69.9349 103.854 69.2674L104.876 68.4821C105.413 69.2281 105.911 70.02 106.363 70.851L105.251 71.4007V71.3942Z" fill="#262525"/>
<path d="M114.233 60.6623L113.929 60.25L107.424 65.2299L107.734 65.6356C108.646 66.8463 109.467 68.1616 110.185 69.5489L110.418 69.9873L117.531 66.4863L117.337 66.0348C116.522 64.0978 115.481 62.2852 114.233 60.6557V60.6623ZM113.729 61.6897C114.699 63.0181 115.527 64.4643 116.206 66.0021L110.845 68.6393C110.256 67.5334 109.584 66.4536 108.84 65.4328L113.722 61.6962L113.729 61.6897Z" fill="#262525"/>
<path d="M123.293 53.071L116.29 58.437L116.594 58.8493C117.939 60.6292 119.084 62.5924 119.982 64.6864L120.189 65.1772L128.37 61.1593L128.189 60.7077C127.07 57.9593 125.524 55.5053 123.604 53.4047L123.293 53.0645V53.071ZM120.7 63.7899C119.873 61.9511 118.864 60.2169 117.713 58.6333L123.171 54.4452C124.761 56.2644 126.074 58.3454 127.063 60.6554L120.694 63.7834L120.7 63.7899Z" fill="#262525"/>
<path d="M132.108 46.8938L131.797 46.5601L125.68 51.2455L126.042 51.6643C128.027 53.9023 129.644 56.4872 130.834 59.3469L131.041 59.8507L137.746 56.5526L137.604 56.1207C136.395 52.5674 134.545 49.4656 132.108 46.8938ZM131.681 47.9343C133.769 50.2312 135.386 52.9535 136.492 56.0291L131.558 58.4569C130.426 55.8655 128.945 53.4901 127.167 51.396L131.687 47.9343H131.681Z" fill="#262525"/>
<path d="M106.253 78.8279L109.5 78.7232L109.467 78.1931C109.377 76.8254 109.183 75.4905 108.885 74.221L108.762 73.7236L105.49 74.4958L105.639 75.0193C105.956 76.086 106.143 77.205 106.214 78.3371L106.247 78.8344L106.253 78.8279ZM108.012 74.9539C108.2 75.8635 108.336 76.7927 108.42 77.7285L107.204 77.7678C107.12 76.8974 106.978 76.0533 106.771 75.2484L108.019 74.9539H108.012Z" fill="#262525"/>
<path d="M119.594 71.1714L111.646 73.0429L111.769 73.5468C112.119 75.0323 112.338 76.5767 112.429 78.1276L112.461 78.6249L120.37 78.3566V77.8658C120.415 75.7652 120.189 73.6777 119.71 71.6687L119.6 71.1714H119.594ZM113.412 77.5648C113.315 76.2953 113.134 75.0323 112.869 73.8086L118.837 72.4016C119.187 74.018 119.361 75.6801 119.368 77.3619L113.412 77.5648Z" fill="#262525"/>
<path d="M132.418 77.9445L132.438 77.4603C132.515 74.4828 132.095 71.61 131.183 68.9008L131.034 68.4624L122.485 70.4845L122.595 70.9884C123.113 73.1609 123.365 75.4186 123.345 77.7155L123.332 78.2521L132.418 77.9445ZM130.368 69.6796C131.092 71.9961 131.448 74.437 131.429 76.9498L124.354 77.192C124.335 75.1765 124.115 73.1806 123.695 71.2566L130.368 69.6796Z" fill="#262525"/>
<path d="M141.413 66.0151L133.938 67.782L134.112 68.3121C135.03 71.1914 135.464 74.2147 135.399 77.3099V77.8531L142.836 77.6044L142.874 77.1529C143.204 73.4163 142.764 69.8171 141.568 66.4601L141.419 66.0282L141.413 66.0151ZM140.753 67.2258C141.743 70.1771 142.124 73.3247 141.891 76.5966L136.414 76.7864C136.414 73.9529 136.026 71.1783 135.231 68.528L140.753 67.2258Z" fill="#262525"/>
<path d="M25.0264 76.603L25.1751 80.2742H26.1904L26.0804 77.6631L32.6118 77.8267L32.6441 80.2742H33.6658L33.6076 76.8321L25.0264 76.603Z" fill="#262525"/>
<path d="M89.8734 60.8058C88.5736 60.9105 87.2609 61.133 85.9546 61.4733L85.4502 61.6041L86.3361 64.719L86.8211 64.5751C87.8946 64.274 89.0069 64.0974 90.1256 64.0515L90.6494 64.0188L90.3713 60.7534L89.8734 60.7927V60.8058ZM89.4531 61.879L89.5501 63.0634C88.69 63.1354 87.8493 63.2663 87.041 63.4691L86.7177 62.3436C87.6295 62.1276 88.5477 61.9771 89.4531 61.879Z" fill="#262525"/>
<path d="M88.9359 49.6029C86.8989 49.76 84.8684 50.1919 82.9025 50.8725L82.4434 51.0295L84.6356 58.7251L85.1141 58.6008C86.6014 58.2082 88.1146 57.9464 89.6278 57.8221L90.1387 57.7828L89.4403 49.5571L88.9424 49.5964L88.9359 49.6029ZM85.334 57.4883L83.685 51.6904C85.2693 51.18 86.886 50.8332 88.5091 50.6696L89.0329 56.847C87.7848 56.9779 86.5432 57.1873 85.334 57.4883Z" fill="#262525"/>
<path d="M87.9789 37.7058C85.1595 37.6666 82.3206 38.1508 79.5464 39.1455L79.0938 39.3091L81.6093 48.1434L82.1137 47.9798C84.2541 47.2534 86.4593 46.7953 88.6709 46.6186L89.1753 46.5794L88.4316 37.7124H87.9725L87.9789 37.7058ZM82.3012 46.8411L80.3354 39.9569C82.7022 39.1586 85.1077 38.7463 87.5004 38.7332L88.0824 45.6436C86.1359 45.8334 84.1959 46.2391 82.3012 46.8411Z" fill="#262525"/>
<path d="M87.0863 26.9542C83.5619 26.8365 80.0506 27.5301 76.6362 29.0025L76.2158 29.1792L78.2787 36.4233L78.7831 36.2466C81.6737 35.2323 84.6548 34.7088 87.6359 34.7088H88.1921L87.5389 26.9739L87.0863 26.9542ZM78.9577 35.1014L77.4445 29.7681C80.445 28.5379 83.5231 27.9293 86.6077 27.9686L87.0863 33.6879C84.3509 33.7468 81.6219 34.2245 78.9577 35.1014Z" fill="#262525"/>
<path d="M81.3182 67.4546C82.1847 66.7413 83.1288 66.1262 84.1182 65.6289L84.5968 65.3933L82.9995 62.4551L82.5533 62.7037C81.4346 63.3189 80.3223 64.0649 79.2488 64.9221L78.835 65.2493L80.9366 67.7818L81.3246 67.4612L81.3182 67.4546ZM80.2835 65.3998C81.053 64.8174 81.8226 64.3005 82.5921 63.8489L83.1935 64.9549C82.4563 65.3606 81.745 65.8252 81.0724 66.3422L80.2835 65.3998Z" fill="#262525"/>
<path d="M71.8317 56.8338L76.9274 62.9589L77.3089 62.6448C78.5182 61.6698 79.7986 60.806 81.1178 60.0796L81.564 59.8309L77.6258 52.6064L77.1796 52.8486C75.3819 53.8302 73.7005 55.0604 72.1744 56.4935L71.8252 56.8273L71.8317 56.8338ZM73.2349 56.9189C74.4765 55.7999 75.8216 54.8183 77.2313 54.0003L80.1931 59.4252C79.1196 60.0469 78.072 60.7536 77.0697 61.5323L73.2349 56.9189Z" fill="#262525"/>
<path d="M71.5344 42.3783C68.9348 43.5038 66.5422 45.1136 64.4082 47.1618L64.0654 47.4956L69.9178 54.5303L70.3122 54.1704C71.9871 52.6195 73.8172 51.2911 75.7442 50.2309L76.1969 49.9823L71.9548 42.1885L71.528 42.3717L71.5344 42.3783ZM71.515 43.5103L74.8195 49.5766C73.1252 50.5516 71.515 51.7164 70.0148 53.0579L65.4558 47.5807C67.2923 45.8792 69.3228 44.5116 71.5086 43.5103H71.515Z" fill="#262525"/>
<path d="M66.3933 32.9222C63.1341 34.2702 60.1982 36.3447 57.6633 39.0996L57.3594 39.4334L62.1512 45.2051L62.5456 44.8386C64.7831 42.7184 67.2986 41.017 70.0146 39.7868L70.5126 39.5577L66.8136 32.7651L66.3868 32.9287L66.3933 32.9222ZM69.0964 39.0735C66.6196 40.2579 64.3175 41.8154 62.2417 43.7131L58.7109 39.4726C60.9613 37.1103 63.535 35.2845 66.361 34.0543L69.0964 39.08V39.0735Z" fill="#262525"/>
<path d="M76.6168 67.4414C75.8279 68.4884 75.1165 69.627 74.4893 70.8311L74.25 71.3023L77.1923 72.755L77.4122 72.3035C77.9231 71.3023 78.5439 70.3599 79.2552 69.5027L79.5979 69.0839L76.9272 67.0356L76.6168 67.4414ZM78.1429 69.2606C77.6256 69.928 77.1535 70.6413 76.7461 71.3873L75.6339 70.8377C76.0865 70.0131 76.5845 69.2148 77.1212 68.4688L78.1429 69.254V69.2606Z" fill="#262525"/>
<path d="M67.758 60.6555C66.5099 62.2915 65.4623 64.1042 64.654 66.0412L64.46 66.4927L71.5733 69.9937L71.8061 69.5552C72.5174 68.1679 73.3387 66.8526 74.2505 65.6485L74.5674 65.2363L68.0619 60.2563L67.758 60.6621V60.6555ZM73.1447 65.426C72.401 66.4534 71.7285 67.5266 71.14 68.6325L65.7792 65.9954C66.4582 64.4575 67.2924 63.0113 68.2559 61.6829L73.1382 65.4195L73.1447 65.426Z" fill="#262525"/>
<path d="M53.6217 61.1661L61.802 65.1841L62.009 64.6933C62.9078 62.5992 64.0524 60.6295 65.3975 58.8496L65.7014 58.4373L58.698 53.0713L58.3812 53.4116C56.4606 55.5122 54.915 57.9661 53.7963 60.7146L53.6152 61.1661H53.6217ZM64.2852 58.6402C63.1277 60.2238 62.1254 61.9514 61.2976 63.7968L54.928 60.6688C55.9238 58.3653 57.2301 56.2778 58.8209 54.4586L64.2788 58.6467L64.2852 58.6402Z" fill="#262525"/>
<path d="M49.8899 46.8938C47.452 49.4721 45.6025 52.5739 44.3932 56.1273L44.251 56.5526L50.9569 59.8507L51.1574 59.3469C52.3537 56.4872 53.9639 53.9023 55.9492 51.6643L56.3113 51.2455L50.1938 46.5601L49.8899 46.8938ZM54.8304 51.4026C53.0456 53.4966 51.5712 55.872 50.4396 58.4634L45.5055 56.0356C46.6113 52.9535 48.228 50.2312 50.3167 47.9408L54.8369 51.4026H54.8304Z" fill="#262525"/>
<path d="M73.1055 74.2212C72.8081 75.4907 72.6141 76.8256 72.5235 78.1933L72.4912 78.7234L75.7375 78.8281L75.7698 78.3307C75.8409 77.1986 76.0349 76.0862 76.3453 75.013L76.4941 74.4895L73.2219 73.7173L73.0991 74.2146L73.1055 74.2212ZM75.2266 75.2551C75.0197 76.06 74.8774 76.9042 74.7933 77.7745L73.5776 77.7352C73.6552 76.7995 73.791 75.8702 73.985 74.9606L75.2331 75.2551H75.2266Z" fill="#262525"/>
<path d="M62.287 71.6689C61.802 73.6844 61.5821 75.7719 61.6144 77.866V78.3568L69.5296 78.6251L69.562 78.1212C69.6525 76.5703 69.8788 75.0325 70.2216 73.5405L70.3444 73.0366L62.3969 71.165L62.287 71.6624V71.6689ZM69.1287 73.8088C68.8636 75.0325 68.6825 76.2955 68.5855 77.565L62.6297 77.3621C62.6297 75.6803 62.8172 74.0182 63.16 72.4018L69.1287 73.8088Z" fill="#262525"/>
<path d="M50.8085 68.9074C49.8967 71.61 49.4764 74.4893 49.554 77.4668L49.5734 77.9445L58.6591 78.2521V77.7155C58.6332 75.4186 58.8854 73.1544 59.4027 70.9818L59.5127 70.4845L50.9637 68.4624L50.815 68.9008L50.8085 68.9074ZM58.2969 71.2501C57.8766 73.1806 57.6567 75.1699 57.6373 77.1854L50.5628 76.9433C50.5434 74.4304 50.8991 71.983 51.6298 69.673L58.3034 71.2501H58.2969Z" fill="#262525"/>
<path d="M40.43 66.447C39.2336 69.8041 38.7939 73.4032 39.1237 77.1463L39.1625 77.5979L46.6056 77.8465L46.5927 77.3034C46.528 74.2147 46.9613 71.1848 47.8796 68.3121L48.0542 67.782L40.5787 66.0151L40.4235 66.447H40.43ZM46.7608 68.528C45.9719 71.1783 45.5774 73.9529 45.5774 76.7864L40.1002 76.5966C39.8674 73.3247 40.2554 70.1771 41.2383 67.2258L46.7608 68.528Z" fill="#262525"/>
<path d="M90.9985 1.96317C133.077 1.96317 167.305 36.6001 167.305 79.1813H169.245C169.245 35.5203 134.144 0 90.9985 0C47.853 0 12.752 35.5203 12.752 79.1813H14.692C14.692 36.6001 48.92 1.96317 90.9985 1.96317Z" fill="#262525"/>
<path d="M90.9985 229.037C48.92 229.037 14.692 194.4 14.692 151.819H12.752C12.752 195.48 47.853 231 90.9985 231C134.144 231 169.245 195.48 169.245 151.819H167.305C167.305 194.4 133.077 229.037 90.9985 229.037Z" fill="#262525"/>
</g>
<defs>
<clipPath id="clip0_215_7052">
<rect width="183" height="231" fill="white"/>
</clipPath>
</defs>
</svg>
