<svg width="159" height="159" viewBox="0 0 159 159" fill="none" xmlns="http://www.w3.org/2000/svg">
<path d="M84.3593 13.6257C83.9022 13.5914 83.407 13.4923 82.8736 13.3285C82.3403 13.1647 82.0432 13.0809 81.9784 13.0771C81.7765 13.0619 81.586 13.1114 81.407 13.2257C81.228 13.34 81.0794 13.3933 80.9613 13.3857C80.6413 13.3628 80.4546 13.0581 80.4051 12.479C80.2984 11.3476 80.2642 10.5363 80.2984 10.0486C80.3213 9.462 80.4965 9.18011 80.828 9.20677C80.8813 9.21058 80.9308 9.22201 80.9765 9.24106C81.0222 9.2601 81.0641 9.28296 81.0984 9.30582C81.1327 9.32867 81.1708 9.37439 81.2089 9.43534C81.247 9.49629 81.2775 9.54581 81.3003 9.58771C81.3232 9.62581 81.3651 9.70199 81.426 9.81247C81.487 9.92294 81.5365 10.0144 81.5746 10.0791C82.3441 11.4848 83.3765 12.2352 84.6603 12.3343C85.0336 12.3533 85.3193 12.2657 85.5136 12.0791C85.7079 11.8924 85.8146 11.6524 85.826 11.3629C85.8412 11.161 85.7955 10.9591 85.685 10.7572C85.5746 10.5553 85.3879 10.3458 85.1251 10.121C84.8584 9.89627 84.6146 9.71342 84.3974 9.56867C84.1765 9.42391 83.8679 9.22582 83.4717 8.97059C83.0946 8.72679 82.8127 8.54394 82.6222 8.41823C82.4317 8.29252 82.207 8.12872 81.9441 7.92682C81.6813 7.72492 81.4908 7.54588 81.3727 7.39351C81.2546 7.24113 81.1365 7.05447 81.0146 6.83734C80.8927 6.6202 80.8127 6.38783 80.7784 6.14403C80.7441 5.90023 80.7365 5.62976 80.7594 5.33263C80.8318 4.35362 81.3118 3.56126 82.1994 2.95557C83.0832 2.34988 84.1003 2.08703 85.2508 2.17465C85.5822 2.1975 85.9593 2.26988 86.3898 2.38797C86.8203 2.50606 87.0603 2.56701 87.1136 2.57082C87.2736 2.58225 87.4374 2.55178 87.6012 2.4794C87.7688 2.40702 87.9136 2.37273 88.0431 2.38416C88.3821 2.41083 88.5917 2.70415 88.6679 3.26413C88.7669 4.09458 88.7936 4.77646 88.7555 5.30977C88.7326 5.89642 88.5307 6.1745 88.146 6.14784C88.0203 6.13641 87.9022 6.07165 87.7993 5.95356C87.6964 5.83166 87.5403 5.60309 87.3307 5.26787C86.5955 4.09077 85.8336 3.46984 85.0489 3.4127C84.6755 3.38603 84.3784 3.45841 84.1498 3.63364C83.9213 3.80887 83.7955 4.06029 83.7727 4.39171C83.7422 4.78408 83.8984 5.16121 84.2336 5.51929C84.5689 5.87737 85.1784 6.32688 86.0584 6.87543C86.5612 7.18018 86.9193 7.40493 87.1403 7.54969C87.3612 7.69445 87.6317 7.89635 87.9517 8.15538C88.2755 8.41442 88.4964 8.64298 88.6221 8.84107C88.7479 9.03916 88.8507 9.27534 88.9383 9.55343C89.0221 9.83151 89.0564 10.1363 89.0298 10.4677C88.9383 11.5419 88.4317 12.3571 87.5136 12.9209C86.5955 13.4847 85.5441 13.7209 84.3632 13.6295L84.3593 13.6257Z" fill="black"/>
<path d="M99.0984 12.1172C99.2774 12.201 99.3765 12.3153 99.3993 12.4562C99.4222 12.5972 99.3917 12.8181 99.3117 13.1191C99.0717 14.0181 98.8279 14.6999 98.5803 15.1685C98.4393 15.4428 98.2641 15.6142 98.0431 15.679C97.826 15.7437 97.4946 15.7247 97.0451 15.6218L90.4661 14.1095C90.1118 14.0295 89.8718 13.9305 89.7461 13.8124C89.6204 13.6943 89.5823 13.5343 89.628 13.3248C89.6699 13.1381 89.7423 12.9972 89.849 12.9057C89.9518 12.8143 90.0661 12.7457 90.1918 12.6962C90.3175 12.6505 90.447 12.5819 90.5804 12.4981C90.7137 12.4143 90.8508 12.2467 90.9918 12.0029C91.1327 11.7553 91.2508 11.4201 91.3461 10.9934L92.4051 6.37644C92.5042 5.94979 92.5423 5.59551 92.527 5.31362C92.5118 5.03172 92.4584 4.82221 92.3746 4.68888C92.2908 4.55555 92.2032 4.43746 92.108 4.34223C92.0165 4.24318 91.9442 4.13271 91.8908 4.00319C91.8375 3.87748 91.8337 3.71749 91.8756 3.53083C91.9251 3.32131 92.028 3.1956 92.1956 3.14608C92.3594 3.09656 92.6184 3.11179 92.9727 3.19179L99.1174 4.60126C99.906 4.78411 100.348 5.09648 100.443 5.54599C100.569 6.04502 100.626 6.605 100.615 7.22593C100.58 7.79734 100.413 8.1059 100.108 8.14399C99.7917 8.18209 99.5441 7.97638 99.3612 7.53068C99.1136 6.94785 98.8355 6.49834 98.5307 6.18216C98.226 5.86598 97.845 5.65646 97.3879 5.5498L96.7974 5.41266C96.4127 5.32505 96.1384 5.31743 95.9746 5.386C95.8108 5.45838 95.7003 5.61837 95.6432 5.86979L95.2394 7.63354C95.1746 7.91543 95.2013 8.12876 95.3232 8.27732C95.4413 8.42589 95.6584 8.53636 95.9708 8.60493L96.1727 8.65064C96.3898 8.70016 96.5841 8.67731 96.7479 8.57826C96.9117 8.47922 97.0374 8.36113 97.1174 8.22018C97.1974 8.07923 97.3041 7.95733 97.4336 7.85067C97.5631 7.74401 97.7041 7.70591 97.8603 7.74401C98.0698 7.79353 98.1993 7.88115 98.2565 8.01447C98.3136 8.1478 98.3098 8.35351 98.245 8.6354L97.7422 10.8182C97.6812 11.0886 97.5936 11.2753 97.4831 11.382C97.3727 11.4886 97.2127 11.5153 97.0031 11.4696C96.847 11.4353 96.7327 11.3401 96.6641 11.1877C96.5955 11.0353 96.5536 10.8753 96.546 10.7077C96.5346 10.5401 96.4774 10.3763 96.3708 10.2163C96.2641 10.0563 96.1041 9.94964 95.887 9.90012L95.6851 9.85441C95.3613 9.78203 95.1175 9.78203 94.9536 9.85822C94.7898 9.93441 94.6718 10.1211 94.607 10.4106L94.0432 12.86C93.986 13.1076 94.0241 13.3057 94.1613 13.4467C94.2984 13.5876 94.5956 13.7095 95.0527 13.8162L95.9251 14.0181C96.1841 14.079 96.4432 14.0447 96.7022 13.919C96.9612 13.7933 97.1784 13.6333 97.3612 13.4467C97.5403 13.2562 97.807 12.9476 98.1574 12.5134C98.5041 12.1019 98.8165 11.9686 99.1022 12.121L99.0984 12.1172Z" fill="black"/>
<path d="M107.536 7.27536L111.163 8.92864C112.706 9.63337 113.757 10.54 114.317 11.6485C114.877 12.7609 114.873 13.938 114.31 15.1798C113.327 17.336 111.327 17.7245 108.31 16.3493L107.453 15.957C107.27 15.8731 107.133 15.9151 107.041 16.0865C106.87 16.4903 106.782 16.8369 106.778 17.1264C106.774 17.416 106.816 17.6255 106.904 17.755C106.992 17.8845 107.06 18.0293 107.106 18.1969C107.152 18.3645 107.133 18.5397 107.049 18.7264C106.961 18.9207 106.835 19.0273 106.675 19.0464C106.515 19.0654 106.264 19.0007 105.925 18.8445L102.896 17.4655C102.565 17.3131 102.352 17.1722 102.249 17.0312C102.15 16.8903 102.142 16.7265 102.23 16.5322C102.314 16.3493 102.435 16.2198 102.599 16.1474C102.759 16.075 102.927 16.0293 103.098 16.0141C103.27 15.9989 103.464 15.8922 103.685 15.6941C103.906 15.496 104.108 15.1875 104.298 14.7684L106.34 10.2848C106.523 9.8886 106.634 9.54576 106.672 9.26767C106.71 8.98959 106.702 8.77245 106.649 8.62389C106.592 8.47532 106.531 8.3458 106.458 8.23152C106.386 8.11724 106.34 7.99153 106.314 7.8582C106.287 7.72487 106.314 7.56869 106.394 7.39346C106.481 7.19918 106.611 7.09251 106.782 7.07728C106.954 7.06204 107.205 7.13061 107.533 7.27917L107.536 7.27536ZM108.645 15.1456C109.277 15.4313 109.841 15.477 110.336 15.2751C110.832 15.0732 111.209 14.6922 111.464 14.1285C111.91 13.1494 112.028 12.2809 111.814 11.5266C111.601 10.7724 111.209 10.2657 110.633 10.0067C110.321 9.86575 110.119 9.80099 110.024 9.81622C109.929 9.83146 109.845 9.92289 109.769 10.0867L107.906 14.178C107.818 14.3723 107.834 14.5437 107.952 14.6922C108.07 14.8408 108.302 14.9932 108.641 15.1456H108.645Z" fill="black"/>
<path d="M120.957 22.8633L120.831 24.8023C120.805 25.168 120.843 25.4994 120.949 25.7889C121.056 26.0785 121.132 26.3108 121.174 26.4899C121.216 26.6651 121.167 26.8594 121.022 27.0727C120.904 27.2517 120.759 27.3355 120.591 27.3241C120.424 27.3165 120.18 27.2022 119.864 26.9889L117.38 25.3204C116.953 25.0347 116.85 24.7337 117.064 24.4137C117.159 24.2728 117.319 24.1509 117.548 24.0557C117.772 23.9566 117.948 23.8652 118.062 23.7776C118.18 23.69 118.275 23.4462 118.351 23.0462L118.439 21.8538C118.336 21.7967 118.188 21.7053 117.993 21.5719L117.197 21.0348C117.022 20.9167 116.873 20.9434 116.751 21.1224L116.698 21.2024C116.443 21.5834 116.287 21.9186 116.233 22.2119C116.18 22.5052 116.184 22.7224 116.245 22.8671C116.306 23.0119 116.351 23.1719 116.374 23.3509C116.397 23.5262 116.351 23.6976 116.241 23.869C116.123 24.048 115.982 24.1319 115.818 24.1242C115.654 24.1166 115.418 24.01 115.11 23.8004L112.348 21.9453C112.047 21.7434 111.856 21.5643 111.78 21.412C111.704 21.2596 111.727 21.092 111.845 20.9167C111.959 20.7491 112.1 20.6425 112.271 20.5967C112.443 20.551 112.614 20.5358 112.786 20.5472C112.957 20.5587 113.167 20.4863 113.418 20.3263C113.666 20.1663 113.921 19.8958 114.176 19.5149L116.923 15.4236C117.167 15.0617 117.33 14.7455 117.418 14.4751C117.502 14.2046 117.532 13.9913 117.502 13.8351C117.471 13.6789 117.429 13.538 117.38 13.416C117.33 13.2941 117.3 13.1608 117.296 13.0237C117.296 12.8865 117.342 12.738 117.452 12.578C117.57 12.4028 117.715 12.3189 117.887 12.3304C118.058 12.3418 118.294 12.4485 118.595 12.6542L121.94 14.9017C123.311 15.8236 124.176 16.8597 124.527 18.0102C124.877 19.1606 124.702 20.2615 123.993 21.3129C123.189 22.5091 122.176 23.0309 120.957 22.8786V22.8633ZM118.542 20.4329C119.631 21.1643 120.565 20.951 121.346 19.7892C121.906 18.9587 122.149 18.1778 122.081 17.4502C122.012 16.7226 121.711 16.1817 121.178 15.8236C120.923 15.6522 120.74 15.5645 120.637 15.5645C120.534 15.5645 120.435 15.6369 120.34 15.7779L117.94 19.3511C117.822 19.5263 117.814 19.7015 117.921 19.8692C118.028 20.0368 118.233 20.2234 118.546 20.4329H118.542Z" fill="black"/>
<path d="M124.809 31.6593C123.734 30.6232 123.17 29.3813 123.121 27.9376C123.071 26.4938 123.586 25.2139 124.668 24.0939C125.86 22.8597 127.292 22.2121 128.961 22.1587C130.629 22.1016 132.077 22.6654 133.296 23.8425C134.447 24.9548 135.01 26.2272 134.984 27.6671C134.961 29.1032 134.397 30.3908 133.3 31.526C132.115 32.7526 130.709 33.3812 129.09 33.4078C127.468 33.4345 126.043 32.8517 124.805 31.6593H124.809ZM126.61 31.1984C127.631 32.185 128.812 31.9831 130.153 30.5965C130.755 29.9756 131.254 29.267 131.654 28.4785C132.054 27.6862 132.275 26.8938 132.313 26.1014C132.351 25.3091 132.138 24.6844 131.669 24.2348C131.148 23.732 130.565 23.553 129.925 23.7053C129.281 23.8577 128.645 24.2577 128.016 24.9091C127.429 25.5148 126.946 26.2005 126.557 26.97C126.169 27.7395 125.963 28.5204 125.929 29.3128C125.894 30.1051 126.123 30.7337 126.607 31.2022L126.61 31.1984Z" fill="black"/>
<path d="M139.322 30.4288L141.848 33.9715C142.45 34.8134 142.861 35.6515 143.09 36.4857C143.319 37.32 143.368 38.0819 143.239 38.7752C143.109 39.4685 142.861 40.1008 142.488 40.6761C142.115 41.2475 141.639 41.7427 141.06 42.1579C139.688 43.1369 138.237 43.495 136.709 43.236C135.182 42.9769 133.921 42.1465 132.922 40.7484L130.203 36.9314C129.993 36.6343 129.879 36.4019 129.86 36.2305C129.841 36.0591 129.921 35.9105 130.096 35.7886C130.252 35.6781 130.401 35.621 130.538 35.621C130.675 35.621 130.808 35.6439 130.934 35.6934C131.06 35.7429 131.201 35.7772 131.357 35.8039C131.513 35.8305 131.726 35.7962 131.993 35.7048C132.26 35.6134 132.572 35.4382 132.93 35.1867L136.785 32.4402C137.14 32.1849 137.406 31.9488 137.581 31.724C137.757 31.4993 137.856 31.3126 137.882 31.1564C137.909 31.0002 137.921 30.8555 137.917 30.7221C137.913 30.5888 137.932 30.4555 137.978 30.326C138.023 30.1964 138.122 30.0745 138.279 29.9641C138.454 29.8422 138.618 29.8155 138.774 29.8879C138.93 29.9603 139.113 30.1431 139.322 30.4402V30.4288ZM133.787 39.8913C134.313 40.6304 134.972 41.038 135.768 41.1141C136.561 41.1903 137.433 40.8894 138.381 40.2151C139.589 39.3542 140.408 38.3523 140.842 37.2057C141.277 36.0591 141.22 35.1029 140.675 34.3372C140.515 34.1125 140.359 33.9792 140.214 33.9373C140.069 33.8992 139.882 33.9563 139.654 34.1201L133.844 38.2609C133.574 38.4514 133.418 38.6609 133.376 38.8895C133.334 39.1142 133.471 39.4494 133.787 39.8951V39.8913Z" fill="black"/>
<path d="M138.911 51.2358C138.214 49.7577 138.1 48.4968 138.568 47.4454C139.033 46.3941 140.141 45.4569 141.886 44.6341L144.446 43.4265C144.785 43.2665 145.048 43.1027 145.239 42.9313C145.429 42.7599 145.547 42.5999 145.597 42.4513C145.646 42.3066 145.68 42.1618 145.707 42.0285C145.734 41.8952 145.78 41.7656 145.848 41.6514C145.917 41.5371 146.031 41.4419 146.183 41.3695C146.378 41.278 146.541 41.278 146.679 41.3695C146.816 41.4571 146.964 41.678 147.128 42.0247L148.545 45.0341C148.705 45.3731 148.778 45.6246 148.759 45.7922C148.739 45.9598 148.637 46.0893 148.446 46.1769C148.29 46.2493 148.145 46.2722 148.012 46.2493C147.875 46.2264 147.749 46.1769 147.627 46.1122C147.505 46.0436 147.376 45.9826 147.231 45.9293C147.086 45.8722 146.888 45.8607 146.629 45.895C146.374 45.9255 146.077 46.0245 145.738 46.1807L142.656 47.6321C141.7 48.0816 141.056 48.6111 140.724 49.2206C140.393 49.8301 140.393 50.4891 140.724 51.1939C141.052 51.8872 141.57 52.3024 142.282 52.4319C142.991 52.5614 143.86 52.3862 144.88 51.9062L148.656 50.1615C148.957 50.0206 149.166 49.7577 149.284 49.3768C149.406 48.9959 149.547 48.7673 149.711 48.6873C149.886 48.6073 150.023 48.5997 150.13 48.6759C150.237 48.7521 150.347 48.9121 150.465 49.1635L151.208 50.7406C151.345 51.0301 151.406 51.2396 151.391 51.3729C151.376 51.5024 151.28 51.6091 151.109 51.6929C150.964 51.7615 150.705 51.7234 150.328 51.5748C149.951 51.4263 149.612 51.4186 149.307 51.552L146.008 53.1062C144.13 53.9785 142.652 54.2528 141.566 53.9252C140.481 53.5976 139.593 52.7024 138.903 51.2358H138.911Z" fill="black"/>
<path d="M152.606 62.9572L151.612 62.3286L146.953 66.218C146.663 66.4618 146.435 66.7056 146.263 66.957C146.092 67.2085 145.985 67.4066 145.943 67.5551C145.901 67.7037 145.829 67.8408 145.73 67.9589C145.631 68.0808 145.482 68.1646 145.284 68.218C145.079 68.2713 144.915 68.2408 144.797 68.1227C144.679 68.0046 144.568 67.7608 144.469 67.3913L143.658 64.3438C143.562 63.9933 143.54 63.7381 143.585 63.5781C143.631 63.4181 143.757 63.3077 143.962 63.2543C144.126 63.2086 144.328 63.2391 144.564 63.3419C144.8 63.4448 144.995 63.5134 145.151 63.5515C145.307 63.5895 145.551 63.4943 145.89 63.2734L149.029 60.6982L146.858 59.323L145.559 59.6697C145.117 59.7878 144.778 59.9402 144.545 60.123C144.313 60.3059 144.172 60.4735 144.122 60.6258C144.073 60.7782 144 60.9268 143.901 61.0754C143.802 61.2239 143.654 61.323 143.46 61.3763C143.254 61.4296 143.09 61.403 142.972 61.2887C142.854 61.1782 142.747 60.9382 142.652 60.5801L141.795 57.365C141.7 57.0146 141.677 56.7555 141.722 56.5917C141.768 56.4241 141.89 56.3136 142.096 56.2603C142.29 56.207 142.469 56.2222 142.629 56.3022C142.789 56.3822 142.926 56.4812 143.048 56.6031C143.17 56.725 143.376 56.8088 143.669 56.8507C143.962 56.8926 144.332 56.8584 144.774 56.7403L149.722 55.4222C150.164 55.3041 150.503 55.1518 150.736 54.9689C150.968 54.7861 151.109 54.6146 151.155 54.4585C151.2 54.3023 151.273 54.1499 151.372 54.0013C151.471 53.8528 151.619 53.7537 151.814 53.7004C152.019 53.647 152.183 53.6775 152.301 53.7956C152.419 53.9137 152.53 54.1499 152.625 54.5118L153.482 57.7269C153.578 58.0774 153.6 58.3326 153.555 58.4926C153.509 58.6526 153.383 58.7631 153.178 58.8164C152.983 58.8697 152.804 58.8545 152.644 58.7745C152.484 58.6945 152.347 58.5993 152.225 58.4812C152.107 58.3631 151.898 58.2831 151.608 58.2412C151.315 58.1993 150.945 58.2336 150.503 58.3516L148.602 58.8583L152.103 61.0563C152.355 61.2087 152.557 61.2734 152.717 61.2392C152.873 61.2087 152.979 61.1287 153.037 61.0068C153.094 60.8849 153.166 60.7439 153.258 60.5916C153.349 60.4392 153.456 60.3478 153.581 60.3135C153.776 60.2601 153.936 60.2792 154.054 60.3706C154.172 60.462 154.267 60.6411 154.336 60.9077L154.968 63.2886C155.139 63.9286 155.037 64.2981 154.667 64.3971C154.48 64.4467 154.328 64.439 154.206 64.3781C154.084 64.3171 153.981 64.2257 153.894 64.1038C153.806 63.9819 153.65 63.8143 153.425 63.5896C153.2 63.3686 152.93 63.1553 152.61 62.9534L152.606 62.9572Z" fill="black"/>
<path d="M154.29 73.8178L148.187 74.3739C147.73 74.4159 147.372 74.5073 147.113 74.6482C146.854 74.7892 146.686 74.9301 146.614 75.0711C146.541 75.212 146.442 75.3453 146.32 75.4749C146.198 75.6044 146.035 75.6768 145.833 75.6958C145.619 75.7149 145.467 75.6577 145.368 75.5282C145.269 75.3987 145.204 75.1473 145.17 74.7739L144.865 71.4445C144.831 71.0826 144.85 70.8274 144.922 70.675C144.995 70.5227 145.136 70.4388 145.349 70.4198C145.551 70.4008 145.722 70.4427 145.867 70.5493C146.012 70.6522 146.13 70.7741 146.229 70.9112C146.328 71.0484 146.518 71.1588 146.8 71.2541C147.082 71.3455 147.452 71.3721 147.909 71.3302L154.012 70.7741C154.427 70.736 154.617 70.5303 154.583 70.1608C154.549 69.7684 154.381 69.4636 154.08 69.2427C153.783 69.0218 153.276 68.7703 152.564 68.4808C152.176 68.3361 151.97 68.1494 151.951 67.9247C151.92 67.5932 152.198 67.4142 152.785 67.3837C153.711 67.3304 154.438 67.3494 154.96 67.4409C155.254 67.4904 155.467 67.6047 155.604 67.7913C155.737 67.978 155.825 68.298 155.867 68.7551L156.48 75.4482C156.522 75.9053 156.495 76.2367 156.396 76.4424C156.297 76.6482 156.107 76.8043 155.829 76.9034C155.334 77.0862 154.621 77.2386 153.703 77.3529C153.12 77.4291 152.816 77.2996 152.785 76.972C152.762 76.7396 152.926 76.5186 153.273 76.3167C153.932 75.9129 154.389 75.5739 154.64 75.2996C154.892 75.0254 155.002 74.6901 154.968 74.2978C154.934 73.9359 154.713 73.7759 154.297 73.814L154.29 73.8178Z" fill="black"/>
<path d="M148.808 87.4439C148.755 87.6344 148.66 87.7487 148.523 87.7944C148.386 87.8401 148.165 87.8477 147.856 87.821C146.93 87.7334 146.218 87.6077 145.715 87.4401C145.422 87.3487 145.224 87.2001 145.125 86.9982C145.026 86.7963 144.987 86.4649 145.014 86.0078L145.407 79.269C145.429 78.9071 145.486 78.6518 145.578 78.5109C145.673 78.3661 145.826 78.3014 146.039 78.3128C146.229 78.3242 146.382 78.3738 146.488 78.4576C146.595 78.5414 146.683 78.6442 146.751 78.7623C146.82 78.8766 146.907 78.9947 147.01 79.1128C147.113 79.2309 147.3 79.3375 147.57 79.4328C147.837 79.528 148.187 79.589 148.626 79.6156L153.353 79.8899C153.791 79.9166 154.145 79.8975 154.424 79.8328C154.698 79.768 154.896 79.6842 155.014 79.5775C155.132 79.4709 155.231 79.3642 155.315 79.2575C155.395 79.1509 155.494 79.0594 155.612 78.9871C155.73 78.9147 155.883 78.8842 156.073 78.8956C156.286 78.9071 156.431 78.9909 156.507 79.1471C156.584 79.2994 156.61 79.5585 156.591 79.9204L156.225 86.2135C156.18 87.0211 155.94 87.5125 155.513 87.6801C155.041 87.8858 154.5 88.0382 153.883 88.1296C153.311 88.1944 152.984 88.0763 152.892 87.7829C152.805 87.4782 152.965 87.2001 153.372 86.9449C153.905 86.602 154.302 86.2554 154.564 85.9011C154.824 85.5468 154.968 85.1354 154.995 84.6669L155.029 84.0612C155.052 83.665 155.014 83.3945 154.915 83.246C154.816 83.0974 154.641 83.0136 154.385 82.9984L152.58 82.8917C152.294 82.8765 152.085 82.9374 151.959 83.0784C151.833 83.2193 151.761 83.4517 151.742 83.7717L151.73 83.9774C151.719 84.2021 151.772 84.385 151.898 84.5335C152.024 84.6783 152.161 84.7811 152.313 84.8383C152.465 84.8954 152.603 84.9792 152.732 85.0859C152.858 85.1964 152.919 85.3297 152.907 85.4897C152.896 85.703 152.827 85.8478 152.705 85.9278C152.584 86.0078 152.378 86.0382 152.092 86.0192L149.856 85.8897C149.578 85.8744 149.38 85.8173 149.258 85.7259C149.136 85.6345 149.079 85.4821 149.09 85.2688C149.098 85.1088 149.174 84.983 149.311 84.8878C149.452 84.7926 149.601 84.7278 149.765 84.6897C149.928 84.6516 150.081 84.5678 150.222 84.4345C150.363 84.305 150.439 84.1259 150.454 83.9012L150.465 83.6955C150.485 83.3641 150.443 83.1241 150.34 82.9755C150.237 82.8269 150.035 82.7431 149.738 82.7241L147.231 82.5793C146.976 82.5641 146.789 82.6365 146.675 82.7965C146.561 82.9565 146.488 83.2688 146.462 83.7374L146.408 84.6326C146.393 84.8992 146.469 85.1507 146.637 85.383C146.805 85.6154 146.999 85.8059 147.212 85.9544C147.426 86.103 147.78 86.3087 148.264 86.583C148.728 86.8573 148.911 87.143 148.805 87.4477L148.808 87.4439Z" fill="black"/>
<path d="M147.01 97.4017L145.159 97.9921C144.808 98.0988 144.515 98.2588 144.286 98.4645C144.054 98.6702 143.864 98.8264 143.715 98.9292C143.566 99.0321 143.368 99.0588 143.117 99.0016C142.907 98.9559 142.778 98.8531 142.724 98.6931C142.671 98.5331 142.686 98.2664 142.77 97.8931L143.414 94.9713C143.524 94.4723 143.768 94.2628 144.142 94.3466C144.309 94.3847 144.477 94.4913 144.652 94.6627C144.827 94.838 144.976 94.9637 145.102 95.0399C145.227 95.1161 145.49 95.1161 145.886 95.0399L147.029 94.6856C147.044 94.5675 147.075 94.3961 147.128 94.1675L147.334 93.2304C147.38 93.0209 147.3 92.8952 147.09 92.8495L146.995 92.8304C146.545 92.7314 146.176 92.7085 145.886 92.7657C145.597 92.8228 145.395 92.9066 145.281 93.0171C145.17 93.1276 145.033 93.2266 144.881 93.3142C144.724 93.398 144.549 93.4209 144.351 93.379C144.142 93.3333 144.012 93.2342 143.959 93.078C143.905 92.9257 143.917 92.6666 144.001 92.3009L144.717 89.0515C144.797 88.6972 144.892 88.4572 145.006 88.3277C145.121 88.202 145.284 88.1601 145.494 88.2058C145.692 88.2477 145.844 88.343 145.947 88.4877C146.054 88.6325 146.13 88.7848 146.18 88.9487C146.229 89.1125 146.378 89.2801 146.618 89.4553C146.858 89.6305 147.201 89.7639 147.65 89.8629L152.461 90.9257C152.888 91.021 153.242 91.0591 153.524 91.0362C153.806 91.0172 154.016 90.9638 154.149 90.88C154.282 90.7962 154.397 90.7048 154.496 90.6134C154.591 90.5181 154.705 90.4457 154.831 90.3924C154.957 90.3391 155.117 90.3315 155.303 90.3734C155.513 90.4191 155.642 90.5257 155.692 90.6895C155.741 90.8533 155.73 91.1124 155.65 91.4667L154.781 95.4018C154.423 97.0169 153.776 98.1978 152.835 98.9445C151.894 99.6911 150.804 99.9311 149.566 99.6568C148.161 99.3483 147.303 98.594 146.999 97.4017H147.01ZM148.389 94.2666C148.107 95.5465 148.648 96.3389 150.012 96.6398C150.991 96.8569 151.806 96.7998 152.458 96.4684C153.109 96.137 153.505 95.6608 153.642 95.0361C153.707 94.7351 153.722 94.5332 153.684 94.438C153.646 94.3427 153.543 94.2742 153.376 94.2399L149.174 93.3104C148.964 93.2647 148.804 93.3218 148.686 93.4818C148.568 93.6418 148.469 93.9047 148.389 94.2666Z" fill="black"/>
<path d="M143.574 106.845L144.618 104.301C144.701 104.095 144.797 103.961 144.899 103.908C145.002 103.851 145.132 103.889 145.284 104.022L145.566 104.259C145.734 104.384 145.833 104.506 145.867 104.624C145.898 104.742 145.878 104.895 145.802 105.081L144.751 107.641C144.671 107.839 144.576 107.965 144.473 108.022C144.37 108.079 144.24 108.045 144.08 107.923L143.799 107.687C143.631 107.561 143.532 107.439 143.498 107.321C143.463 107.203 143.49 107.047 143.57 106.849L143.574 106.845Z" fill="black"/>
<path d="M135.452 113.592C135.692 113.199 136.008 112.807 136.397 112.407C136.785 112.007 136.999 111.782 137.033 111.725C137.14 111.554 137.182 111.359 137.163 111.146C137.144 110.933 137.163 110.776 137.227 110.677C137.395 110.407 137.749 110.38 138.29 110.597C139.345 111.02 140.081 111.363 140.5 111.618C141.01 111.908 141.178 112.194 141.006 112.475C140.98 112.521 140.945 112.559 140.907 112.594C140.869 112.628 140.831 112.651 140.793 112.674C140.755 112.693 140.702 112.708 140.629 112.712C140.557 112.715 140.496 112.723 140.45 112.723C140.404 112.723 140.317 112.731 140.191 112.731C140.065 112.731 139.963 112.738 139.886 112.738C138.283 112.78 137.144 113.348 136.465 114.449C136.279 114.773 136.225 115.066 136.302 115.325C136.378 115.584 136.542 115.786 136.793 115.927C136.964 116.033 137.166 116.083 137.395 116.079C137.624 116.075 137.898 116.007 138.218 115.873C138.538 115.74 138.812 115.607 139.044 115.481C139.273 115.352 139.593 115.169 140.001 114.933C140.389 114.708 140.683 114.54 140.881 114.433C141.079 114.323 141.33 114.197 141.627 114.056C141.924 113.915 142.172 113.828 142.362 113.794C142.553 113.759 142.774 113.74 143.022 113.729C143.273 113.721 143.513 113.755 143.745 113.835C143.978 113.915 144.222 114.033 144.477 114.19C145.311 114.704 145.799 115.492 145.932 116.559C146.065 117.626 145.829 118.647 145.227 119.629C145.056 119.911 144.816 120.216 144.515 120.544C144.214 120.871 144.046 121.058 144.02 121.104C143.936 121.241 143.886 121.397 143.875 121.58C143.863 121.759 143.825 121.908 143.757 122.014C143.578 122.304 143.22 122.353 142.686 122.163C141.902 121.869 141.284 121.58 140.831 121.302C140.321 121.012 140.164 120.704 140.366 120.376C140.435 120.266 140.545 120.193 140.698 120.159C140.85 120.121 141.128 120.087 141.521 120.056C142.903 119.942 143.802 119.549 144.218 118.879C144.412 118.563 144.484 118.262 144.435 117.98C144.385 117.698 144.218 117.47 143.936 117.298C143.601 117.092 143.197 117.054 142.724 117.191C142.252 117.329 141.57 117.66 140.683 118.19C140.18 118.494 139.818 118.711 139.585 118.841C139.353 118.97 139.052 119.115 138.675 119.287C138.298 119.454 137.993 119.549 137.761 119.569C137.528 119.588 137.269 119.572 136.984 119.523C136.698 119.473 136.412 119.359 136.13 119.184C135.22 118.609 134.724 117.786 134.648 116.712C134.572 115.637 134.843 114.597 135.464 113.588L135.452 113.592Z" fill="black"/>
<path d="M130.035 127.374C129.879 127.492 129.734 127.53 129.597 127.484C129.46 127.439 129.277 127.313 129.049 127.103C128.359 126.479 127.868 125.949 127.563 125.515C127.384 125.264 127.315 125.027 127.357 124.806C127.399 124.582 127.567 124.296 127.864 123.945L132.222 118.788C132.454 118.509 132.652 118.342 132.816 118.285C132.976 118.224 133.14 118.266 133.304 118.403C133.448 118.529 133.54 118.654 133.574 118.788C133.608 118.921 133.616 119.054 133.601 119.188C133.586 119.321 133.586 119.466 133.601 119.626C133.612 119.782 133.7 119.98 133.856 120.216C134.012 120.452 134.256 120.711 134.591 120.993L138.21 124.052C138.546 124.334 138.843 124.532 139.102 124.646C139.361 124.761 139.57 124.81 139.727 124.799C139.883 124.787 140.027 124.761 140.157 124.723C140.287 124.685 140.42 124.673 140.557 124.685C140.694 124.696 140.835 124.765 140.984 124.886C141.147 125.024 141.212 125.176 141.182 125.347C141.151 125.515 141.018 125.74 140.786 126.018L136.717 130.833C136.195 131.45 135.711 131.701 135.269 131.58C134.767 131.461 134.245 131.256 133.696 130.962C133.201 130.669 133.007 130.38 133.113 130.09C133.224 129.793 133.521 129.667 134.001 129.709C134.633 129.755 135.159 129.713 135.582 129.587C136.005 129.461 136.367 129.218 136.668 128.86L137.06 128.395C137.315 128.094 137.448 127.854 137.46 127.675C137.471 127.496 137.38 127.324 137.186 127.161L135.807 125.995C135.586 125.808 135.384 125.736 135.197 125.774C135.01 125.812 134.816 125.953 134.607 126.197L134.473 126.357C134.328 126.528 134.264 126.707 134.275 126.902C134.287 127.092 134.336 127.26 134.424 127.393C134.511 127.53 134.572 127.679 134.61 127.842C134.648 128.006 134.61 128.147 134.511 128.269C134.374 128.433 134.233 128.509 134.088 128.498C133.944 128.486 133.761 128.387 133.54 128.204L131.829 126.757C131.616 126.578 131.49 126.414 131.449 126.265C131.407 126.117 131.452 125.961 131.589 125.801C131.692 125.679 131.829 125.622 131.997 125.629C132.165 125.637 132.325 125.675 132.477 125.744C132.629 125.808 132.801 125.835 132.995 125.812C133.186 125.793 133.353 125.698 133.498 125.526L133.631 125.366C133.845 125.115 133.955 124.898 133.963 124.715C133.97 124.532 133.86 124.345 133.631 124.151L131.711 122.528C131.517 122.365 131.323 122.307 131.136 122.368C130.949 122.426 130.702 122.635 130.401 122.993L129.822 123.679C129.65 123.881 129.559 124.128 129.555 124.418C129.548 124.707 129.589 124.974 129.673 125.222C129.757 125.469 129.913 125.846 130.138 126.357C130.348 126.852 130.317 127.195 130.054 127.374H130.035Z" fill="black"/>
<path d="M130.484 137.096L127.361 139.568C126.031 140.619 124.744 141.141 123.498 141.133C122.252 141.126 121.208 140.585 120.359 139.514C118.888 137.659 119.456 135.701 122.058 133.64L122.797 133.054C122.957 132.928 122.98 132.787 122.869 132.631C122.591 132.296 122.321 132.06 122.062 131.922C121.803 131.785 121.597 131.728 121.445 131.747C121.288 131.766 121.128 131.759 120.957 131.724C120.786 131.69 120.637 131.591 120.511 131.435C120.378 131.267 120.34 131.107 120.397 130.955C120.454 130.802 120.626 130.608 120.919 130.38L123.528 128.315C123.814 128.09 124.039 127.964 124.21 127.938C124.382 127.911 124.53 127.983 124.664 128.151C124.789 128.311 124.846 128.479 124.839 128.654C124.831 128.829 124.793 129.001 124.728 129.161C124.664 129.321 124.671 129.542 124.747 129.827C124.824 130.113 125.006 130.437 125.288 130.795L128.347 134.658C128.618 135 128.869 135.252 129.102 135.416C129.334 135.579 129.528 135.671 129.684 135.69C129.841 135.709 129.985 135.713 130.123 135.701C130.256 135.69 130.389 135.701 130.523 135.743C130.656 135.781 130.782 135.877 130.9 136.025C131.033 136.193 131.067 136.357 131.003 136.517C130.938 136.676 130.763 136.867 130.481 137.092L130.484 137.096ZM122.976 134.49C122.431 134.92 122.138 135.4 122.088 135.937C122.043 136.471 122.21 136.981 122.595 137.465C123.262 138.311 123.982 138.81 124.751 138.962C125.521 139.114 126.149 138.996 126.645 138.608C126.911 138.395 127.06 138.242 127.09 138.155C127.121 138.063 127.079 137.945 126.964 137.804L124.172 134.28C124.039 134.113 123.879 134.048 123.692 134.09C123.505 134.128 123.265 134.265 122.972 134.498L122.976 134.49Z" fill="black"/>
<path d="M110.496 141.93L108.827 140.932C108.515 140.741 108.203 140.627 107.898 140.589C107.589 140.551 107.349 140.512 107.174 140.471C106.999 140.429 106.847 140.295 106.725 140.071C106.622 139.884 106.61 139.72 106.698 139.575C106.782 139.431 106.991 139.267 107.33 139.08L109.947 137.629C110.397 137.381 110.713 137.423 110.9 137.762C110.984 137.911 111.014 138.109 110.999 138.356C110.984 138.604 110.987 138.798 111.014 138.943C111.041 139.088 111.212 139.286 111.532 139.533L112.553 140.154C112.652 140.09 112.801 139.998 113.006 139.884L113.845 139.419C114.031 139.316 114.073 139.172 113.97 138.985L113.925 138.901C113.704 138.501 113.475 138.208 113.239 138.029C113.003 137.85 112.808 137.751 112.652 137.743C112.492 137.732 112.332 137.697 112.165 137.64C111.997 137.579 111.864 137.461 111.765 137.286C111.662 137.099 111.65 136.935 111.73 136.795C111.81 136.654 112.012 136.49 112.34 136.311L115.25 134.699C115.566 134.524 115.814 134.436 115.985 134.44C116.157 134.44 116.294 134.536 116.397 134.722C116.496 134.901 116.526 135.076 116.488 135.248C116.45 135.423 116.385 135.583 116.298 135.728C116.21 135.876 116.18 136.097 116.206 136.391C116.237 136.684 116.363 137.035 116.584 137.434L118.972 141.743C119.185 142.124 119.391 142.417 119.593 142.615C119.795 142.813 119.97 142.935 120.123 142.981C120.275 143.023 120.42 143.053 120.553 143.065C120.686 143.076 120.816 143.11 120.942 143.171C121.067 143.232 121.174 143.343 121.269 143.51C121.372 143.697 121.38 143.865 121.292 144.009C121.204 144.158 120.999 144.318 120.683 144.493L117.155 146.447C115.707 147.247 114.393 147.545 113.212 147.335C112.027 147.126 111.128 146.467 110.515 145.354C109.818 144.093 109.814 142.954 110.507 141.937L110.496 141.93ZM113.761 140.89C112.614 141.526 112.378 142.455 113.056 143.678C113.544 144.554 114.126 145.129 114.805 145.396C115.483 145.667 116.104 145.644 116.664 145.335C116.934 145.187 117.094 145.065 117.14 144.969C117.185 144.878 117.166 144.756 117.086 144.608L114.999 140.844C114.896 140.657 114.744 140.573 114.549 140.592C114.351 140.612 114.088 140.711 113.765 140.89H113.761Z" fill="black"/>
<path d="M100.911 141.339C102.325 140.859 103.685 140.924 104.991 141.541C106.298 142.154 107.201 143.198 107.704 144.676C108.256 146.303 108.176 147.868 107.46 149.381C106.744 150.889 105.586 151.918 103.978 152.466C102.462 152.981 101.071 152.901 99.8029 152.219C98.5344 151.541 97.6468 150.455 97.1401 148.958C96.5915 147.343 96.6753 145.808 97.3915 144.352C98.1077 142.897 99.281 141.895 100.904 141.343L100.911 141.339ZM100.496 143.152C99.1515 143.61 98.7934 144.752 99.4144 146.581C99.6925 147.4 100.092 148.166 100.611 148.886C101.132 149.605 101.734 150.162 102.42 150.562C103.106 150.958 103.757 151.053 104.374 150.844C105.06 150.611 105.483 150.173 105.643 149.533C105.803 148.893 105.738 148.143 105.445 147.286C105.174 146.489 104.786 145.743 104.279 145.046C103.772 144.349 103.174 143.808 102.485 143.415C101.795 143.023 101.132 142.939 100.496 143.152Z" fill="black"/>
<path d="M95.3648 154.809L91.0563 155.426C90.0315 155.575 89.0982 155.556 88.2525 155.377C87.4068 155.198 86.7059 154.889 86.1497 154.459C85.5935 154.028 85.144 153.514 84.8049 152.923C84.4659 152.333 84.2488 151.682 84.1459 150.973C83.9059 149.305 84.2526 147.853 85.1859 146.615C86.1192 145.377 87.4335 144.638 89.1325 144.394L93.7725 143.728C94.1305 143.678 94.3896 143.682 94.5496 143.747C94.7096 143.811 94.8048 143.949 94.8353 144.158C94.862 144.349 94.8429 144.505 94.782 144.627C94.7172 144.749 94.6372 144.855 94.5382 144.943C94.4391 145.034 94.3401 145.141 94.2448 145.267C94.1496 145.392 94.081 145.598 94.0429 145.876C94.0048 146.154 94.0124 146.512 94.0734 146.947L94.7439 151.636C94.8048 152.07 94.8962 152.413 95.0143 152.672C95.1324 152.931 95.2543 153.106 95.3801 153.202C95.5058 153.297 95.6315 153.373 95.7534 153.43C95.8753 153.487 95.982 153.567 96.0772 153.666C96.1724 153.765 96.2334 153.91 96.26 154.101C96.2905 154.31 96.2372 154.47 96.1 154.577C95.9629 154.683 95.7191 154.76 95.3572 154.813L95.3648 154.809ZM89.4944 145.548C88.5954 145.678 87.9325 146.078 87.5021 146.748C87.0716 147.419 86.9382 148.329 87.1021 149.48C87.3116 150.946 87.8297 152.139 88.6487 153.049C89.4677 153.96 90.3439 154.348 91.2734 154.215C91.5477 154.177 91.7382 154.101 91.8372 153.99C91.9401 153.88 91.9706 153.685 91.9325 153.411L90.9192 146.348C90.8734 146.021 90.7592 145.788 90.5763 145.648C90.3934 145.507 90.0354 145.476 89.4944 145.552V145.548Z" fill="black"/>
<path d="M77.053 144.901C78.6834 144.958 79.8605 145.434 80.5805 146.329C81.3005 147.225 81.6281 148.638 81.5634 150.565L81.4643 153.396C81.4529 153.769 81.4796 154.078 81.5443 154.325C81.6091 154.573 81.6967 154.752 81.8072 154.862C81.9139 154.973 82.0243 155.068 82.1348 155.152C82.2453 155.236 82.3329 155.335 82.4053 155.449C82.4777 155.563 82.5081 155.704 82.5005 155.876C82.4929 156.089 82.4205 156.238 82.2758 156.318C82.1348 156.398 81.872 156.432 81.4872 156.417L78.1615 156.302C77.7882 156.291 77.533 156.238 77.392 156.146C77.2511 156.055 77.1863 155.902 77.1901 155.689C77.1977 155.518 77.2396 155.381 77.3234 155.27C77.4072 155.16 77.5063 155.068 77.6206 154.992C77.7349 154.916 77.8491 154.828 77.9672 154.725C78.0815 154.622 78.1844 154.451 78.272 154.207C78.3596 153.963 78.4129 153.659 78.4244 153.285L78.5425 149.88C78.5806 148.825 78.4015 148.009 78.0091 147.434C77.6168 146.859 77.0339 146.558 76.2568 146.531C75.4873 146.505 74.8854 146.779 74.4435 147.35C74.0016 147.922 73.7616 148.771 73.7235 149.903L73.5482 154.059C73.5368 154.39 73.674 154.695 73.9559 154.977C74.2416 155.259 74.3787 155.491 74.3711 155.67C74.3635 155.86 74.3025 155.986 74.1882 156.047C74.074 156.108 73.8797 156.131 73.6016 156.123L71.8568 156.062C71.5368 156.051 71.3235 156.009 71.213 155.937C71.1026 155.864 71.053 155.731 71.0568 155.54C71.0607 155.381 71.2168 155.167 71.5178 154.901C71.8226 154.634 71.9825 154.337 72.0054 154.005L72.1311 150.36C72.2149 148.291 72.6492 146.851 73.434 146.036C74.2187 145.221 75.4225 144.84 77.0453 144.897L77.053 144.901Z" fill="black"/>
<path d="M60.3672 151.739L61.3805 151.141L60.0434 145.221C59.9596 144.855 59.8453 144.535 59.7005 144.272C59.5558 144.006 59.4262 143.819 59.3158 143.712C59.2053 143.606 59.1139 143.48 59.0529 143.335C58.992 143.191 58.9805 143.019 59.0263 142.821C59.072 142.612 59.1748 142.482 59.331 142.429C59.491 142.375 59.7577 142.391 60.131 142.471L63.2129 143.137C63.5672 143.213 63.8071 143.309 63.9291 143.423C64.051 143.537 64.089 143.697 64.0433 143.907C64.009 144.074 63.891 144.238 63.6891 144.402C63.491 144.566 63.3386 144.707 63.2357 144.829C63.1329 144.947 63.1062 145.21 63.1481 145.613L64.009 149.583L66.2224 148.276L66.5081 146.962C66.6033 146.512 66.6262 146.143 66.569 145.853C66.5119 145.564 66.4281 145.362 66.3138 145.251C66.2033 145.141 66.1043 145.008 66.0166 144.851C65.929 144.695 65.91 144.52 65.9519 144.322C65.9976 144.112 66.0966 143.983 66.249 143.93C66.4014 143.876 66.6604 143.888 67.0262 143.968L70.2795 144.672C70.6337 144.749 70.8737 144.844 71.0033 144.958C71.1328 145.072 71.1709 145.236 71.129 145.442C71.0871 145.64 70.9918 145.792 70.8509 145.899C70.7061 146.006 70.5537 146.082 70.3899 146.135C70.2261 146.189 70.0585 146.333 69.8871 146.573C69.7157 146.813 69.5785 147.16 69.4833 147.606L68.4014 152.611C68.3061 153.061 68.2833 153.43 68.3404 153.72C68.3976 154.009 68.4852 154.211 68.6033 154.325C68.7214 154.436 68.8242 154.573 68.908 154.725C68.9957 154.882 69.0147 155.057 68.9728 155.255C68.9271 155.464 68.8242 155.594 68.668 155.647C68.508 155.701 68.249 155.685 67.8833 155.609L64.63 154.904C64.2757 154.828 64.0357 154.733 63.9138 154.619C63.7919 154.504 63.7538 154.344 63.7957 154.135C63.8376 153.937 63.9329 153.784 64.0738 153.678C64.2186 153.571 64.3671 153.491 64.5271 153.442C64.6871 153.388 64.8509 153.244 65.0224 153C65.1938 152.756 65.3309 152.413 65.4262 151.967L65.8414 150.044L62.291 152.158C62.0396 152.31 61.891 152.463 61.8491 152.619C61.8072 152.775 61.8262 152.904 61.9138 153.007C62.0015 153.114 62.0891 153.244 62.1843 153.392C62.2795 153.541 62.31 153.682 62.2834 153.807C62.2415 154.005 62.1538 154.135 62.0167 154.2C61.8796 154.264 61.6815 154.264 61.411 154.207L59.0034 153.685C58.3558 153.544 58.0739 153.289 58.1539 152.912C58.1958 152.725 58.272 152.592 58.3786 152.512C58.4891 152.432 58.6186 152.383 58.7634 152.36C58.912 152.337 59.1329 152.276 59.4339 152.177C59.7348 152.078 60.0472 151.933 60.371 151.743L60.3672 151.739Z" fill="black"/>
<path d="M49.9333 148.284L52.2228 142.6C52.3942 142.173 52.478 141.815 52.4704 141.518C52.4628 141.221 52.4133 141.012 52.3218 140.882C52.2304 140.753 52.1542 140.604 52.0971 140.436C52.0399 140.269 52.0476 140.09 52.1237 139.903C52.2037 139.705 52.3257 139.594 52.4856 139.564C52.6456 139.537 52.9009 139.594 53.2475 139.732L56.3485 140.981C56.6837 141.118 56.9046 141.252 57.0037 141.385C57.1065 141.518 57.118 141.682 57.038 141.88C56.9618 142.067 56.8437 142.2 56.6875 142.28C56.5275 142.36 56.3675 142.413 56.1999 142.436C56.0361 142.463 55.8456 142.577 55.6361 142.787C55.4266 142.996 55.2361 143.312 55.0647 143.739L52.7752 149.423C52.619 149.807 52.7142 150.07 53.0609 150.211C53.4266 150.36 53.7771 150.348 54.1085 150.185C54.4399 150.021 54.897 149.686 55.4761 149.183C55.7847 148.905 56.0399 148.806 56.2494 148.889C56.5542 149.011 56.5885 149.343 56.3523 149.88C55.9751 150.729 55.6285 151.365 55.3085 151.788C55.1332 152.028 54.9313 152.165 54.7028 152.2C54.478 152.234 54.1504 152.165 53.7237 151.994L47.4914 149.484C47.0648 149.312 46.7829 149.137 46.6457 148.954C46.5048 148.771 46.4552 148.531 46.4933 148.238C46.5581 147.712 46.7448 147.011 47.0648 146.139C47.2629 145.587 47.5181 145.373 47.8228 145.495C48.04 145.583 48.1619 145.827 48.1847 146.227C48.2419 146.996 48.3371 147.56 48.4628 147.91C48.5924 148.261 48.84 148.512 49.2057 148.657C49.5409 148.794 49.7885 148.668 49.9447 148.28L49.9333 148.284Z" fill="black"/>
<path d="M40.3255 137.168C40.1807 137.035 40.1198 136.894 40.1426 136.753C40.1655 136.612 40.2607 136.41 40.4245 136.151C40.9236 135.37 41.3655 134.791 41.7464 134.421C41.9635 134.2 42.1845 134.094 42.4131 134.098C42.6416 134.101 42.9502 134.219 43.3464 134.456L49.1558 137.895C49.4682 138.082 49.6663 138.246 49.7501 138.398C49.8339 138.551 49.8225 138.714 49.7158 138.897C49.6168 139.061 49.5063 139.172 49.3806 139.229C49.2549 139.286 49.1254 139.316 48.9882 139.324C48.8549 139.332 48.7101 139.354 48.5577 139.393C48.4054 139.431 48.2225 139.549 48.0168 139.743C47.8111 139.937 47.5939 140.219 47.373 140.596L44.9616 144.672C44.7406 145.05 44.5921 145.373 44.5235 145.648C44.4549 145.922 44.4397 146.135 44.4778 146.291C44.5159 146.444 44.5654 146.581 44.6226 146.703C44.6797 146.825 44.7178 146.954 44.7292 147.091C44.7406 147.228 44.6987 147.381 44.5997 147.545C44.4892 147.727 44.3521 147.819 44.1768 147.815C44.0054 147.815 43.7616 147.72 43.4492 147.533L38.0245 144.322C37.3274 143.91 36.9998 143.476 37.0493 143.019C37.0798 142.505 37.1979 141.952 37.396 141.366C37.6017 140.829 37.8569 140.589 38.1579 140.646C38.4702 140.707 38.6455 140.977 38.6798 141.457C38.7407 142.09 38.8664 142.6 39.0607 142.996C39.255 143.392 39.5559 143.709 39.9598 143.945L40.4817 144.253C40.8207 144.455 41.0797 144.547 41.2588 144.528C41.4378 144.509 41.5902 144.39 41.7235 144.17L42.6454 142.615C42.794 142.368 42.8321 142.154 42.7635 141.979C42.695 141.804 42.5235 141.632 42.2493 141.469L42.0702 141.362C41.8759 141.248 41.6893 141.213 41.4988 141.255C41.3121 141.301 41.1559 141.377 41.0378 141.484C40.9197 141.591 40.7788 141.678 40.6264 141.743C40.474 141.808 40.3255 141.796 40.1883 141.716C40.0055 141.606 39.9064 141.48 39.8912 141.335C39.8759 141.191 39.9445 140.996 40.0893 140.749L41.2321 138.821C41.3731 138.581 41.514 138.429 41.6512 138.364C41.7883 138.299 41.9521 138.318 42.135 138.429C42.2721 138.509 42.3521 138.634 42.3712 138.802C42.3902 138.97 42.3788 139.134 42.3407 139.294C42.2988 139.457 42.3064 139.629 42.3559 139.815C42.4054 140.002 42.5312 140.151 42.7216 140.265L42.9007 140.372C43.1864 140.539 43.4188 140.612 43.5978 140.589C43.7807 140.566 43.9445 140.425 44.0968 140.17L45.3768 138.01C45.5064 137.789 45.5292 137.591 45.4416 137.415C45.354 137.24 45.1064 137.031 44.7026 136.795L43.933 136.337C43.7045 136.2 43.4454 136.155 43.1597 136.196C42.874 136.238 42.6188 136.322 42.3902 136.448C42.1616 136.574 41.815 136.787 41.3464 137.095C40.8893 137.385 40.5502 137.412 40.3293 137.179L40.3255 137.168Z" fill="black"/>
<path d="M32.3029 130.997L32.6267 129.081C32.6914 128.719 32.6876 128.387 32.6076 128.086C32.5314 127.785 32.4819 127.545 32.4552 127.366C32.4324 127.187 32.5009 127.001 32.6648 126.802C32.8019 126.639 32.9505 126.57 33.1181 126.597C33.2819 126.623 33.5143 126.761 33.8076 127.004L36.1085 128.917C36.5009 129.244 36.5771 129.557 36.3295 129.85C36.219 129.98 36.0476 130.086 35.8114 130.159C35.5752 130.231 35.3962 130.307 35.2704 130.383C35.1447 130.46 35.0228 130.692 34.9085 131.08L34.699 132.258C34.7981 132.326 34.9352 132.433 35.1143 132.581L35.8533 133.195C36.0171 133.332 36.1657 133.317 36.3028 133.153L36.3638 133.08C36.6571 132.726 36.8438 132.41 36.9276 132.124C37.0114 131.839 37.0304 131.621 36.9809 131.473C36.9352 131.32 36.9047 131.157 36.9009 130.981C36.8971 130.802 36.958 130.639 37.0876 130.482C37.2247 130.319 37.3733 130.246 37.5333 130.269C37.6933 130.292 37.918 130.421 38.2075 130.661L40.7675 132.787C41.0456 133.019 41.217 133.214 41.278 133.378C41.3389 133.541 41.3008 133.701 41.1637 133.865C41.0342 134.021 40.8818 134.113 40.7066 134.139C40.5313 134.166 40.3599 134.166 40.1885 134.139C40.0209 134.109 39.8037 134.162 39.5371 134.296C39.2742 134.429 38.9961 134.673 38.7028 135.027L35.5523 138.817C35.2742 139.153 35.0762 139.453 34.9657 139.713C34.8552 139.972 34.8057 140.181 34.8209 140.341C34.8362 140.501 34.8628 140.642 34.9009 140.772C34.939 140.901 34.9543 141.034 34.9428 141.172C34.9314 141.309 34.8666 141.45 34.7447 141.598C34.6076 141.762 34.4552 141.831 34.2876 141.8C34.12 141.77 33.8952 141.64 33.6133 141.408L30.5124 138.829C29.24 137.774 28.4896 136.654 28.2534 135.476C28.021 134.296 28.3067 133.221 29.1181 132.242C30.04 131.134 31.0991 130.719 32.299 130.997H32.3029ZM34.459 133.663C33.4495 132.825 32.4971 132.943 31.6057 134.017C30.9657 134.787 30.6419 135.541 30.6381 136.273C30.6343 137.004 30.8781 137.575 31.3695 137.983C31.6057 138.181 31.7771 138.284 31.88 138.295C31.9829 138.307 32.0895 138.246 32.2 138.113L34.9504 134.802C35.0876 134.638 35.1104 134.467 35.0228 134.292C34.9352 134.117 34.7485 133.907 34.459 133.667V133.663Z" fill="black"/>
<path d="M23.4537 121.066L25.1413 123.237C25.2785 123.412 25.347 123.561 25.3432 123.679C25.3432 123.797 25.2442 123.888 25.0537 123.957L24.707 124.083C24.5128 124.167 24.3604 124.193 24.2423 124.163C24.1242 124.132 24.0023 124.037 23.8804 123.877L22.1814 121.69C22.0518 121.523 21.9871 121.378 21.9909 121.264C21.9947 121.149 22.0861 121.05 22.2728 120.974L22.6194 120.849C22.8137 120.765 22.9661 120.738 23.0842 120.769C23.2023 120.799 23.328 120.898 23.4575 121.066H23.4537Z" fill="black"/>
<path d="M20.2345 107.946C20.4364 108.357 20.6002 108.837 20.7259 109.378C20.8516 109.919 20.9316 110.22 20.9583 110.277C21.0459 110.46 21.1868 110.601 21.3773 110.696C21.5678 110.795 21.6859 110.895 21.7392 111.001C21.8802 111.291 21.7126 111.603 21.2364 111.938C20.3145 112.601 19.6326 113.039 19.1907 113.253C18.6726 113.527 18.3412 113.519 18.1964 113.222C18.1735 113.173 18.1583 113.127 18.1507 113.073C18.1431 113.024 18.1431 112.978 18.1469 112.933C18.1469 112.891 18.1697 112.837 18.204 112.773C18.2383 112.708 18.265 112.654 18.2878 112.616C18.3107 112.578 18.3526 112.502 18.4174 112.392C18.4821 112.281 18.5354 112.194 18.5735 112.129C19.4002 110.754 19.5297 109.489 18.9659 108.327C18.7945 107.996 18.5774 107.794 18.3145 107.717C18.0516 107.641 17.7964 107.672 17.5412 107.809C17.3583 107.897 17.2097 108.037 17.0878 108.232C16.9698 108.426 16.8821 108.693 16.8212 109.039C16.764 109.382 16.7259 109.683 16.7107 109.946C16.6955 110.209 16.6802 110.575 16.6574 111.047C16.6383 111.496 16.6231 111.832 16.6079 112.06C16.5926 112.285 16.5659 112.563 16.524 112.894C16.4821 113.222 16.425 113.477 16.3526 113.656C16.2802 113.835 16.1774 114.03 16.0517 114.247C15.926 114.464 15.766 114.647 15.5717 114.799C15.3812 114.952 15.1488 115.092 14.8783 115.226C13.9945 115.656 13.0688 115.641 12.0974 115.18C11.126 114.719 10.3908 113.973 9.88793 112.936C9.74317 112.639 9.61365 112.274 9.49936 111.843C9.38508 111.413 9.31651 111.173 9.29365 111.127C9.22508 110.982 9.11461 110.856 8.96985 110.75C8.82509 110.643 8.72223 110.533 8.66509 110.418C8.51652 110.11 8.66509 109.782 9.1108 109.436C9.78127 108.933 10.3527 108.563 10.8327 108.331C11.3508 108.057 11.6936 108.091 11.8612 108.434C11.9184 108.548 11.9184 108.681 11.8689 108.83C11.8155 108.978 11.6974 109.23 11.5146 109.58C10.867 110.807 10.7146 111.778 11.0612 112.487C11.2251 112.822 11.4384 113.043 11.7051 113.153C11.9717 113.264 12.2536 113.241 12.5508 113.1C12.905 112.929 13.1527 112.605 13.2898 112.136C13.4307 111.664 13.5146 110.914 13.545 109.877C13.5565 109.291 13.5679 108.868 13.5831 108.605C13.5984 108.342 13.6365 108.007 13.6974 107.596C13.7584 107.188 13.8422 106.879 13.9526 106.674C14.0593 106.468 14.2117 106.258 14.4098 106.041C14.6079 105.828 14.8555 105.645 15.1526 105.5C16.1279 105.039 17.0878 105.062 18.0364 105.577C18.985 106.087 19.7164 106.876 20.2345 107.942V107.946Z" fill="black"/>
<path d="M11.5186 95.9694C11.5034 95.7751 11.5491 95.6304 11.6634 95.5389C11.7738 95.4475 11.9795 95.3637 12.2767 95.2799C13.1719 95.0361 13.8843 94.9028 14.4138 94.8837C14.7224 94.8647 14.9585 94.9371 15.1224 95.0894C15.2862 95.2418 15.4385 95.5428 15.5757 95.9808L17.5795 102.43C17.6861 102.777 17.7242 103.032 17.6861 103.203C17.648 103.371 17.5299 103.485 17.3242 103.55C17.1414 103.607 16.9852 103.615 16.8519 103.569C16.7223 103.527 16.6042 103.462 16.4976 103.379C16.3947 103.295 16.269 103.215 16.1319 103.142C15.9909 103.07 15.7814 103.036 15.4957 103.04C15.2138 103.043 14.8633 103.112 14.4443 103.242L9.92242 104.647C9.50338 104.777 9.17957 104.921 8.94338 105.078C8.7072 105.234 8.55101 105.382 8.47863 105.523C8.40625 105.664 8.3491 105.798 8.31101 105.927C8.27292 106.057 8.21196 106.175 8.12816 106.285C8.04435 106.396 7.91101 106.479 7.72816 106.537C7.52626 106.601 7.35864 106.575 7.23293 106.457C7.10721 106.339 6.98912 106.106 6.88246 105.76L5.012 99.7407C4.772 98.9674 4.82153 98.4265 5.16057 98.1179C5.53009 97.756 5.98342 97.4246 6.52817 97.1236C7.03864 96.8646 7.38912 96.857 7.57578 97.1008C7.76625 97.356 7.71292 97.6722 7.41959 98.0531C7.04245 98.5636 6.79103 99.0283 6.67293 99.4512C6.55103 99.874 6.56246 100.308 6.70341 100.758L6.88246 101.337C7.00055 101.714 7.13007 101.954 7.27483 102.061C7.41959 102.167 7.61388 102.183 7.85768 102.106L9.58338 101.569C9.85766 101.485 10.0291 101.352 10.0977 101.173C10.1662 100.994 10.151 100.754 10.0558 100.449L9.9948 100.251C9.93004 100.038 9.81194 99.8855 9.64433 99.7902C9.47671 99.6988 9.30909 99.6493 9.14909 99.6493C8.9891 99.6493 8.8291 99.6188 8.6691 99.5617C8.51291 99.5045 8.41006 99.3979 8.36053 99.2455C8.29577 99.0436 8.31101 98.8836 8.39482 98.7655C8.48244 98.6474 8.66148 98.5484 8.93576 98.4645L11.0767 97.8017C11.3434 97.7179 11.5491 97.6989 11.6938 97.7446C11.8424 97.7903 11.9453 97.9122 12.01 98.1141C12.0557 98.2665 12.0329 98.4112 11.9338 98.5484C11.8386 98.6855 11.7167 98.7998 11.5795 98.8912C11.4424 98.9826 11.3281 99.116 11.2443 99.2874C11.1567 99.4588 11.1491 99.6531 11.2138 99.8664L11.2748 100.064C11.3738 100.381 11.4957 100.59 11.6481 100.693C11.8005 100.796 12.0138 100.804 12.2995 100.716L14.6995 99.9693C14.9433 99.8931 15.0919 99.7597 15.1452 99.5731C15.1985 99.3826 15.1566 99.0664 15.0157 98.6169L14.749 97.7598C14.669 97.5046 14.509 97.2989 14.2728 97.1389C14.0328 96.9789 13.7852 96.8684 13.5338 96.8075C13.2786 96.7465 12.8786 96.6741 12.3262 96.5865C11.7967 96.4951 11.5262 96.2894 11.5148 95.9694H11.5186Z" fill="black"/>
<path d="M3.09192 91.1086L2.69573 87.143C2.52812 85.4555 2.77954 84.0917 3.45763 83.0479C4.13571 82.0042 5.15285 81.4137 6.51283 81.2804C8.86709 81.0442 10.2118 82.5756 10.5433 85.8783L10.6385 86.8192C10.6575 87.0211 10.7642 87.1164 10.9585 87.1087C11.3928 87.0554 11.7356 86.9564 11.9909 86.8116C12.2461 86.6669 12.4061 86.5259 12.4709 86.385C12.5356 86.244 12.6309 86.1107 12.7528 85.9888C12.8747 85.8631 13.0347 85.7907 13.2366 85.7716C13.4499 85.7488 13.6061 85.8059 13.7013 85.9355C13.8004 86.065 13.8689 86.3164 13.907 86.6859L14.2385 89.9963C14.2727 90.3581 14.2575 90.6172 14.1889 90.7734C14.1204 90.9296 13.9794 91.021 13.7661 91.04C13.5642 91.0591 13.3927 91.0172 13.248 90.9143C13.1032 90.8115 12.9813 90.6896 12.8823 90.5486C12.7832 90.4077 12.5928 90.2934 12.3109 90.2058C12.029 90.1182 11.6594 90.0953 11.2023 90.141L6.2995 90.6324C5.86522 90.6743 5.51475 90.7505 5.25189 90.8572C4.98904 90.9638 4.80618 91.0781 4.70714 91.2C4.60809 91.3219 4.52428 91.4438 4.46333 91.5619C4.39857 91.68 4.31857 91.7867 4.2119 91.8781C4.10524 91.9695 3.96048 92.0229 3.77001 92.0419C3.55667 92.0648 3.40049 92.0038 3.30144 91.8629C3.20239 91.7219 3.13382 91.4705 3.09573 91.1124L3.09192 91.1086ZM9.33565 86.1907C9.26708 85.5012 9.01947 84.9907 8.59661 84.6631C8.17376 84.3355 7.65186 84.2022 7.03854 84.2631C5.96807 84.3698 5.16046 84.705 4.61571 85.2688C4.07095 85.8326 3.83096 86.4269 3.89572 87.0516C3.93 87.3906 3.97572 87.6002 4.03667 87.6725C4.09762 87.7487 4.21952 87.7754 4.39857 87.7563L8.8709 87.3068C9.08423 87.284 9.22518 87.1849 9.28994 87.0059C9.35851 86.8268 9.37375 86.5526 9.33565 86.1793V86.1907Z" fill="black"/>
<path d="M9.78888 71.6655L11.526 70.797C11.8574 70.637 12.1203 70.4351 12.3184 70.1951C12.5165 69.9551 12.6803 69.7761 12.8098 69.6503C12.9393 69.5246 13.1336 69.4713 13.3888 69.4865C13.6022 69.5018 13.7469 69.5818 13.8231 69.7303C13.8993 69.8789 13.926 70.1456 13.9031 70.5303L13.7165 73.5169C13.686 74.0273 13.4765 74.2711 13.0955 74.2483C12.9241 74.2368 12.7412 74.1607 12.5393 74.0121C12.3412 73.8673 12.1736 73.7645 12.0365 73.7073C11.8993 73.6502 11.6403 73.6921 11.2593 73.8254L10.1851 74.3511C10.1851 74.4692 10.1851 74.6445 10.1698 74.8806L10.1089 75.8406C10.0936 76.0539 10.1965 76.1682 10.4098 76.1796L10.5051 76.1873C10.9622 76.2139 11.3317 76.1796 11.6098 76.0806C11.8879 75.9815 12.0746 75.8673 12.1698 75.7377C12.265 75.612 12.3793 75.4901 12.5203 75.3835C12.6612 75.273 12.8327 75.2273 13.0346 75.2387C13.2479 75.254 13.3926 75.3301 13.4688 75.4749C13.545 75.6197 13.5717 75.8749 13.5488 76.2482L13.3431 79.57C13.3203 79.9319 13.2631 80.1833 13.1679 80.3281C13.0727 80.4728 12.9203 80.5376 12.7069 80.5223C12.505 80.5109 12.3412 80.4423 12.2155 80.3166C12.0898 80.1909 11.9908 80.05 11.9146 79.8976C11.8384 79.7452 11.667 79.6005 11.4041 79.4671C11.1412 79.3338 10.7793 79.25 10.3222 79.2233L5.40417 78.9186C4.96608 78.8919 4.6118 78.911 4.33371 78.9719C4.05562 79.0329 3.86133 79.1205 3.73943 79.2233C3.62134 79.33 3.52229 79.4329 3.43848 79.5395C3.35848 79.6462 3.25944 79.7376 3.14134 79.81C3.02325 79.8824 2.87087 79.9128 2.68039 79.9014C2.46706 79.8862 2.3223 79.8062 2.24611 79.65C2.16992 79.4976 2.14326 79.2386 2.16612 78.8767L2.41754 74.854C2.5204 73.2045 2.97753 71.936 3.79276 71.0522C4.60799 70.1684 5.64798 69.7646 6.91273 69.8446C8.3489 69.9322 9.3127 70.5456 9.7965 71.6731L9.78888 71.6655ZM8.90889 74.9759C8.98889 73.6654 8.33366 72.9683 6.93939 72.8807C5.9375 72.8198 5.14132 73.0026 4.54704 73.4293C3.95276 73.8559 3.63657 74.3892 3.59848 75.0292C3.57943 75.3378 3.59848 75.5359 3.648 75.6273C3.70133 75.7149 3.81181 75.7644 3.98324 75.7758L8.28033 76.0425C8.49366 76.0539 8.64604 75.9739 8.73746 75.7987C8.82889 75.6235 8.88603 75.3492 8.90889 74.9759Z" fill="black"/>
<path d="M15.4385 63.902C15.0842 65.3533 14.2956 66.4657 13.0766 67.2352C11.8576 68.0047 10.49 68.2104 8.97759 67.8409C7.30904 67.4333 6.02906 66.5228 5.14145 65.1095C4.25003 63.6963 4.00622 62.1649 4.41003 60.5154C4.79098 58.9612 5.60621 57.8336 6.85952 57.1289C8.11284 56.4241 9.50711 56.2603 11.0385 56.6337C12.6956 57.0374 13.9452 57.9326 14.787 59.3193C15.6289 60.7059 15.8461 62.2334 15.4385 63.902ZM14.1318 62.5763C14.4671 61.1973 13.6975 60.2792 11.8233 59.8221C10.9852 59.6164 10.1204 59.5402 9.23664 59.5935C8.34903 59.6469 7.55666 59.8564 6.85191 60.2221C6.14715 60.5878 5.71668 61.0868 5.5643 61.7192C5.39288 62.4239 5.53383 63.0144 5.98715 63.4944C6.44048 63.9743 7.10714 64.321 7.99094 64.5343C8.80998 64.7324 9.64806 64.8086 10.5052 64.7553C11.3623 64.7019 12.1433 64.4886 12.8442 64.1153C13.5452 63.742 13.9756 63.2315 14.1356 62.5763H14.1318Z" fill="black"/>
<path d="M7.05759 51.99L8.85186 48.0245C9.27852 47.0836 9.79661 46.3026 10.4023 45.6893C11.008 45.076 11.6442 44.6494 12.3071 44.4094C12.9699 44.1732 13.6442 44.0703 14.3261 44.1008C15.008 44.1351 15.6746 44.2989 16.3261 44.5922C17.8613 45.2855 18.9013 46.3598 19.4422 47.8111C19.987 49.2625 19.9031 50.771 19.1946 52.3367L17.2632 56.607C17.1146 56.9384 16.9699 57.1518 16.8289 57.2546C16.688 57.3575 16.5241 57.3613 16.3299 57.2737C16.1546 57.1937 16.0327 57.0946 15.9642 56.9765C15.8956 56.8584 15.8499 56.7327 15.827 56.5994C15.8042 56.4661 15.7661 56.3251 15.7089 56.1766C15.6518 56.028 15.5184 55.8604 15.3013 55.6775C15.088 55.4909 14.7794 55.3118 14.3794 55.129L10.0633 53.1748C9.66708 52.9957 9.32423 52.8853 9.04614 52.8472C8.76805 52.8091 8.55091 52.8167 8.40234 52.8738C8.25377 52.931 8.12424 52.9919 8.00996 53.0643C7.89568 53.1367 7.76996 53.1862 7.63663 53.2129C7.5033 53.2395 7.34711 53.2129 7.17188 53.1329C6.97759 53.0452 6.87093 52.9157 6.85569 52.7443C6.84045 52.5729 6.90521 52.3215 7.05378 51.99H7.05759ZM18.0213 52.0167C18.3946 51.1901 18.4136 50.4168 18.0822 49.6892C17.747 48.9654 17.0537 48.3635 15.9946 47.8835C14.6461 47.274 13.3623 47.0683 12.1547 47.2702C10.9471 47.4721 10.1471 48.0016 9.75851 48.8549C9.64423 49.1063 9.60613 49.3082 9.64423 49.453C9.68232 49.5978 9.83089 49.7311 10.0823 49.8454L16.5851 52.7862C16.886 52.9233 17.1451 52.9538 17.3622 52.8738C17.5794 52.7976 17.8003 52.5081 18.0251 52.0129L18.0213 52.0167Z" fill="black"/>
<path d="M25.2592 41.8799C24.3335 43.2246 23.2973 43.956 22.1545 44.0817C21.0117 44.2074 19.6479 43.7198 18.0555 42.6227L15.7241 41.0152C15.4155 40.8018 15.1412 40.6571 14.8974 40.5809C14.6536 40.5047 14.4555 40.478 14.3032 40.5123C14.1508 40.5466 14.0098 40.5847 13.8803 40.6304C13.7508 40.6761 13.6175 40.699 13.4841 40.699C13.3508 40.699 13.2137 40.6457 13.0727 40.5504C12.8975 40.4285 12.8137 40.2876 12.8213 40.1238C12.8289 39.96 12.9432 39.72 13.1603 39.4076L15.0498 36.6687C15.2632 36.3601 15.4422 36.1734 15.5946 36.1011C15.747 36.0325 15.9108 36.0553 16.086 36.1772C16.227 36.2725 16.3184 36.3868 16.3679 36.5163C16.4136 36.6458 16.4403 36.7791 16.4403 36.9163C16.4403 37.0534 16.4555 37.1982 16.4784 37.3505C16.5012 37.5029 16.5927 37.682 16.7488 37.8877C16.905 38.0934 17.1374 38.3029 17.446 38.5124L20.2498 40.4476C21.1183 41.0456 21.8993 41.339 22.5964 41.3161C23.2897 41.2971 23.8573 40.9656 24.2992 40.3257C24.7373 39.6933 24.8326 39.0381 24.5888 38.3562C24.3449 37.6781 23.7583 37.0153 22.8288 36.3715L19.4231 33.983C19.1526 33.7964 18.8212 33.743 18.4288 33.8307C18.0365 33.9183 17.7698 33.9107 17.6212 33.8078C17.4612 33.6973 17.3888 33.5792 17.4003 33.4497C17.4117 33.3202 17.4955 33.1412 17.6517 32.9126L18.6422 31.4765C18.825 31.2136 18.9736 31.0536 19.0955 31.0041C19.2174 30.9508 19.3545 30.9812 19.5145 31.0879C19.6479 31.1793 19.7431 31.4231 19.8041 31.8231C19.865 32.2231 20.0288 32.5202 20.2955 32.7183L23.2973 34.7906C24.9964 35.9753 25.9754 37.1182 26.2383 38.2191C26.5011 39.32 26.1735 40.539 25.2516 41.8723L25.2592 41.8799Z" fill="black"/>
<path d="M28.4898 24.1472L28.4479 25.3243L34.1583 27.3852C34.5126 27.5109 34.8402 27.5871 35.145 27.6099C35.4459 27.6328 35.6745 27.6252 35.8231 27.5833C35.9754 27.5452 36.1278 27.5375 36.2802 27.5642C36.4364 27.5909 36.585 27.6747 36.7259 27.8156C36.8783 27.968 36.9316 28.1242 36.8935 28.2842C36.8516 28.448 36.6954 28.6651 36.425 28.9356L34.204 31.1717C33.9488 31.4307 33.7393 31.5793 33.5793 31.6212C33.4155 31.6631 33.2593 31.6098 33.1107 31.4574C32.9888 31.3355 32.9126 31.1488 32.8821 30.8936C32.8517 30.6384 32.8136 30.4327 32.7679 30.2841C32.7221 30.1317 32.5164 29.9679 32.1545 29.7889L28.3489 28.3756L28.2536 30.9431L29.206 31.8917C29.5298 32.2155 29.8307 32.4326 30.1088 32.5393C30.3831 32.6497 30.6003 32.684 30.7526 32.6497C30.9088 32.6155 31.0726 32.604 31.2517 32.6155C31.4307 32.6269 31.5907 32.7031 31.7317 32.844C31.8841 32.9964 31.9412 33.1488 31.9031 33.3088C31.865 33.4688 31.7164 33.6783 31.4536 33.9449L29.1069 36.3068C28.8517 36.5658 28.6422 36.7144 28.4746 36.7601C28.307 36.8058 28.1508 36.7525 27.9984 36.6039C27.8536 36.4629 27.7774 36.3029 27.766 36.1239C27.7546 35.9449 27.7698 35.7734 27.8155 35.6096C27.8612 35.442 27.827 35.2249 27.7165 34.9468C27.606 34.6725 27.3889 34.3716 27.0613 34.0478L23.427 30.4403C23.1032 30.1165 22.8023 29.9032 22.5242 29.7927C22.2499 29.686 22.0327 29.6479 21.8727 29.686C21.7128 29.7241 21.5451 29.7394 21.3699 29.7279C21.1909 29.7165 21.0309 29.6403 20.8899 29.4994C20.7375 29.3508 20.6842 29.1946 20.7223 29.0308C20.7642 28.867 20.9166 28.6537 21.1794 28.3908L23.5261 26.029C23.7813 25.77 23.9908 25.6214 24.1508 25.5795C24.3146 25.5376 24.4708 25.591 24.6194 25.7433C24.7641 25.8881 24.8403 26.0481 24.8518 26.2233C24.8632 26.4023 24.8518 26.57 24.8099 26.7338C24.768 26.8976 24.8022 27.1147 24.9127 27.389C25.0232 27.6633 25.2403 27.9642 25.5679 28.2842L26.966 29.6708L27.0994 25.5414C27.107 25.2481 27.0574 25.0386 26.9508 24.9205C26.8441 24.7986 26.7222 24.7491 26.5889 24.7643C26.4517 24.7796 26.2956 24.7872 26.1203 24.7834C25.9413 24.7834 25.8079 24.7338 25.7165 24.6424C25.5718 24.5015 25.5108 24.3567 25.5298 24.2081C25.5489 24.0596 25.6556 23.8882 25.8498 23.6939L27.587 21.9454C28.0517 21.4768 28.4212 21.3778 28.6955 21.6482C28.8327 21.7816 28.905 21.9187 28.9127 22.0558C28.9203 22.193 28.8936 22.3263 28.8365 22.4634C28.7755 22.6006 28.707 22.8215 28.6308 23.1263C28.5508 23.431 28.5051 23.7739 28.4936 24.151L28.4898 24.1472Z" fill="black"/>
<path d="M37.0077 17.214L40.5734 22.1967C40.8401 22.57 41.0991 22.8328 41.3543 22.9852C41.6096 23.1376 41.8153 23.21 41.9715 23.2023C42.1315 23.1947 42.2953 23.21 42.4667 23.2519C42.6381 23.2938 42.7867 23.3966 42.9048 23.5604C43.0305 23.7357 43.061 23.8957 42.9962 24.0442C42.9315 24.1928 42.7486 24.3794 42.4477 24.5966L39.7277 26.5432C39.4344 26.7527 39.202 26.867 39.0344 26.8822C38.8667 26.8975 38.722 26.8175 38.5963 26.6422C38.4782 26.4784 38.4287 26.307 38.4477 26.1318C38.4668 25.9565 38.5087 25.7889 38.5772 25.6365C38.6458 25.4842 38.6458 25.2632 38.5848 24.9737C38.5201 24.6842 38.3563 24.3528 38.0896 23.9795L34.5239 18.9968C34.2801 18.6577 34.0097 18.5968 33.7049 18.8139C33.3849 19.0425 33.2059 19.3434 33.164 19.7091C33.1259 20.0786 33.164 20.6424 33.2744 21.4005C33.343 21.8081 33.2897 22.0786 33.1068 22.2081C32.8363 22.4024 32.543 22.2538 32.2192 21.7624C31.7049 20.9891 31.3545 20.3529 31.1716 19.8577C31.0649 19.5796 31.0573 19.3358 31.1487 19.1263C31.2402 18.9168 31.4725 18.6768 31.8459 18.4101L37.3125 14.5017C37.6858 14.235 37.9868 14.0903 38.2153 14.0712C38.4439 14.0522 38.6725 14.136 38.901 14.3265C39.3125 14.6617 39.8001 15.1988 40.3677 15.934C40.7258 16.3988 40.7715 16.7264 40.501 16.9207C40.3105 17.0578 40.0401 17.0273 39.6896 16.8331C39.0077 16.4674 38.4858 16.2464 38.1201 16.1664C37.7544 16.0864 37.4115 16.1626 37.0915 16.3912C36.7982 16.6007 36.7715 16.875 37.0115 17.214H37.0077Z" fill="black"/>
<path d="M51.5482 15.0695C51.7387 15.0199 51.8872 15.0428 51.9939 15.138C52.1006 15.2333 52.2225 15.4199 52.352 15.7018C52.7444 16.5437 52.992 17.2256 53.1024 17.7437C53.171 18.0446 53.1444 18.2884 53.0186 18.4789C52.8929 18.6693 52.6263 18.8674 52.2186 19.0731L46.1959 22.1283C45.8721 22.2921 45.6244 22.3721 45.453 22.3606C45.2816 22.353 45.1483 22.254 45.0492 22.0635C44.9616 21.8921 44.9273 21.7397 44.9502 21.6026C44.9692 21.4654 45.0149 21.3397 45.0797 21.2216C45.1444 21.1035 45.2016 20.9702 45.2511 20.8216C45.3006 20.6693 45.3006 20.4559 45.2511 20.1779C45.1978 19.8998 45.0759 19.5645 44.8778 19.176L42.733 14.9514C42.535 14.5628 42.3407 14.2619 42.1464 14.0562C41.9521 13.8505 41.7807 13.7209 41.6283 13.6714C41.4759 13.6219 41.335 13.5914 41.2016 13.5724C41.0683 13.5571 40.9388 13.5152 40.8169 13.4543C40.695 13.3895 40.5921 13.2714 40.5045 13.1C40.4093 12.9095 40.4055 12.7419 40.5045 12.601C40.5997 12.4562 40.8093 12.3039 41.1331 12.1401L46.7559 9.28682C47.4797 8.92112 48.0206 8.87922 48.3787 9.16111C48.7939 9.46586 49.1977 9.85823 49.5863 10.342C49.9292 10.803 49.9939 11.1458 49.7844 11.3706C49.5673 11.5991 49.2434 11.6029 48.8168 11.3782C48.253 11.0925 47.7501 10.921 47.3159 10.8753C46.8816 10.8296 46.4511 10.9096 46.0321 11.1229L45.4911 11.3972C45.1406 11.5763 44.9235 11.7439 44.8435 11.9039C44.7635 12.0639 44.7825 12.2581 44.8968 12.4867L45.7159 14.0981C45.8454 14.3533 46.0054 14.5019 46.1921 14.54C46.3787 14.5781 46.6149 14.5247 46.9006 14.38L47.0873 14.2847C47.2854 14.1819 47.4187 14.0409 47.4835 13.8619C47.5482 13.679 47.5635 13.5114 47.5368 13.3514C47.5101 13.1914 47.5101 13.0314 47.5406 12.8638C47.5711 12.7 47.6587 12.5819 47.7997 12.5096C47.9901 12.4143 48.1501 12.3991 48.2796 12.4638C48.4092 12.5286 48.5387 12.6924 48.6682 12.9476L49.6815 14.9438C49.8072 15.1914 49.8606 15.3895 49.8415 15.5456C49.8225 15.698 49.7196 15.8237 49.5292 15.919C49.3844 15.9913 49.2396 15.9913 49.0873 15.919C48.9349 15.8466 48.8015 15.7475 48.6873 15.6295C48.573 15.5075 48.4206 15.4199 48.2377 15.3628C48.0549 15.3057 47.8606 15.3285 47.6625 15.4314L47.4759 15.5266C47.1825 15.6752 46.9959 15.8352 46.9159 15.999C46.8397 16.1628 46.8663 16.3799 47.0035 16.6466L48.1387 18.8865C48.253 19.115 48.4092 19.2407 48.6073 19.2598C48.8015 19.2788 49.1101 19.1836 49.5292 18.9703L50.3291 18.5665C50.5653 18.4446 50.7444 18.2541 50.8625 17.9913C50.9806 17.7284 51.0491 17.4656 51.0644 17.2065C51.0834 16.9475 51.0872 16.5361 51.0796 15.9799C51.0796 15.4428 51.2396 15.138 51.5558 15.0771L51.5482 15.0695Z" fill="black"/>
<path d="M61.0609 11.618L62.5009 12.9208C62.7713 13.1684 63.0532 13.3437 63.3466 13.4389C63.6399 13.5341 63.8685 13.6218 64.0323 13.6979C64.1961 13.7741 64.318 13.9341 64.3942 14.1779C64.4589 14.3798 64.4361 14.5436 64.3256 14.6693C64.2151 14.7951 63.9751 14.917 63.6094 15.0312L60.7599 15.9417C60.2723 16.0979 59.9714 15.9912 59.8533 15.6255C59.7999 15.4617 59.8076 15.2636 59.8723 15.0236C59.9371 14.7836 59.9676 14.5932 59.9714 14.4446C59.9714 14.2998 59.8418 14.0713 59.579 13.7627L58.699 12.9513C58.5885 12.997 58.4247 13.0542 58.2 13.1265L57.2857 13.4199C57.0838 13.4846 57.0152 13.618 57.08 13.8237L57.1105 13.9151C57.2514 14.3532 57.419 14.6808 57.6133 14.9055C57.8076 15.1303 57.9828 15.2598 58.1352 15.3017C58.2876 15.3436 58.44 15.4084 58.5923 15.4998C58.7447 15.5912 58.8514 15.7322 58.9123 15.9264C58.9771 16.1283 58.9581 16.2921 58.8514 16.4179C58.7447 16.5398 58.5161 16.6617 58.1581 16.7721L54.9886 17.7854C54.6419 17.8959 54.3867 17.934 54.2191 17.8959C54.0514 17.8616 53.9333 17.7397 53.8686 17.5378C53.8076 17.3435 53.8114 17.1683 53.8838 17.0045C53.9562 16.8407 54.0476 16.6959 54.1657 16.5702C54.2838 16.4445 54.3562 16.2312 54.3829 15.9379C54.4133 15.6445 54.3562 15.2788 54.2153 14.8408L52.7143 10.1476C52.581 9.73238 52.4362 9.40477 52.2762 9.1724C52.1162 8.93622 51.9677 8.78384 51.8267 8.71146C51.6858 8.63908 51.5524 8.58575 51.4229 8.54766C51.2934 8.50956 51.1753 8.45242 51.0648 8.36862C50.9543 8.28481 50.8705 8.15529 50.8134 7.97244C50.7486 7.77054 50.7753 7.60293 50.8896 7.47722C51.0077 7.35151 51.2362 7.23342 51.5829 7.12295L55.4229 5.89633C56.9962 5.39349 58.3447 5.3592 59.4647 5.79728C60.5847 6.23536 61.339 7.05819 61.7237 8.26576C62.1618 9.63714 61.9447 10.7533 61.0647 11.618H61.0609ZM57.6552 12.0028C58.9047 11.6028 59.3161 10.7381 58.8895 9.40858C58.5847 8.45242 58.1238 7.77816 57.5104 7.38199C56.8971 6.98581 56.2838 6.88296 55.6743 7.07724C55.3809 7.17247 55.2019 7.26009 55.1371 7.34008C55.0724 7.42389 55.0686 7.54579 55.1219 7.70578L56.4324 11.8047C56.4971 12.0066 56.6266 12.1209 56.8247 12.1399C57.0228 12.159 57.2971 12.1132 57.6552 11.999V12.0028Z" fill="black"/>
<path d="M74.1881 9.52305L71.449 9.77447C71.2243 9.79351 71.0643 9.77447 70.9691 9.7059C70.8738 9.64114 70.8472 9.50781 70.8929 9.30972L70.9729 8.94783C71.0072 8.74212 71.0681 8.59737 71.1595 8.51356C71.2471 8.42975 71.3919 8.38023 71.5938 8.36118L74.3519 8.10976C74.5652 8.09072 74.7176 8.11357 74.8166 8.17833C74.9119 8.24309 74.9462 8.37642 74.9081 8.5707L74.8281 8.93259C74.7938 9.1383 74.7328 9.28306 74.6414 9.36686C74.5538 9.45067 74.4014 9.50019 74.1881 9.51924V9.52305Z" fill="black"/>
<path d="M62.8153 81.0982C62.9749 80.9832 63.1644 80.892 63.3731 80.8298C63.5817 80.7676 63.8054 80.7355 64.0313 80.7355C64.2571 80.7355 64.4808 80.7676 64.6894 80.8298C64.8981 80.892 65.0877 80.9832 65.2473 81.0982L77.7813 90.1174L77.7813 65.8977C77.7813 65.5698 77.9623 65.2552 78.2847 65.0233C78.607 64.7914 79.0442 64.6611 79.5 64.6611C79.9559 64.6611 80.393 64.7914 80.7154 65.0233C81.0377 65.2552 81.2188 65.5698 81.2188 65.8977L81.2188 90.1174L93.7528 81.0982C94.0753 80.8662 94.5127 80.7358 94.9688 80.7358C95.4249 80.7358 95.8623 80.8662 96.1848 81.0982C96.5073 81.3302 96.6885 81.6449 96.6885 81.9731C96.6885 82.3012 96.5073 82.6159 96.1848 82.848L80.716 93.9771C80.5564 94.092 80.3669 94.1832 80.1582 94.2455C79.9495 94.3077 79.7259 94.3397 79.5 94.3397C79.2742 94.3397 79.0505 94.3077 78.8418 94.2455C78.6332 94.1832 78.4436 94.092 78.284 93.9771L62.8153 82.848C62.6554 82.7331 62.5287 82.5967 62.4422 82.4466C62.3557 82.2965 62.3112 82.1356 62.3112 81.9731C62.3112 81.8106 62.3557 81.6497 62.4422 81.4996C62.5287 81.3494 62.6554 81.2131 62.8153 81.0982Z" fill="black"/>
</svg>
