<svg width="1512" height="73" viewBox="0 0 1512 73" fill="none" xmlns="http://www.w3.org/2000/svg">
<path d="M3.74441 36.6996C4.24426 36.7984 4.55301 37.0145 4.67062 37.3478C4.78823 37.681 4.82865 38.2304 4.79557 38.9921C4.69633 41.585 4.44639 43.5956 4.04577 45.0239C3.8473 45.8223 3.46138 46.3716 2.89537 46.6682C2.32936 46.9686 1.3113 47.1187 -0.158859 47.1187H-18.3742C-19.4069 47.1187 -20.1347 47.0198 -20.55 46.8184C-20.969 46.6206 -21.1748 46.2544 -21.1748 45.7197C-21.1748 45.1557 -20.9984 44.7163 -20.6492 44.3976C-20.3 44.0827 -19.9252 43.8337 -19.5246 43.6505C-19.1239 43.4674 -18.749 42.951 -18.3999 42.1051C-18.0507 41.2591 -17.8743 40.1018 -17.8743 38.6406V20.5416C-17.8743 19.2122 -18.0434 18.1392 -18.3742 17.3262C-18.7086 16.5131 -19.0762 15.9894 -19.4768 15.755C-19.8774 15.5243 -20.2449 15.2313 -20.5794 14.8834C-20.9139 14.5355 -21.0792 14.1107 -21.0792 13.6126C-21.0792 13.0816 -20.8808 12.7154 -20.4801 12.5139C-20.0795 12.3125 -19.3481 12.2136 -18.2786 12.2136H-10.3213C-9.32164 12.2136 -8.61227 12.3125 -8.19327 12.5139C-7.77795 12.7117 -7.56847 13.0779 -7.56847 13.6126C-7.56847 14.1107 -7.73754 14.5355 -8.06832 14.8834C-8.40278 15.2313 -8.7777 15.5243 -9.19302 15.755C-9.61201 15.9894 -9.98688 16.5131 -10.3177 17.3262C-10.6521 18.1428 -10.8175 19.2122 -10.8175 20.5416V41.6839C-10.8175 42.5152 -10.5492 43.1049 -10.0163 43.4528C-9.48337 43.8007 -8.46526 43.9765 -6.96202 43.9765L-4.709 43.9252C-3.10653 43.9252 -1.90838 43.5333 -1.10714 42.7533C-0.305904 41.9732 0.561518 40.5852 1.49507 38.5893C2.19707 37.128 2.94685 36.4945 3.74809 36.6959L3.74441 36.6996Z" fill="#EC6342"/>
<path d="M52.1352 36.6995C52.6019 36.7984 52.9033 37.0255 53.0357 37.3734C53.168 37.7213 53.2194 38.2633 53.1864 38.9921C53.0871 41.4532 52.8188 43.4638 52.3851 45.0239C52.1866 45.8223 51.808 46.3716 51.2604 46.6682C50.7091 46.9686 49.702 47.1187 48.2319 47.1187H28.0135C27.0138 47.1187 26.3045 47.0198 25.8855 46.8184C25.4665 46.6206 25.2606 46.2544 25.2606 45.7197C25.2606 45.2546 25.3672 44.8884 25.5878 44.621C25.8046 44.3537 26.0693 44.1303 26.389 43.9472C26.7051 43.7641 27.0322 43.515 27.3667 43.2001C27.7011 42.8851 27.9768 42.3431 28.1937 41.5814C28.4105 40.8159 28.517 39.8345 28.517 38.6406V37.7946H17.2079L14.5064 42.0318C14.0727 42.8961 13.9404 43.4454 14.1058 43.6762C14.2712 43.9106 14.5652 44.2072 14.9806 44.5734C15.3959 44.9397 15.6054 45.3535 15.6054 45.8186C15.6054 46.6829 14.8556 47.115 13.3524 47.115H8.89781C7.12995 47.115 6.24414 46.6829 6.24414 45.8186C6.24414 45.2876 6.461 44.8627 6.89469 44.5478C7.32839 44.2328 7.88707 43.8849 8.5707 43.5004C9.25432 43.1195 9.77987 42.6434 10.1474 42.0794L25.8597 17.7949C26.661 16.5974 26.5618 15.6012 25.5584 14.8028C24.7571 14.2389 24.3565 13.7408 24.3565 13.3086C24.3565 12.5762 24.8747 12.21 25.9075 12.21H47.2248C48.5921 12.21 49.5698 12.3418 50.1505 12.6091C50.7349 12.8765 51.1428 13.3233 51.378 13.9569C52.1131 15.7184 52.613 17.4324 52.8776 19.0914C53.1422 20.5196 52.8923 21.3363 52.1278 21.5341C51.3266 21.8014 50.5254 21.318 49.7241 20.0875C48.7244 18.4578 47.6475 17.2639 46.4971 16.4985C45.3467 15.7331 43.9868 15.3522 42.4174 15.3522H40.0137C38.2458 15.3522 37.0697 15.528 36.4853 15.8759C35.9009 16.2238 35.6106 16.8171 35.6106 17.6448V24.5774C35.6106 25.5736 35.8752 26.2328 36.4118 26.5477C36.9448 26.8627 37.8452 27.0202 39.1132 27.0202H40.565C41.3001 27.0202 41.8919 26.8224 42.3403 26.4232C42.7887 26.024 43.09 25.5772 43.2407 25.0755C43.3914 24.5774 43.6083 24.127 43.8913 23.7278C44.1743 23.3286 44.5344 23.1308 44.9681 23.1308C45.5011 23.1308 45.8686 23.3286 46.0707 23.7278C46.2692 24.127 46.3722 24.8082 46.3722 25.7713V31.6053C46.3722 33.235 45.9054 34.0481 44.9718 34.0481C44.5381 34.0481 44.1779 33.8393 43.8949 33.4255C43.6119 33.0116 43.3951 32.5612 43.2444 32.0778C43.0937 31.598 42.7923 31.1476 42.3439 30.7301C41.8919 30.3162 41.3001 30.1075 40.5687 30.1075H39.1169C37.8489 30.1075 36.9484 30.2649 36.4155 30.5799C35.8826 30.8949 35.6143 31.5541 35.6143 32.5502V41.6253C35.6143 42.4896 35.923 43.0975 36.5405 43.4454C37.1579 43.7934 38.4333 43.9692 40.3702 43.9692L43.6744 43.9179C45.2769 43.9179 46.4751 43.526 47.2763 42.746C48.0775 41.9659 48.9266 40.5779 49.827 38.582C50.5621 37.1207 51.3266 36.4871 52.1278 36.6886L52.1352 36.6995ZM28.517 19.8971L19.211 34.6084H28.517V19.8971Z" fill="#EC6342"/>
<path d="M70.398 47.5692C68.9646 47.5692 67.4467 47.419 65.8442 47.1187C64.2417 46.8184 63.3266 46.6683 63.0913 46.6683C62.5584 46.6683 62.0549 46.8257 61.5918 47.1407C61.125 47.4557 60.7428 47.6131 60.4414 47.6131C59.4748 47.6131 58.8389 46.6976 58.5412 44.8701C58.0083 41.6143 57.6738 39.1863 57.5415 37.5895C57.4753 36.1283 57.8576 35.3958 58.6919 35.3958C59.1256 35.3958 59.4748 35.5386 59.7431 35.8206C60.0114 36.1026 60.3936 36.6593 60.8935 37.4906C63.2604 42.0465 66.6161 44.3208 70.953 44.3208C72.6878 44.3208 73.9962 43.8813 74.882 42.9987C75.7641 42.1197 76.2419 41.0284 76.3081 39.7319C76.3411 38.7358 75.981 37.8056 75.2312 36.9413C74.4814 36.077 73.614 35.3555 72.629 34.7732C71.644 34.1909 70.4201 33.5171 68.9499 32.7553C68.5162 32.5575 68.2001 32.4074 67.998 32.3048C64.5946 30.5763 62.3599 29.2798 61.2904 28.4155C59.155 26.654 58.0891 24.409 58.0891 21.6843C58.0891 18.9595 59.2652 16.5827 61.6175 14.6527C63.9698 12.7264 66.9615 11.7595 70.6002 11.7595C71.5337 11.7595 72.6437 11.8767 73.9264 12.1074C75.2091 12.3418 75.9846 12.4554 76.2529 12.4554C76.6866 12.4554 77.1461 12.3382 77.6276 12.1074C78.1127 11.8767 78.5023 11.7595 78.8037 11.7595C79.2704 11.7595 79.6527 11.9426 79.9541 12.3089C80.2555 12.6751 80.5054 13.3746 80.7039 14.4037C81.2037 16.5974 81.5382 18.5933 81.7036 20.3878C81.8028 21.8527 81.3875 22.5815 80.4539 22.5815C79.8217 22.5815 79.0352 21.882 78.1017 20.4867C75.5987 16.7658 72.8458 14.9017 69.843 14.9017C68.2736 14.9017 67.0571 15.2936 66.1897 16.0737C65.3223 16.8537 64.8886 17.8938 64.8886 19.1903C64.8886 20.6552 65.473 21.8674 66.6381 22.8306C67.8069 23.7937 69.9055 25.0426 72.9451 26.5697C73.2134 26.7016 73.614 26.903 74.1469 27.1667C75.5142 27.8332 76.5249 28.3386 77.1754 28.6865C77.826 29.0344 78.6346 29.5435 79.6012 30.2064C80.5679 30.8729 81.2772 31.4882 81.7293 32.0522C82.1777 32.6161 82.5893 33.3339 82.9569 34.1946C83.3244 35.0589 83.5082 35.9891 83.5082 36.9852C83.5413 40.1751 82.2585 42.735 79.6563 44.665C77.0542 46.595 73.9668 47.5582 70.398 47.5582V47.5692Z" fill="#EC6342"/>
<path d="M113.834 18.0989L110.082 21.5378L118.69 40.2373C119.123 41.1675 119.608 41.9329 120.141 42.5299C120.674 43.1268 121.141 43.526 121.542 43.7274C121.942 43.9289 122.277 44.1852 122.541 44.5002C122.81 44.8151 122.942 45.2216 122.942 45.7234C122.942 46.2544 122.751 46.6206 122.365 46.8221C121.983 47.0198 121.321 47.1224 120.388 47.1224H112.732C111.732 47.1224 111.012 47.0162 110.582 46.8001C110.148 46.584 109.931 46.2105 109.931 45.6794C109.931 45.2473 110.148 44.7822 110.582 44.2841C111.015 43.786 111.331 43.3283 111.534 42.9144C111.732 42.5006 111.651 41.7278 111.284 40.5962L104.929 26.3353L97.6221 33.1179V38.8017C97.6221 40.1311 97.7875 41.2041 98.122 42.0172C98.4564 42.8339 98.813 43.3539 99.1989 43.5883C99.5811 43.8227 99.9413 44.112 100.276 44.4599C100.61 44.8078 100.776 45.2326 100.776 45.7307C100.776 46.2617 100.577 46.628 100.177 46.8294C99.7759 47.0308 99.0592 47.1297 98.0265 47.1297H90.0692C89.0695 47.1297 88.3491 47.0308 87.9191 46.8294C87.4854 46.6316 87.2686 46.2654 87.2686 45.7307C87.2686 45.2326 87.4449 44.8078 87.7941 44.4599C88.1433 44.112 88.5182 43.819 88.9188 43.5883C89.3194 43.3576 89.6943 42.8339 90.0435 42.0172C90.3926 41.2041 90.5691 40.1311 90.5691 38.8017V20.5526C90.5691 19.2232 90.4 18.1502 90.0692 17.3371C89.7347 16.5241 89.3672 16.0004 88.9666 15.766C88.566 15.5353 88.1984 15.2423 87.864 14.8944C87.5295 14.5465 87.3641 14.1217 87.3641 13.6236C87.3641 13.0926 87.5626 12.7263 87.9632 12.5249C88.3638 12.3235 89.0952 12.2246 90.1648 12.2246H98.122C99.1217 12.2246 99.831 12.3235 100.25 12.5249C100.665 12.7227 100.875 13.0889 100.875 13.6236C100.875 14.1217 100.706 14.5465 100.375 14.8944C100.041 15.2423 99.6657 15.5353 99.2503 15.766C98.8313 16.0004 98.4564 16.5241 98.1256 17.3371C97.7912 18.1538 97.6258 19.2232 97.6258 20.5526V28.6792L109.034 18.1099C109.699 17.48 110.067 16.9453 110.137 16.5131C110.203 16.081 110.078 15.7587 109.762 15.539C109.446 15.3229 109.119 15.0482 108.784 14.715C108.45 14.3817 108.284 14.0155 108.284 13.6163C108.284 12.6861 108.968 12.2209 110.335 12.2209H116.742C118.609 12.2209 119.542 12.6861 119.542 13.6163C119.542 14.2498 119.344 14.682 118.943 14.9127C118.542 15.1471 117.833 15.5097 116.815 16.0114C115.797 16.5095 114.805 17.209 113.838 18.1062L113.834 18.0989Z" fill="#EC6342"/>
<path d="M151.217 36.6995C151.717 36.7984 152.025 37.0145 152.143 37.3478C152.261 37.681 152.301 38.2304 152.268 38.9921C152.169 41.585 151.919 43.5956 151.518 45.0239C151.32 45.8223 150.934 46.3716 150.368 46.6682C149.802 46.9686 148.784 47.1187 147.317 47.1187H127.15C126.117 47.1187 125.39 47.0198 124.974 46.8184C124.555 46.6206 124.35 46.2544 124.35 45.7197C124.35 45.1557 124.526 44.7163 124.875 44.3976C125.224 44.0827 125.599 43.8337 126 43.6505C126.4 43.4674 126.775 42.951 127.125 42.1051C127.474 41.2591 127.65 40.1018 127.65 38.6406V20.6881C127.65 19.2269 127.474 18.0696 127.125 17.2236C126.775 16.3776 126.4 15.8612 126 15.6781C125.599 15.495 125.224 15.246 124.875 14.931C124.526 14.6161 124.35 14.1766 124.35 13.6089C124.35 13.0779 124.559 12.7117 124.974 12.5103C125.39 12.3125 126.117 12.21 127.15 12.21H146.317C147.685 12.21 148.662 12.3418 149.243 12.6091C149.827 12.8765 150.235 13.3233 150.471 13.9569C151.173 15.4877 151.672 17.198 151.97 19.0914C152.238 20.5196 151.985 21.3363 151.22 21.5341C150.419 21.8014 149.636 21.318 148.868 20.0875C147.868 18.4578 146.792 17.2639 145.641 16.4985C144.491 15.7331 143.112 15.3522 141.514 15.3522H139.161C137.36 15.3522 136.166 15.528 135.585 15.8759C135.001 16.2238 134.711 16.8171 134.711 17.6448V24.5774C134.711 25.5736 134.986 26.2328 135.537 26.5477C136.089 26.8627 136.997 27.0202 138.265 27.0202H139.665C140.4 27.0202 140.992 26.8224 141.44 26.4232C141.889 26.024 142.19 25.5772 142.341 25.0755C142.491 24.5774 142.708 24.127 142.991 23.7278C143.274 23.3286 143.634 23.1308 144.068 23.1308C144.601 23.1308 144.969 23.3286 145.171 23.7278C145.369 24.127 145.472 24.8082 145.472 25.7713V31.6053C145.472 33.235 145.005 34.0481 144.072 34.0481C143.638 34.0481 143.278 33.8393 142.995 33.4255C142.712 33.0116 142.495 32.5612 142.344 32.0778C142.194 31.598 141.896 31.1476 141.444 30.7301C140.992 30.3162 140.4 30.1075 139.669 30.1075H138.268C136.967 30.1075 136.048 30.2649 135.515 30.5799C134.983 30.8949 134.714 31.5541 134.714 32.5502V41.6253C134.714 42.4896 135.023 43.0975 135.64 43.4454C136.258 43.7934 137.533 43.9692 139.47 43.9692L142.774 43.9179C144.377 43.9179 145.575 43.526 146.376 42.746C147.177 41.9659 148.045 40.5779 148.978 38.582C149.68 37.1207 150.43 36.4871 151.231 36.6886L151.217 36.6995Z" fill="#EC6342"/>
<path d="M173.784 17.751V38.7944C173.784 40.1238 173.949 41.1968 174.283 42.0098C174.618 42.8265 174.985 43.3466 175.386 43.581C175.787 43.8153 176.154 44.1047 176.489 44.4526C176.823 44.8005 176.988 45.2253 176.988 45.7234C176.988 46.2544 176.779 46.6206 176.364 46.8221C175.945 47.0198 175.221 47.1224 174.188 47.1224H166.231C165.231 47.1224 164.51 47.0235 164.08 46.8221C163.647 46.6243 163.43 46.2581 163.43 45.7234C163.43 45.2253 163.606 44.8005 163.955 44.4526C164.305 44.1047 164.68 43.8117 165.08 43.581C165.481 43.3502 165.856 42.8265 166.205 42.0098C166.554 41.1968 166.73 40.1238 166.73 38.7944V17.751C166.73 16.2897 165.981 15.5573 164.477 15.5573C163.408 15.5573 162.507 15.7807 161.776 16.2311C161.041 16.6816 160.482 17.1943 160.1 17.7766C159.718 18.3589 159.155 19.3294 158.424 20.6918C157.825 21.9223 157.207 22.5376 156.572 22.5376C155.671 22.5376 155.252 21.8051 155.322 20.3439C155.421 17.751 155.671 15.7404 156.072 14.3121C156.27 13.5137 156.656 12.9644 157.222 12.6677C157.788 12.3674 158.806 12.2173 160.276 12.2173H180.241C181.708 12.2173 182.718 12.3674 183.27 12.6677C183.821 12.9681 184.196 13.4991 184.394 14.2645C184.861 15.9272 185.111 17.9561 185.144 20.3475C185.21 21.8124 184.81 22.5412 183.942 22.5412C183.306 22.5412 182.674 21.926 182.042 20.6954C181.042 18.7361 180.164 17.3811 179.414 16.6303C178.664 15.8832 177.521 15.5097 175.985 15.5097C174.449 15.5097 173.784 16.2568 173.784 17.7546V17.751Z" fill="#EC6342"/>
<path d="M203.459 47.6168C198.688 47.6168 194.744 46.064 191.624 42.9547C188.504 39.8455 186.945 35.8682 186.945 31.0121C186.945 25.6285 188.721 21.0653 192.275 17.3262C195.829 13.587 200.258 11.7156 205.561 11.7156C210.497 11.7156 214.485 13.3197 217.521 16.5278C220.557 19.7359 222.075 23.7828 222.075 28.6682C222.075 34.0884 220.322 38.6003 216.819 42.2076C213.316 45.815 208.862 47.6168 203.459 47.6168ZM206.061 43.6762C209.097 43.6762 211.372 42.6288 212.89 40.534C214.408 38.4392 215.169 35.7474 215.169 32.455C215.169 29.5948 214.702 26.87 213.768 24.2772C212.835 21.6843 211.435 19.5309 209.564 17.8206C207.697 16.1103 205.576 15.2533 203.209 15.2533C200.239 15.2533 197.938 16.341 196.303 18.5201C194.667 20.6991 193.851 23.3506 193.851 26.4745C193.851 31.0304 194.983 35.0332 197.255 38.4904C199.523 41.9476 202.459 43.6762 206.061 43.6762Z" fill="#EC6342"/>
<path d="M249.798 34.2568L253.55 40.8379C253.984 41.5704 254.477 42.193 255.028 42.7093C255.579 43.2257 256.028 43.5736 256.381 43.7567C256.73 43.9399 257.031 44.1889 257.281 44.5038C257.531 44.8188 257.656 45.2253 257.656 45.727C257.656 46.2581 257.465 46.6243 257.079 46.8257C256.697 47.0235 256.035 47.126 255.101 47.126H247.747C246.145 47.126 245.343 46.6463 245.343 45.6794C245.343 45.2473 245.553 44.7639 245.968 44.2328C246.383 43.7018 246.659 43.2367 246.795 42.8375C246.927 42.4383 246.762 41.6912 246.295 40.5925L243.495 35.7071C242.425 35.773 241.594 35.806 240.992 35.806H237.037C236.368 35.806 236.037 36.1392 236.037 36.8021V38.798C236.037 40.1274 236.203 41.2005 236.537 42.0135C236.872 42.8302 237.228 43.3502 237.614 43.5846C237.996 43.819 238.356 44.1083 238.691 44.4562C239.025 44.8042 239.191 45.229 239.191 45.727C239.191 46.2581 238.992 46.6243 238.592 46.8257C238.191 47.0272 237.474 47.126 236.441 47.126H228.484C227.485 47.126 226.764 47.0272 226.334 46.8257C225.9 46.628 225.684 46.2617 225.684 45.727C225.684 45.229 225.86 44.8042 226.209 44.4562C226.558 44.1083 226.933 43.8153 227.334 43.5846C227.734 43.3539 228.109 42.8302 228.458 42.0135C228.808 41.2005 228.984 40.1274 228.984 38.798V20.6991C228.984 19.2379 228.808 18.0806 228.458 17.2346C228.109 16.3886 227.734 15.8722 227.334 15.6891C226.933 15.506 226.558 15.257 226.209 14.942C225.86 14.6271 225.684 14.1876 225.684 13.6199C225.684 13.0889 225.893 12.7227 226.308 12.5213C226.724 12.3235 227.451 12.2209 228.484 12.2209H239.393C244.63 12.2209 248.677 13.3599 251.529 15.6378C254.381 17.9158 255.807 20.8969 255.807 24.5884C255.807 29.2761 253.804 32.4989 249.802 34.2605L249.798 34.2568ZM240.639 32.7626C243.142 32.7626 245.082 32.1327 246.468 30.8692C247.854 29.6057 248.545 27.7783 248.545 25.3831C248.545 22.3251 247.67 19.8641 245.917 18.0037C244.167 16.1432 241.903 15.213 239.136 15.213C237.834 15.1801 236.993 15.2533 236.607 15.4364C236.225 15.6195 236.03 15.9784 236.03 16.5095V31.1695C236.03 31.7665 236.353 32.184 237.004 32.4147C237.654 32.6491 238.864 32.7626 240.631 32.7626H240.639Z" fill="#EC6342"/>
<path d="M283.975 12.2649H288.478C290.212 12.2649 291.08 12.6824 291.08 13.5101C291.08 13.9093 290.922 14.2572 290.606 14.5575C290.29 14.8578 289.922 15.1141 289.503 15.3302C289.084 15.5463 288.617 15.9382 288.103 16.5021C287.585 17.0661 287.158 17.7656 286.827 18.597L276.319 45.522C276.121 46.0859 275.86 46.4778 275.544 46.6939C275.228 46.91 274.599 47.0857 273.666 47.2176C272.53 47.3824 271.755 47.4007 271.339 47.2689C270.92 47.137 270.615 46.8038 270.413 46.2727L259.354 18.7984C258.986 17.8682 258.571 17.1101 258.104 16.5314C257.637 15.9491 257.237 15.5609 256.902 15.3595C256.568 15.1617 256.285 14.9274 256.053 14.66C255.818 14.3927 255.704 14.0631 255.704 13.6639C255.704 13.1329 255.903 12.7593 256.303 12.5432C256.704 12.3272 257.387 12.2173 258.354 12.2173H266.411C268.013 12.2173 268.814 12.6824 268.814 13.6126C268.814 14.1107 268.546 14.5611 268.013 14.9603C267.48 15.3595 267.079 15.7514 266.811 16.1323C266.543 16.5131 266.613 17.4031 267.01 18.7984L275.118 39.3913L283.023 18.597C283.424 17.2346 283.523 16.363 283.325 15.9784C283.126 15.5976 282.807 15.2057 282.373 14.8065C281.939 14.4073 281.722 13.9935 281.722 13.5613C281.722 12.697 282.472 12.2649 283.975 12.2649Z" fill="#EC6342"/>
<path d="M319.355 36.6995C319.855 36.7984 320.164 37.0145 320.282 37.3478C320.399 37.681 320.44 38.2304 320.407 38.9921C320.307 41.585 320.057 43.5956 319.657 45.0239C319.458 45.8223 319.072 46.3716 318.506 46.6682C317.94 46.9686 316.922 47.1187 315.456 47.1187H295.289C294.256 47.1187 293.528 47.0198 293.113 46.8184C292.694 46.6206 292.488 46.2544 292.488 45.7197C292.488 45.1557 292.665 44.7163 293.014 44.3976C293.363 44.0827 293.738 43.8337 294.139 43.6505C294.539 43.4674 294.914 42.951 295.263 42.1051C295.612 41.2591 295.789 40.1018 295.789 38.6406V20.6881C295.789 19.2269 295.612 18.0696 295.263 17.2236C294.914 16.3776 294.539 15.8612 294.139 15.6781C293.738 15.495 293.363 15.246 293.014 14.931C292.665 14.6161 292.488 14.1766 292.488 13.6089C292.488 13.0779 292.698 12.7117 293.113 12.5103C293.528 12.3125 294.256 12.21 295.289 12.21H314.456C315.823 12.21 316.801 12.3418 317.382 12.6091C317.966 12.8765 318.374 13.3233 318.609 13.9569C319.311 15.4877 319.811 17.198 320.109 19.0914C320.377 20.5196 320.124 21.3363 319.359 21.5341C318.558 21.8014 317.775 21.318 317.007 20.0875C316.007 18.4578 314.93 17.2639 313.78 16.4985C312.629 15.7331 311.251 15.3522 309.652 15.3522H307.3C305.499 15.3522 304.305 15.528 303.724 15.8759C303.14 16.2238 302.849 16.8171 302.849 17.6448V24.5774C302.849 25.5736 303.125 26.2328 303.676 26.5477C304.227 26.8627 305.135 27.0202 306.403 27.0202H307.804C308.539 27.0202 309.13 26.8224 309.579 26.4232C310.027 26.024 310.329 25.5772 310.479 25.0755C310.63 24.5774 310.847 24.127 311.13 23.7278C311.413 23.3286 311.773 23.1308 312.207 23.1308C312.74 23.1308 313.107 23.3286 313.309 23.7278C313.508 24.127 313.611 24.8082 313.611 25.7713V31.6053C313.611 33.235 313.144 34.0481 312.21 34.0481C311.777 34.0481 311.417 33.8393 311.134 33.4255C310.851 33.0116 310.634 32.5612 310.483 32.0778C310.332 31.598 310.035 31.1476 309.583 30.7301C309.13 30.3162 308.539 30.1075 307.807 30.1075H306.407C305.106 30.1075 304.187 30.2649 303.654 30.5799C303.121 30.8949 302.853 31.5541 302.853 32.5502V41.6253C302.853 42.4896 303.162 43.0975 303.779 43.4454C304.397 43.7934 305.672 43.9692 307.609 43.9692L310.913 43.9179C312.516 43.9179 313.714 43.526 314.515 42.746C315.316 41.9659 316.184 40.5779 317.117 38.582C317.819 37.1207 318.569 36.4871 319.37 36.6886L319.355 36.6995Z" fill="#EC6342"/>
<path d="M341.922 17.751V38.7944C341.922 40.1238 342.088 41.1968 342.422 42.0098C342.756 42.8265 343.124 43.3466 343.525 43.581C343.925 43.8153 344.293 44.1047 344.627 44.4526C344.962 44.8005 345.127 45.2253 345.127 45.7234C345.127 46.2544 344.918 46.6206 344.502 46.8221C344.083 47.0198 343.359 47.1224 342.326 47.1224H334.369C333.369 47.1224 332.649 47.0235 332.219 46.8221C331.785 46.6243 331.569 46.2581 331.569 45.7234C331.569 45.2253 331.745 44.8005 332.094 44.4526C332.443 44.1047 332.818 43.8117 333.219 43.581C333.619 43.3502 333.994 42.8265 334.343 42.0098C334.693 41.1968 334.869 40.1238 334.869 38.7944V17.751C334.869 16.2897 334.119 15.5573 332.616 15.5573C331.546 15.5573 330.646 15.7807 329.915 16.2311C329.18 16.6816 328.621 17.1943 328.239 17.7766C327.856 18.3589 327.294 19.3294 326.563 20.6918C325.964 21.9223 325.346 22.5376 324.71 22.5376C323.81 22.5376 323.391 21.8051 323.461 20.3439C323.56 17.751 323.81 15.7404 324.21 14.3121C324.409 13.5137 324.795 12.9644 325.361 12.6677C325.927 12.3674 326.945 12.2173 328.415 12.2173H348.38C349.846 12.2173 350.857 12.3674 351.408 12.6677C351.96 12.9681 352.335 13.4991 352.533 14.2645C353 15.9272 353.25 17.9561 353.283 20.3475C353.349 21.8124 352.948 22.5412 352.081 22.5412C351.445 22.5412 350.813 21.926 350.181 20.6954C349.181 18.7361 348.303 17.3811 347.553 16.6303C346.803 15.8832 345.66 15.5097 344.124 15.5097C342.587 15.5097 341.922 16.2568 341.922 17.7546V17.751Z" fill="#EC6342"/>
<path d="M379.705 47.6681C375.802 47.6681 372.693 46.2325 370.373 43.354C368.054 40.4791 366.878 36.4799 366.845 31.3637C366.779 26.0131 368.153 21.3987 370.973 17.5277C373.792 13.6567 377.335 11.7193 381.606 11.7193C383.373 11.6864 384.957 11.994 386.358 12.6422C387.758 13.2904 388.743 14.0632 389.309 14.9604C389.677 15.627 389.691 16.1726 389.361 16.6048C389.026 17.0369 388.592 17.1212 388.059 16.8538C386.225 15.9566 384.34 15.5061 382.407 15.5061C380.337 15.5061 378.537 16.396 377 18.1722C375.464 19.9521 374.681 22.5853 374.648 26.0754C375.383 25.0793 376.431 24.2553 377.801 23.607C379.169 22.9588 380.635 22.6365 382.205 22.6365C385.174 22.6365 387.626 23.7682 389.559 26.0278C391.492 28.2874 392.463 31.0634 392.463 34.3558C392.463 38.0803 391.213 41.2299 388.71 43.8044C386.207 46.3827 383.204 47.6681 379.702 47.6681H379.705ZM381.157 44.2769C382.793 44.2769 383.983 43.647 384.737 42.3835C385.487 41.12 385.862 39.5745 385.862 37.7471C385.862 34.9564 385.244 32.4551 384.009 30.2431C382.774 28.0311 381.157 26.9287 379.154 26.9287C377.485 26.9287 376.258 27.5769 375.475 28.8734C374.692 30.1698 374.299 31.7666 374.299 33.66C374.299 36.4213 374.931 38.8787 376.199 41.0394C377.467 43.2002 379.117 44.2805 381.153 44.2805L381.157 44.2769Z" fill="#EC6342"/>
<path d="M417.235 34.2569H407.679C406.646 34.2569 406.245 33.843 406.477 33.0117L406.727 32.1657C406.958 31.3673 407.476 30.9681 408.278 30.9681H417.885C418.885 30.9681 419.271 31.4003 419.036 32.2646L418.837 33.063C418.602 33.8613 418.069 34.2605 417.235 34.2605V34.2569Z" fill="#EC6342"/>
<path d="M459.369 18.0989L455.616 21.5378L464.224 40.2373C464.658 41.1675 465.143 41.9329 465.676 42.5299C466.209 43.1268 466.676 43.526 467.076 43.7274C467.477 43.9289 467.811 44.1852 468.076 44.5002C468.344 44.8151 468.477 45.2216 468.477 45.7234C468.477 46.2544 468.286 46.6206 467.9 46.8221C467.517 47.0198 466.856 47.1224 465.922 47.1224H458.266C457.267 47.1224 456.546 47.0162 456.116 46.8001C455.683 46.584 455.466 46.2105 455.466 45.6794C455.466 45.2473 455.683 44.7822 456.116 44.2841C456.55 43.786 456.866 43.3283 457.068 42.9144C457.267 42.5006 457.186 41.7278 456.818 40.5962L450.464 26.3353L443.157 33.1179V38.8017C443.157 40.1311 443.322 41.2041 443.657 42.0172C443.991 42.8339 444.348 43.3539 444.734 43.5883C445.116 43.8227 445.476 44.112 445.811 44.4599C446.145 44.8078 446.31 45.2326 446.31 45.7307C446.31 46.2617 446.112 46.628 445.711 46.8294C445.311 47.0308 444.594 47.1297 443.561 47.1297H435.604C434.604 47.1297 433.884 47.0308 433.454 46.8294C433.02 46.6316 432.803 46.2654 432.803 45.7307C432.803 45.2326 432.98 44.8078 433.329 44.4599C433.678 44.112 434.053 43.819 434.453 43.5883C434.854 43.3576 435.229 42.8339 435.578 42.0172C435.927 41.2041 436.104 40.1311 436.104 38.8017V20.5526C436.104 19.2232 435.935 18.1502 435.604 17.3371C435.269 16.5241 434.902 16.0004 434.501 15.766C434.101 15.5353 433.733 15.2423 433.399 14.8944C433.064 14.5465 432.899 14.1217 432.899 13.6236C432.899 13.0926 433.097 12.7263 433.498 12.5249C433.899 12.3235 434.63 12.2246 435.699 12.2246H443.657C444.656 12.2246 445.366 12.3235 445.785 12.5249C446.2 12.7227 446.41 13.0889 446.41 13.6236C446.41 14.1217 446.241 14.5465 445.91 14.8944C445.575 15.2423 445.2 15.5353 444.785 15.766C444.366 16.0004 443.991 16.5241 443.66 17.3371C443.326 18.1538 443.161 19.2232 443.161 20.5526V28.6792L454.569 18.1099C455.234 17.48 455.602 16.9453 455.672 16.5131C455.738 16.081 455.613 15.7587 455.297 15.539C454.981 15.3229 454.653 15.0482 454.319 14.715C453.985 14.3817 453.819 14.0155 453.819 13.6163C453.819 12.6861 454.503 12.2209 455.87 12.2209H462.276C464.143 12.2209 465.077 12.6861 465.077 13.6163C465.077 14.2498 464.878 14.682 464.478 14.9127C464.077 15.1471 463.368 15.5097 462.35 16.0114C461.332 16.5095 460.339 17.209 459.373 18.1062L459.369 18.0989Z" fill="#EC6342"/>
<path d="M499.104 9.57318L496.2 14.6088C498.369 16.103 500.045 18.0733 501.228 20.516C502.412 22.9588 503.003 25.6762 503.003 28.6683C503.003 34.0884 501.25 38.6003 497.748 42.2077C494.245 45.815 489.79 47.6168 484.388 47.6168C482.054 47.6168 479.848 47.1993 477.783 46.3717L475.081 51.0081C474.813 51.4732 474.504 51.7149 474.155 51.7296C473.806 51.7442 473.413 51.605 472.979 51.3047C472.145 50.8067 471.946 50.1584 472.38 49.3601L474.982 44.9214C472.748 43.4602 471.005 41.5228 469.752 39.113C468.502 36.7033 467.874 34.0005 467.874 31.0121C467.874 25.6286 469.649 21.0654 473.203 17.3262C476.757 13.587 481.186 11.7156 486.49 11.7156C488.96 11.7156 491.275 12.1661 493.447 13.0633L496.399 7.92882C496.866 7.16341 497.531 7.03157 498.402 7.52964C498.902 7.8629 499.203 8.15222 499.302 8.40126C499.402 8.65029 499.335 9.04215 499.104 9.57318ZM474.784 26.4782C474.784 31.3307 476 35.4691 478.437 38.8933L490.595 17.9012C488.728 16.1396 486.574 15.257 484.141 15.257C481.172 15.257 478.871 16.3447 477.235 18.5238C475.6 20.7028 474.784 23.3543 474.784 26.4782ZM486.993 43.6799C490.029 43.6799 492.304 42.6325 493.822 40.5377C495.34 38.4428 496.101 35.7511 496.101 32.4587C496.101 27.9065 494.984 23.9146 492.749 20.4904L480.69 41.3324C482.59 42.8962 484.693 43.6762 486.997 43.6762L486.993 43.6799Z" fill="#EC6342"/>
<path d="M509.41 12.2173H521.369C524.707 12.2173 527.665 12.7007 530.253 13.6639C532.837 14.6271 534.88 15.9235 536.383 17.5532C537.883 19.1829 539.019 20.9701 539.787 22.9148C540.555 24.8594 540.937 26.914 540.937 29.071C540.937 34.2239 539.327 38.5197 536.108 41.9622C532.888 45.4011 528.375 47.1224 522.571 47.1224H509.41C508.377 47.1224 507.649 47.0235 507.234 46.8221C506.815 46.6243 506.609 46.2581 506.609 45.7234C506.609 45.1594 506.785 44.7199 507.134 44.4013C507.484 44.0863 507.859 43.8373 508.259 43.6542C508.66 43.4711 509.035 42.9547 509.384 42.1087C509.733 41.2627 509.909 40.1055 509.909 38.6442V20.6918C509.909 19.2305 509.733 18.0733 509.384 17.2273C509.035 16.3813 508.66 15.8649 508.259 15.6818C507.859 15.4987 507.484 15.2496 507.134 14.9347C506.785 14.6197 506.609 14.1803 506.609 13.6126C506.609 13.0816 506.818 12.7154 507.234 12.5139C507.649 12.3162 508.377 12.2136 509.41 12.2136V12.2173ZM522.02 44.1779C525.989 44.1779 528.9 43.0719 530.753 40.8636C532.605 38.6515 533.531 35.6705 533.531 31.913C533.531 27.0934 532.263 23.0869 529.727 19.8971C527.191 16.7072 523.905 15.1105 519.87 15.1105C518.734 15.1105 517.97 15.2533 517.569 15.5353C517.168 15.8173 516.97 16.4069 516.97 17.3042V41.1382C516.97 42.2039 517.304 42.9767 517.97 43.4564C518.635 43.9399 519.987 44.1779 522.023 44.1779H522.02Z" fill="#EC6342"/>
<path d="M565.559 26.2291C568.359 26.8261 570.52 27.965 572.038 29.646C573.556 31.3233 574.317 33.3596 574.317 35.7547C574.317 39.2448 572.983 42.0135 570.315 44.057C567.646 46.1006 563.894 47.1224 559.057 47.1224H547.347C546.314 47.1224 545.587 47.0235 545.171 46.8221C544.752 46.6243 544.546 46.2581 544.546 45.7234C544.546 45.1594 544.723 44.7199 545.072 44.4013C545.421 44.0863 545.796 43.8373 546.197 43.6542C546.597 43.4711 546.972 42.9547 547.321 42.1087C547.67 41.2627 547.847 40.1055 547.847 38.6442V20.6918C547.847 19.2305 547.67 18.0733 547.321 17.2273C546.972 16.3813 546.597 15.8649 546.197 15.6818C545.796 15.4987 545.421 15.2496 545.072 14.9347C544.723 14.6197 544.546 14.1803 544.546 13.6126C544.546 13.0816 544.756 12.7154 545.171 12.5139C545.587 12.3162 546.314 12.2136 547.347 12.2136H557.557C566.066 12.2136 570.333 14.7406 570.37 19.7945C570.436 22.9514 568.833 25.0975 565.566 26.2255L565.559 26.2291ZM554.9 16.9563V23.8889C554.9 24.2222 555.032 24.4786 555.301 24.6617C555.569 24.8448 555.834 24.9437 556.102 24.962C556.37 24.9803 556.752 24.9876 557.252 24.9876H557.502C561.439 24.9876 563.409 23.574 563.409 20.7504C563.409 19.2232 562.817 17.9414 561.633 16.9123C560.45 15.8832 558.906 15.3668 557.006 15.3668C555.606 15.3668 554.904 15.8979 554.904 16.9636L554.9 16.9563ZM558.954 43.9801C561.556 43.9801 563.489 43.4162 564.757 42.2845C566.025 41.1565 566.658 39.4096 566.658 37.0475C566.658 34.5205 565.798 32.4257 564.081 30.763C562.361 29.1003 560.001 28.269 556.999 28.269C556.131 28.269 555.565 28.3862 555.297 28.6169C555.029 28.8513 554.896 29.2835 554.896 29.9134V40.4827C554.896 41.7791 555.165 42.6837 555.698 43.2001C556.231 43.7165 557.315 43.9728 558.95 43.9728L558.954 43.9801Z" fill="#EC6342"/>
<path d="M602.787 12.2649H607.69C609.425 12.2649 610.292 12.6824 610.292 13.5101C610.292 13.9093 610.123 14.2498 609.792 14.5318C609.458 14.8138 609.057 15.0555 608.59 15.2533C608.123 15.4511 607.565 15.81 606.914 16.3264C606.264 16.8427 605.687 17.4983 605.187 18.2967L596.73 31.6603V38.7907C596.73 40.1201 596.895 41.1932 597.23 42.0062C597.564 42.8229 597.921 43.3429 598.307 43.5773C598.689 43.8117 599.049 44.101 599.383 44.4489C599.718 44.7968 599.883 45.2216 599.883 45.7197C599.883 46.2507 599.685 46.617 599.284 46.8184C598.884 47.0162 598.167 47.1187 597.134 47.1187H589.177C588.177 47.1187 587.457 47.0198 587.027 46.8184C586.593 46.6206 586.376 46.2544 586.376 45.7197C586.376 45.2216 586.553 44.7968 586.902 44.4489C587.251 44.101 587.626 43.808 588.026 43.5773C588.427 43.3466 588.802 42.8229 589.151 42.0062C589.5 41.1932 589.677 40.1201 589.677 38.7907V31.6603L580.569 18.2967C580.003 17.4983 579.408 16.8354 578.794 16.3007C578.176 15.7697 577.677 15.4108 577.294 15.2277C576.912 15.0446 576.585 14.8212 576.317 14.5538C576.048 14.2865 575.916 13.9386 575.916 13.5064C575.916 12.6421 576.717 12.21 578.32 12.21H587.626C589.158 12.21 589.927 12.6421 589.927 13.5064C589.927 13.8726 589.783 14.2132 589.5 14.5282C589.217 14.8431 588.949 15.1032 588.699 15.3009C588.449 15.4987 588.331 15.8576 588.35 16.374C588.365 16.8903 588.64 17.5459 589.177 18.3443L595.381 27.8185L601.085 18.3443C601.585 17.48 601.861 16.7915 601.912 16.2751C601.964 15.7587 601.868 15.4108 601.636 15.2277C601.401 15.0446 601.162 14.8138 600.912 14.5282C600.662 14.2462 600.538 13.9239 600.538 13.5577C600.538 12.6934 601.287 12.2612 602.79 12.2612L602.787 12.2649Z" fill="#EC6342"/>
<path d="M638.968 36.6995C639.468 36.7984 639.776 37.0145 639.894 37.3478C640.012 37.681 640.052 38.2304 640.019 38.9921C639.92 41.585 639.67 43.5956 639.269 45.0239C639.071 45.8223 638.685 46.3716 638.119 46.6682C637.553 46.9686 636.535 47.1187 635.068 47.1187H614.901C613.868 47.1187 613.141 47.0198 612.725 46.8184C612.306 46.6206 612.101 46.2544 612.101 45.7197C612.101 45.1557 612.277 44.7163 612.626 44.3976C612.975 44.0827 613.35 43.8337 613.751 43.6505C614.151 43.4674 614.526 42.951 614.876 42.1051C615.225 41.2591 615.401 40.1018 615.401 38.6406V20.6881C615.401 19.2269 615.225 18.0696 614.876 17.2236C614.526 16.3776 614.151 15.8612 613.751 15.6781C613.35 15.495 612.975 15.246 612.626 14.931C612.277 14.6161 612.101 14.1766 612.101 13.6089C612.101 13.0779 612.31 12.7117 612.725 12.5103C613.141 12.3125 613.868 12.21 614.901 12.21H634.068C635.436 12.21 636.413 12.3418 636.994 12.6091C637.578 12.8765 637.986 13.3233 638.222 13.9569C638.924 15.4877 639.423 17.198 639.721 19.0914C639.989 20.5196 639.736 21.3363 638.971 21.5341C638.17 21.8014 637.387 21.318 636.619 20.0875C635.619 18.4578 634.543 17.2639 633.392 16.4985C632.242 15.7331 630.863 15.3522 629.265 15.3522H626.912C625.112 15.3522 623.917 15.528 623.336 15.8759C622.752 16.2238 622.462 16.8171 622.462 17.6448V24.5774C622.462 25.5736 622.737 26.2328 623.288 26.5477C623.84 26.8627 624.748 27.0202 626.016 27.0202H627.416C628.151 27.0202 628.743 26.8224 629.191 26.4232C629.64 26.024 629.941 25.5772 630.092 25.0755C630.242 24.5774 630.459 24.127 630.742 23.7278C631.025 23.3286 631.385 23.1308 631.819 23.1308C632.352 23.1308 632.72 23.3286 632.922 23.7278C633.12 24.127 633.223 24.8082 633.223 25.7713V31.6053C633.223 33.235 632.756 34.0481 631.823 34.0481C631.389 34.0481 631.029 33.8393 630.746 33.4255C630.463 33.0116 630.246 32.5612 630.095 32.0778C629.945 31.598 629.647 31.1476 629.195 30.7301C628.743 30.3162 628.151 30.1075 627.42 30.1075H626.019C624.718 30.1075 623.799 30.2649 623.266 30.5799C622.733 30.8949 622.465 31.5541 622.465 32.5502V41.6253C622.465 42.4896 622.774 43.0975 623.391 43.4454C624.009 43.7934 625.284 43.9692 627.221 43.9692L630.525 43.9179C632.128 43.9179 633.326 43.526 634.127 42.746C634.928 41.9659 635.796 40.5779 636.729 38.582C637.431 37.1207 638.181 36.4871 638.982 36.6886L638.968 36.6995Z" fill="#EC6342"/>
<path d="M671.543 12.2649H675.997C676.865 12.2649 677.475 12.3565 677.824 12.5396C678.173 12.7227 678.35 13.0633 678.35 13.5613C678.35 13.9935 678.125 14.3853 677.673 14.7333C677.221 15.0812 676.773 15.55 676.321 16.1286C675.869 16.7109 675.644 17.4836 675.644 18.4468V44.925C675.644 45.5586 675.501 46.0786 675.218 46.4961C674.935 46.9136 674.593 47.1187 674.193 47.1187H673.641C672.972 47.1187 672.256 46.6866 671.491 45.8223L649.972 21.4901L650.071 40.8855C650.071 41.6509 650.211 42.2992 650.497 42.8302C650.78 43.3612 651.089 43.7458 651.424 43.9765C651.758 44.2109 652.067 44.4819 652.35 44.8005C652.633 45.1154 652.776 45.456 652.776 45.8223C652.776 46.3203 652.6 46.6536 652.251 46.8184C651.901 46.9869 651.306 47.0674 650.475 47.0674H646.072C645.205 47.0674 644.595 46.9759 644.246 46.7928C643.896 46.6096 643.72 46.2691 643.72 45.771C643.72 45.3388 643.944 44.947 644.396 44.5991C644.845 44.2511 645.297 43.786 645.749 43.2037C646.201 42.6214 646.425 41.8487 646.425 40.8855V20.6918C646.425 19.2305 646.249 18.0733 645.899 17.2273C645.55 16.3813 645.175 15.8649 644.775 15.6818C644.374 15.4987 643.999 15.2496 643.65 14.9347C643.301 14.6197 643.125 14.1803 643.125 13.6126C643.125 13.0816 643.334 12.7154 643.749 12.5139C644.165 12.3162 644.892 12.2136 645.925 12.2136H649.928C650.828 12.2136 651.629 12.6128 652.331 13.4112L671.998 35.8499V18.4468C671.998 17.6814 671.848 17.0332 671.546 16.5021C671.245 15.9711 670.929 15.5866 670.594 15.3559C670.26 15.1251 669.951 14.8505 669.668 14.5318C669.385 14.2169 669.242 13.8763 669.242 13.5101C669.242 13.012 669.418 12.6787 669.767 12.5139C670.117 12.3491 670.708 12.2649 671.543 12.2649Z" fill="#EC6342"/>
<path d="M754.519 26.2291C757.32 26.8261 759.481 27.965 760.999 29.646C762.517 31.3233 763.278 33.3596 763.278 35.7547C763.278 39.2448 761.944 42.0135 759.275 44.057C756.607 46.1006 752.854 47.1224 748.018 47.1224H736.304C735.271 47.1224 734.544 47.0235 734.128 46.8221C733.709 46.6243 733.503 46.2581 733.503 45.7234C733.503 45.1594 733.68 44.7199 734.029 44.4013C734.378 44.0863 734.753 43.8373 735.154 43.6542C735.554 43.4711 735.929 42.9547 736.278 42.1087C736.628 41.2627 736.804 40.1055 736.804 38.6442V20.6918C736.804 19.2305 736.628 18.0733 736.278 17.2273C735.929 16.3813 735.554 15.8649 735.154 15.6818C734.753 15.4987 734.378 15.2496 734.029 14.9347C733.68 14.6197 733.503 14.1803 733.503 13.6126C733.503 13.0816 733.713 12.7154 734.128 12.5139C734.544 12.3162 735.271 12.2136 736.304 12.2136H746.514C755.023 12.2136 759.29 14.7406 759.323 19.7945C759.389 22.9514 757.787 25.0975 754.519 26.2255V26.2291ZM743.861 16.9563V23.8889C743.861 24.2222 743.993 24.4786 744.261 24.6617C744.53 24.8448 744.794 24.9437 745.063 24.962C745.331 24.9803 745.713 24.9876 746.213 24.9876H746.463C750.399 24.9876 752.369 23.574 752.369 20.7504C752.369 19.2232 751.777 17.9414 750.594 16.9123C749.411 15.8832 747.867 15.3668 745.967 15.3668C744.566 15.3668 743.864 15.8979 743.864 16.9636L743.861 16.9563ZM747.915 43.9801C750.517 43.9801 752.45 43.4162 753.718 42.2845C754.986 41.1565 755.618 39.4096 755.618 37.0475C755.618 34.5205 754.758 32.4257 753.042 30.763C751.322 29.1003 748.962 28.269 745.959 28.269C745.092 28.269 744.526 28.3862 744.258 28.6169C743.989 28.8513 743.857 29.2835 743.857 29.9134V40.4827C743.857 41.7791 744.125 42.6837 744.658 43.2001C745.191 43.7165 746.275 43.9728 747.911 43.9728L747.915 43.9801Z" fill="#EC6342"/>
<path d="M792.902 36.6995C793.401 36.7984 793.71 37.0145 793.828 37.3478C793.945 37.681 793.986 38.2304 793.953 38.9921C793.854 41.585 793.604 43.5956 793.203 45.0239C793.005 45.8223 792.619 46.3716 792.053 46.6682C791.487 46.9686 790.468 47.1187 788.998 47.1187H768.831C767.799 47.1187 767.071 47.0198 766.656 46.8184C766.237 46.6206 766.031 46.2544 766.031 45.7197C766.031 45.1557 766.207 44.7163 766.556 44.3976C766.906 44.0827 767.28 43.8337 767.681 43.6505C768.082 43.4674 768.457 42.951 768.806 42.1051C769.155 41.2591 769.331 40.1018 769.331 38.6406V20.6881C769.331 19.2269 769.155 18.0696 768.806 17.2236C768.457 16.3776 768.082 15.8612 767.681 15.6781C767.28 15.495 766.906 15.246 766.556 14.931C766.207 14.6161 766.031 14.1766 766.031 13.6089C766.031 13.0779 766.24 12.7117 766.656 12.5103C767.071 12.3125 767.799 12.21 768.831 12.21H787.999C789.366 12.21 790.344 12.3418 790.928 12.6091C791.512 12.8765 791.92 13.3233 792.155 13.9569C792.857 15.4877 793.357 17.198 793.655 19.0914C793.923 20.5196 793.67 21.3363 792.905 21.5341C792.104 21.8014 791.321 21.318 790.553 20.0875C789.553 18.4578 788.476 17.2639 787.326 16.4985C786.176 15.7331 784.797 15.3522 783.199 15.3522H780.846C779.045 15.3522 777.851 15.528 777.27 15.8759C776.686 16.2238 776.395 16.8171 776.395 17.6448V24.5774C776.395 25.5736 776.671 26.2328 777.222 26.5477C777.774 26.8627 778.681 27.0202 779.949 27.0202H781.35C782.085 27.0202 782.677 26.8224 783.125 26.4232C783.577 26.024 783.875 25.5772 784.026 25.0755C784.176 24.5774 784.393 24.127 784.676 23.7278C784.959 23.3286 785.319 23.1308 785.753 23.1308C786.286 23.1308 786.653 23.3286 786.856 23.7278C787.054 24.127 787.157 24.8082 787.157 25.7713V31.6053C787.157 33.235 786.69 34.0481 785.757 34.0481C785.323 34.0481 784.963 33.8393 784.68 33.4255C784.397 33.0116 784.18 32.5612 784.029 32.0778C783.878 31.598 783.577 31.1476 783.129 30.7301C782.677 30.3162 782.085 30.1075 781.353 30.1075H779.953C778.652 30.1075 777.733 30.2649 777.2 30.5799C776.667 30.8949 776.399 31.5541 776.399 32.5502V41.6253C776.399 42.4896 776.708 43.0975 777.325 43.4454C777.943 43.7934 779.218 43.9692 781.155 43.9692L784.459 43.9179C786.062 43.9179 787.26 43.526 788.061 42.746C788.862 41.9659 789.73 40.5779 790.663 38.582C791.365 37.1207 792.115 36.4871 792.916 36.6886L792.902 36.6995Z" fill="#EC6342"/>
<path d="M811.165 47.5692C809.731 47.5692 808.213 47.419 806.611 47.1187C805.008 46.8184 804.093 46.6683 803.858 46.6683C803.325 46.6683 802.825 46.8257 802.358 47.1407C801.892 47.4557 801.509 47.6131 801.208 47.6131C800.241 47.6131 799.606 46.6976 799.308 44.8701C798.775 41.6143 798.44 39.1863 798.308 37.5895C798.242 36.1283 798.624 35.3958 799.458 35.3958C799.892 35.3958 800.241 35.5386 800.51 35.8206C800.778 36.1026 801.16 36.6593 801.66 37.4906C804.027 42.0465 807.383 44.3208 811.72 44.3208C813.454 44.3208 814.763 43.8813 815.649 42.9987C816.531 42.1197 817.009 41.0284 817.075 39.7319C817.108 38.7358 816.751 37.8056 815.998 36.9413C815.248 36.077 814.381 35.3555 813.396 34.7732C812.411 34.1909 811.187 33.5171 809.717 32.7553C809.283 32.5575 808.967 32.4074 808.765 32.3048C805.361 30.5763 803.127 29.2798 802.061 28.4155C799.925 26.654 798.859 24.409 798.859 21.6843C798.859 18.9595 800.036 16.5827 802.388 14.6527C804.74 12.7264 807.732 11.7595 811.37 11.7595C812.304 11.7595 813.414 11.8767 814.697 12.1074C815.979 12.3418 816.755 12.4554 817.023 12.4554C817.457 12.4554 817.916 12.3382 818.398 12.1074C818.879 11.8767 819.273 11.7595 819.574 11.7595C820.041 11.7595 820.423 11.9426 820.724 12.3089C821.026 12.6751 821.276 13.3746 821.474 14.4037C821.974 16.5974 822.308 18.5933 822.474 20.3878C822.573 21.8527 822.158 22.5815 821.224 22.5815C820.588 22.5815 819.806 21.882 818.872 20.4867C816.369 16.7658 813.616 14.9017 810.617 14.9017C809.048 14.9017 807.831 15.2936 806.964 16.0737C806.096 16.8537 805.663 17.8938 805.663 19.1903C805.663 20.6552 806.247 21.8674 807.416 22.8306C808.585 23.7937 810.683 25.0426 813.723 26.5697C813.991 26.7016 814.388 26.903 814.925 27.1667C816.292 27.8332 817.303 28.3386 817.953 28.6865C818.604 29.0344 819.412 29.5435 820.379 30.2064C821.345 30.8729 822.055 31.4882 822.507 32.0522C822.959 32.6161 823.367 33.3339 823.735 34.1946C824.102 35.0589 824.286 35.9891 824.286 36.9852C824.319 40.1751 823.036 42.735 820.434 44.665C817.832 46.595 814.744 47.5582 811.176 47.5582L811.165 47.5692Z" fill="#EC6342"/>
<path d="M859.753 9.57318L856.85 14.6088C859.018 16.103 860.694 18.0733 861.878 20.516C863.061 22.9588 863.653 25.6762 863.653 28.6683C863.653 34.0884 861.9 38.6003 858.397 42.2077C854.894 45.815 850.44 47.6168 845.037 47.6168C842.703 47.6168 840.498 47.1993 838.432 46.3717L835.731 51.0081C835.463 51.4732 835.154 51.7149 834.805 51.7296C834.456 51.7442 834.062 51.605 833.629 51.3047C832.794 50.8067 832.596 50.1584 833.029 49.3601L835.632 44.9214C833.397 43.4602 831.655 41.5228 830.402 39.113C829.152 36.7033 828.523 34.0005 828.523 31.0121C828.523 25.6286 830.299 21.0654 833.853 17.3262C837.407 13.587 841.836 11.7156 847.139 11.7156C849.609 11.7156 851.925 12.1661 854.097 13.0633L857.048 7.92882C857.515 7.16341 858.18 7.03157 859.051 7.52964C859.551 7.8629 859.853 8.15222 859.952 8.40126C860.051 8.65029 859.985 9.04215 859.753 9.57318ZM835.433 26.4782C835.433 31.3307 836.65 35.4691 839.087 38.8933L851.245 17.9012C849.378 16.1396 847.224 15.257 844.791 15.257C841.821 15.257 839.52 16.3447 837.885 18.5238C836.249 20.7028 835.433 23.3543 835.433 26.4782ZM847.643 43.6799C850.679 43.6799 852.954 42.6325 854.472 40.5377C855.99 38.4428 856.75 35.7511 856.75 32.4587C856.75 27.9065 855.633 23.9146 853.399 20.4904L841.34 41.3324C843.24 42.8962 845.342 43.6762 847.647 43.6762L847.643 43.6799Z" fill="#EC6342"/>
<path d="M885.378 47.6168C880.141 47.6498 875.896 46.064 872.643 42.8558C869.39 39.6477 867.766 35.4837 867.766 30.3639C867.766 25.244 869.482 20.7321 872.919 17.1247C876.355 13.5174 880.626 11.7156 885.731 11.7156C887.231 11.7156 888.726 11.8584 890.211 12.1404C891.696 12.4224 892.519 12.5652 892.688 12.5652C893.122 12.5652 893.582 12.4334 894.063 12.166C894.548 11.8987 894.989 11.7668 895.39 11.7668C896.39 11.7668 897.073 12.6495 897.441 14.411C897.874 16.2385 898.29 18.5494 898.69 21.3437C898.889 22.739 898.474 23.4861 897.441 23.5887C897.106 23.6216 896.79 23.5484 896.489 23.3653C896.187 23.1821 895.938 22.9661 895.739 22.717C895.541 22.468 895.221 22.0285 894.787 21.395C894.019 20.3329 893.413 19.5345 892.96 18.9998C892.508 18.4688 891.869 17.8352 891.035 17.1064C890.2 16.374 889.285 15.843 888.282 15.5097C887.282 15.1764 886.146 15.0116 884.878 15.0116C881.809 15.0116 879.391 16.1689 877.623 18.4761C875.855 20.787 874.969 23.6692 874.969 27.1264C874.969 32.0815 876.054 36.1173 878.222 39.2412C880.391 42.3651 883.327 43.9289 887.028 43.9289C888.495 43.9289 889.855 43.6213 891.108 43.006C892.358 42.3907 892.986 41.5521 892.986 40.4864V36.7472C892.986 35.6485 892.718 34.7769 892.185 34.1287C891.652 33.4804 891.075 33.0739 890.458 32.9055C889.84 32.7407 889.263 32.499 888.73 32.184C888.197 31.869 887.929 31.4625 887.929 30.9608C887.896 30.4298 888.08 30.0635 888.48 29.8621C888.881 29.6607 889.612 29.5618 890.682 29.5618L899.69 29.4629C901.19 29.4629 901.958 29.928 901.991 30.8583C901.991 31.2574 901.892 31.6163 901.69 31.9313C901.491 32.2463 901.271 32.5136 901.039 32.7297C900.804 32.9458 900.587 33.3962 900.388 34.0774C900.19 34.7586 900.087 35.6302 900.087 36.6959V40.1348C900.087 41.9623 898.635 43.6579 895.732 45.2217C892.828 46.7855 889.377 47.5802 885.374 47.6168H885.378Z" fill="#EC6342"/>
<path d="M933.015 47.6168C928.244 47.6168 924.301 46.064 921.18 42.9547C918.06 39.8455 916.501 35.8682 916.501 31.0121C916.501 25.6285 918.277 21.0653 921.831 17.3262C925.385 13.587 929.814 11.7156 935.117 11.7156C940.053 11.7156 944.041 13.3197 947.077 16.5278C950.113 19.7359 951.631 23.7828 951.631 28.6682C951.631 34.0884 949.878 38.6003 946.375 42.2076C942.872 45.815 938.418 47.6168 933.015 47.6168ZM935.617 43.6762C938.653 43.6762 940.928 42.6288 942.446 40.534C943.964 38.4392 944.725 35.7474 944.725 32.455C944.725 29.5948 944.258 26.87 943.325 24.2772C942.391 21.6843 940.991 19.5309 939.12 17.8206C937.253 16.1103 935.132 15.2533 932.765 15.2533C929.795 15.2533 927.495 16.341 925.859 18.5201C924.223 20.6991 923.408 23.3506 923.408 26.4745C923.408 31.0304 924.54 35.0332 926.811 38.4904C929.079 41.9476 932.015 43.6762 935.617 43.6762Z" fill="#EC6342"/>
<path d="M969.196 47.5692C967.762 47.5692 966.245 47.419 964.642 47.1187C963.04 46.8184 962.124 46.6683 961.889 46.6683C961.356 46.6683 960.853 46.8257 960.39 47.1407C959.923 47.4557 959.541 47.6131 959.239 47.6131C958.273 47.6131 957.637 46.6976 957.339 44.8701C956.806 41.6143 956.472 39.1863 956.339 37.5895C956.273 36.1283 956.655 35.3958 957.49 35.3958C957.923 35.3958 958.273 35.5386 958.541 35.8206C958.809 36.1026 959.191 36.6593 959.691 37.4906C962.058 42.0465 965.414 44.3208 969.751 44.3208C971.486 44.3208 972.794 43.8813 973.68 42.9987C974.562 42.1197 975.04 41.0284 975.106 39.7319C975.139 38.7358 974.779 37.8056 974.029 36.9413C973.279 36.077 972.412 35.3555 971.427 34.7732C970.442 34.1909 969.218 33.5171 967.748 32.7553C967.314 32.5575 966.998 32.4074 966.796 32.3048C963.392 30.5763 961.158 29.2798 960.088 28.4155C957.953 26.654 956.887 24.409 956.887 21.6843C956.887 18.9595 958.063 16.5827 960.415 14.6527C962.768 12.7264 965.759 11.7595 969.398 11.7595C970.332 11.7595 971.442 11.8767 972.724 12.1074C974.007 12.3418 974.782 12.4554 975.051 12.4554C975.484 12.4554 975.944 12.3382 976.425 12.1074C976.911 11.8767 977.3 11.7595 977.602 11.7595C978.068 11.7595 978.451 11.9426 978.752 12.3089C979.053 12.6751 979.303 13.3746 979.502 14.4037C980.002 16.5974 980.336 18.5933 980.501 20.3878C980.601 21.8527 980.185 22.5815 979.252 22.5815C978.62 22.5815 977.833 21.882 976.9 20.4867C974.397 16.7658 971.644 14.9017 968.641 14.9017C967.072 14.9017 965.855 15.2936 964.988 16.0737C964.12 16.8537 963.686 17.8938 963.686 19.1903C963.686 20.6552 964.271 21.8674 965.436 22.8306C966.605 23.7937 968.703 25.0426 971.743 26.5697C972.011 26.7016 972.412 26.903 972.945 27.1667C974.312 27.8332 975.323 28.3386 975.973 28.6865C976.624 29.0344 977.432 29.5435 978.399 30.2064C979.366 30.8729 980.075 31.4882 980.527 32.0522C980.976 32.6161 981.387 33.3339 981.755 34.1946C982.122 35.0589 982.306 35.9891 982.306 36.9852C982.339 40.1751 981.056 42.735 978.454 44.665C975.852 46.595 972.765 47.5582 969.196 47.5582V47.5692Z" fill="#EC6342"/>
<path d="M999.371 38.7944V20.5453C999.371 19.2159 999.201 18.1428 998.871 17.3298C998.536 16.5168 998.169 15.9931 997.768 15.7587C997.367 15.528 997 15.235 996.665 14.8871C996.331 14.5392 996.166 14.1143 996.166 13.6163C996.166 13.0852 996.364 12.719 996.765 12.5176C997.165 12.3162 997.897 12.2173 998.966 12.2173H1006.92C1007.92 12.2173 1008.63 12.3162 1009.05 12.5176C1009.47 12.7154 1009.68 13.0816 1009.68 13.6163C1009.68 14.1143 1009.51 14.5392 1009.18 14.8871C1008.84 15.235 1008.47 15.528 1008.05 15.7587C1007.63 15.9931 1007.26 16.5168 1006.93 17.3298C1006.59 18.1465 1006.43 19.2159 1006.43 20.5453V38.7944C1006.43 40.1238 1006.59 41.1968 1006.93 42.0098C1007.26 42.8265 1007.62 43.3466 1008 43.581C1008.39 43.8153 1008.75 44.1047 1009.08 44.4526C1009.42 44.8005 1009.58 45.2253 1009.58 45.7234C1009.58 46.2544 1009.38 46.6206 1008.98 46.8221C1008.58 47.0235 1007.86 47.1224 1006.83 47.1224H998.874C997.875 47.1224 997.154 47.0235 996.724 46.8221C996.291 46.6243 996.074 46.2581 996.074 45.7234C996.074 45.2253 996.25 44.8005 996.599 44.4526C996.948 44.1047 997.323 43.8117 997.724 43.581C998.125 43.3502 998.499 42.8265 998.849 42.0098C999.198 41.1968 999.374 40.1238 999.374 38.7944H999.371Z" fill="#EC6342"/>
<path d="M1025.49 12.2173H1036.2C1041.44 12.2173 1045.54 13.4075 1048.51 15.7807C1051.48 18.1575 1052.97 21.307 1052.97 25.2293C1052.97 29.1516 1051.67 31.7628 1049.09 33.6562C1046.5 35.5496 1042.69 36.4981 1037.65 36.4981H1034.05C1033.65 36.4981 1033.38 36.5567 1033.25 36.6739C1033.12 36.7911 1033.05 37.0658 1033.05 37.4979V38.7944C1033.05 40.1238 1033.22 41.1968 1033.55 42.0098C1033.89 42.8265 1034.24 43.3466 1034.63 43.581C1035.01 43.8153 1035.37 44.1047 1035.71 44.4526C1036.04 44.8005 1036.21 45.2253 1036.21 45.7234C1036.21 46.2544 1036.01 46.6206 1035.61 46.8221C1035.21 47.0235 1034.49 47.1224 1033.46 47.1224H1025.5C1024.5 47.1224 1023.78 47.0235 1023.35 46.8221C1022.92 46.6243 1022.7 46.2581 1022.7 45.7234C1022.7 45.2253 1022.87 44.8005 1023.22 44.4526C1023.57 44.1047 1023.95 43.8117 1024.35 43.581C1024.75 43.3502 1025.12 42.8265 1025.47 42.0098C1025.82 41.1968 1026 40.1238 1026 38.7944V20.6954C1026 19.2342 1025.82 18.0769 1025.47 17.2309C1025.12 16.3849 1024.75 15.8686 1024.35 15.6855C1023.95 15.5023 1023.57 15.2533 1023.22 14.9384C1022.87 14.6234 1022.7 14.1839 1022.7 13.6163C1022.7 13.0852 1022.91 12.719 1023.32 12.5176C1023.74 12.3198 1024.47 12.2173 1025.5 12.2173H1025.49ZM1037.3 33.4584C1039.97 33.4584 1042.05 32.8285 1043.53 31.5651C1045.02 30.3016 1045.76 28.4558 1045.76 26.0314C1045.76 22.739 1044.82 20.1058 1042.96 18.1282C1041.09 16.1506 1038.8 15.1617 1036.1 15.1617C1034.77 15.1617 1033.93 15.246 1033.57 15.4108C1033.22 15.5792 1033.05 15.9418 1033.05 16.5095V31.869C1033.05 32.466 1033.34 32.8835 1033.92 33.1142C1034.51 33.3486 1035.63 33.4621 1037.3 33.4621V33.4584Z" fill="#EC6342"/>
<path d="M1058.92 38.593L1058.02 40.7354C1057.59 42.0978 1057.47 42.9731 1057.67 43.3539C1057.87 43.7348 1058.2 44.1267 1058.64 44.5259C1059.1 44.925 1059.32 45.3425 1059.32 45.771C1059.32 46.6353 1058.55 47.0675 1057.02 47.0675H1052.56C1050.83 47.0675 1049.96 46.6536 1049.96 45.8223C1049.96 45.4231 1050.11 45.0752 1050.41 44.7749C1050.72 44.4746 1051.07 44.2182 1051.49 44.0022C1051.91 43.7861 1052.37 43.3979 1052.89 42.8302C1053.41 42.2662 1053.83 41.5667 1054.17 40.7354L1063.18 18.3956C1063.51 17.2676 1063.55 16.5242 1063.3 16.1762C1063.05 15.8283 1062.68 15.4218 1062.2 14.953C1061.71 14.4879 1061.47 14.0228 1061.47 13.5577C1061.47 12.6605 1062.01 12.21 1063.08 12.21H1068.73C1069.63 12.21 1070.25 12.6275 1070.59 13.4552L1081.34 40.5303C1081.71 41.4605 1082.13 42.2186 1082.59 42.7973C1083.06 43.3796 1083.47 43.7714 1083.82 43.9692C1084.17 44.167 1084.46 44.4013 1084.69 44.6687C1084.93 44.936 1085.04 45.2656 1085.04 45.6648C1085.04 46.1959 1084.85 46.5694 1084.44 46.7855C1084.04 47.0016 1083.36 47.1078 1082.39 47.1078H1074.34C1072.74 47.1078 1071.93 46.6427 1071.93 45.7124C1071.93 45.2144 1072.2 44.7639 1072.74 44.3647C1073.27 43.9655 1073.67 43.5737 1073.94 43.1928C1074.21 42.8119 1074.14 41.922 1073.74 40.5267L1072.99 38.7322C1072.72 38.0327 1072.4 37.6188 1072.04 37.487C1071.44 37.2892 1069.42 37.1867 1065.98 37.1867C1062.25 37.1867 1060.15 37.3039 1059.68 37.5346C1059.38 37.7031 1059.13 38.051 1058.93 38.582L1058.92 38.593ZM1066.02 34.0554C1068.93 34.0554 1070.49 33.9566 1070.73 33.7551C1070.86 33.5574 1070.83 33.2058 1070.63 32.7077L1065.98 20.7907L1061.32 32.5576C1061.05 33.2571 1061.04 33.6709 1061.27 33.8027C1061.61 33.9712 1063.19 34.0518 1066.02 34.0518V34.0554ZM1070.45 8.70155C1069.4 9.65008 1068.11 10.1225 1066.58 10.1225C1065.04 10.1225 1063.78 9.6574 1062.8 8.72719C1061.81 7.79697 1061.32 6.59941 1061.32 5.13816C1061.32 3.67692 1061.84 2.36949 1062.87 1.42462C1063.91 0.472433 1065.21 0 1066.78 0C1068.35 0 1069.53 0.457784 1070.53 1.36969C1071.53 2.28526 1072.03 3.49014 1072.03 4.98435C1072.03 6.47855 1071.5 7.75302 1070.45 8.69789V8.70155ZM1066.77 7.43074C1067.48 7.43074 1068.02 7.18903 1068.42 6.70928C1068.82 6.22952 1068.99 5.62158 1068.92 4.88913C1068.86 4.18964 1068.61 3.63297 1068.17 3.21913C1067.74 2.8053 1067.21 2.59655 1066.57 2.59655C1065.84 2.59655 1065.27 2.81995 1064.87 3.27041C1064.47 3.72087 1064.3 4.31049 1064.37 5.03928C1064.44 5.73877 1064.69 6.31009 1065.15 6.76055C1065.6 7.21101 1066.14 7.4344 1066.77 7.4344L1066.77 7.43074Z" fill="#EC6342"/>
<path d="M1124.77 19.0987C1125.04 20.527 1124.79 21.3437 1124.02 21.5414C1123.22 21.8088 1122.42 21.3253 1121.62 20.0948C1120.62 18.4651 1119.54 17.2712 1118.39 16.5058C1117.24 15.7404 1115.88 15.3595 1114.31 15.3595H1112.01C1110.21 15.3595 1109.02 15.528 1108.43 15.8576C1107.85 16.1908 1107.56 16.7731 1107.56 17.6045V25.3831C1107.56 26.3793 1107.83 27.0385 1108.36 27.3534C1108.89 27.6684 1109.81 27.8259 1111.11 27.8259H1113.37C1114.1 27.8259 1114.69 27.6281 1115.14 27.2289C1115.59 26.8297 1115.89 26.3903 1116.04 25.9068C1116.19 25.4271 1116.41 24.984 1116.69 24.5848C1116.98 24.1856 1117.34 23.9878 1117.77 23.9878C1118.3 23.9878 1118.67 24.1856 1118.87 24.5848C1119.07 24.984 1119.17 25.6651 1119.17 26.6283V32.4623C1119.17 34.092 1118.71 34.905 1117.77 34.905C1117.34 34.905 1116.98 34.6963 1116.7 34.2825C1116.41 33.8686 1116.2 33.4182 1116.05 32.9347C1115.9 32.455 1115.6 32.0045 1115.15 31.587C1114.69 31.1732 1114.1 30.9644 1113.37 30.9644H1111.12C1109.82 30.9644 1108.9 31.1146 1108.36 31.4149C1107.83 31.7152 1107.56 32.3781 1107.56 33.4108V38.7944C1107.56 40.1238 1107.73 41.1968 1108.06 42.0098C1108.4 42.8265 1108.75 43.3466 1109.14 43.581C1109.52 43.8153 1109.88 44.1047 1110.22 44.4526C1110.55 44.8005 1110.72 45.2253 1110.72 45.7234C1110.72 46.2544 1110.52 46.6206 1110.12 46.8221C1109.72 47.0235 1109 47.1224 1107.97 47.1224H1100.01C1099.01 47.1224 1098.29 47.0235 1097.86 46.8221C1097.43 46.6243 1097.21 46.2581 1097.21 45.7234C1097.21 45.2253 1097.39 44.8005 1097.74 44.4526C1098.08 44.1047 1098.46 43.8117 1098.86 43.581C1099.26 43.3502 1099.64 42.8265 1099.98 42.0098C1100.33 41.1968 1100.51 40.1238 1100.51 38.7944V20.6954C1100.51 19.2342 1100.33 18.0769 1099.98 17.2309C1099.64 16.3849 1099.26 15.8686 1098.86 15.6855C1098.46 15.5023 1098.08 15.2533 1097.74 14.9384C1097.39 14.6234 1097.21 14.1839 1097.21 13.6163C1097.21 13.0852 1097.42 12.719 1097.83 12.5176C1098.25 12.3198 1098.98 12.2173 1100.01 12.2173H1119.13C1120.49 12.2173 1121.47 12.3491 1122.05 12.6165C1122.64 12.8838 1123.04 13.3306 1123.28 13.9642C1124.01 15.7257 1124.51 17.4397 1124.78 19.0987H1124.77Z" fill="#EC6342"/>
<path d="M1151.75 36.6996C1152.25 36.7984 1152.55 37.0145 1152.67 37.3478C1152.79 37.681 1152.83 38.2304 1152.8 38.9921C1152.7 41.585 1152.45 43.5956 1152.05 45.0239C1151.85 45.8223 1151.46 46.3716 1150.9 46.6682C1150.33 46.9686 1149.31 47.1187 1147.84 47.1187H1129.63C1128.59 47.1187 1127.87 47.0198 1127.45 46.8184C1127.03 46.6206 1126.83 46.2544 1126.83 45.7197C1126.83 45.1557 1127 44.7163 1127.35 44.3976C1127.7 44.0827 1128.08 43.8337 1128.48 43.6505C1128.88 43.4674 1129.25 42.951 1129.6 42.1051C1129.95 41.2591 1130.13 40.1018 1130.13 38.6406V20.5416C1130.13 19.2122 1129.96 18.1392 1129.63 17.3262C1129.29 16.5131 1128.92 15.9894 1128.52 15.755C1128.12 15.5243 1127.76 15.2313 1127.42 14.8834C1127.09 14.5355 1126.92 14.1107 1126.92 13.6126C1126.92 13.0816 1127.12 12.7154 1127.52 12.5139C1127.92 12.3125 1128.65 12.2136 1129.72 12.2136H1137.68C1138.68 12.2136 1139.39 12.3125 1139.81 12.5139C1140.22 12.7117 1140.43 13.0779 1140.43 13.6126C1140.43 14.1107 1140.26 14.5355 1139.93 14.8834C1139.6 15.2313 1139.22 15.5243 1138.81 15.755C1138.39 15.9894 1138.01 16.5131 1137.68 17.3262C1137.35 18.1428 1137.18 19.2122 1137.18 20.5416V41.6839C1137.18 42.5152 1137.45 43.1049 1137.98 43.4528C1138.52 43.8007 1139.54 43.9765 1141.04 43.9765L1143.29 43.9252C1144.89 43.9252 1146.09 43.5333 1146.89 42.7533C1147.7 41.9732 1148.56 40.5852 1149.5 38.5893C1150.2 37.128 1150.95 36.4945 1151.75 36.6959L1151.75 36.6996Z" fill="#EC6342"/>
<path d="M1200.14 36.6995C1200.6 36.7984 1200.9 37.0255 1201.04 37.3734C1201.17 37.7213 1201.22 38.2633 1201.19 38.9921C1201.09 41.4532 1200.82 43.4638 1200.39 45.0239C1200.19 45.8223 1199.81 46.3716 1199.26 46.6682C1198.71 46.9686 1197.7 47.1187 1196.23 47.1187H1176.01C1175.01 47.1187 1174.3 47.0198 1173.89 46.8184C1173.47 46.6206 1173.26 46.2544 1173.26 45.7197C1173.26 45.2546 1173.37 44.8884 1173.59 44.621C1173.81 44.3537 1174.07 44.1303 1174.39 43.9472C1174.71 43.7641 1175.03 43.515 1175.37 43.2001C1175.7 42.8851 1175.98 42.3431 1176.19 41.5814C1176.41 40.8159 1176.52 39.8345 1176.52 38.6406V37.7946H1165.21L1162.51 42.0318C1162.07 42.8961 1161.94 43.4454 1162.11 43.6762C1162.27 43.9106 1162.57 44.2072 1162.98 44.5734C1163.4 44.9397 1163.61 45.3535 1163.61 45.8186C1163.61 46.6829 1162.86 47.115 1161.35 47.115H1156.9C1155.13 47.115 1154.24 46.6829 1154.24 45.8186C1154.24 45.2876 1154.46 44.8627 1154.9 44.5478C1155.33 44.2328 1155.89 43.8849 1156.57 43.5004C1157.25 43.1195 1157.78 42.6434 1158.15 42.0794L1173.86 17.7949C1174.66 16.5974 1174.56 15.6012 1173.56 14.8028C1172.76 14.2389 1172.36 13.7408 1172.36 13.3086C1172.36 12.5762 1172.88 12.21 1173.91 12.21H1195.23C1196.59 12.21 1197.57 12.3418 1198.15 12.6091C1198.74 12.8765 1199.14 13.3233 1199.38 13.9569C1200.11 15.7184 1200.61 17.4324 1200.88 19.0914C1201.14 20.5196 1200.89 21.3363 1200.13 21.5341C1199.33 21.8014 1198.53 21.318 1197.72 20.0875C1196.72 18.4578 1195.65 17.2639 1194.5 16.4985C1193.35 15.7331 1191.99 15.3522 1190.42 15.3522H1188.01C1186.25 15.3522 1185.07 15.528 1184.49 15.8759C1183.9 16.2238 1183.61 16.8171 1183.61 17.6448V24.5774C1183.61 25.5736 1183.88 26.2328 1184.41 26.5477C1184.95 26.8627 1185.85 27.0202 1187.11 27.0202H1188.57C1189.3 27.0202 1189.89 26.8224 1190.34 26.4232C1190.79 26.024 1191.09 25.5772 1191.24 25.0755C1191.39 24.5774 1191.61 24.127 1191.89 23.7278C1192.17 23.3286 1192.53 23.1308 1192.97 23.1308C1193.5 23.1308 1193.87 23.3286 1194.07 23.7278C1194.27 24.127 1194.37 24.8082 1194.37 25.7713V31.6053C1194.37 33.235 1193.91 34.0481 1192.97 34.0481C1192.54 34.0481 1192.18 33.8393 1191.9 33.4255C1191.61 33.0116 1191.4 32.5612 1191.24 32.0778C1191.09 31.598 1190.79 31.1476 1190.34 30.7301C1189.89 30.3162 1189.3 30.1075 1188.57 30.1075H1187.12C1185.85 30.1075 1184.95 30.2649 1184.42 30.5799C1183.88 30.8949 1183.61 31.5541 1183.61 32.5502V41.6253C1183.61 42.4896 1183.92 43.0975 1184.54 43.4454C1185.16 43.7934 1186.43 43.9692 1188.37 43.9692L1191.67 43.9179C1193.28 43.9179 1194.48 43.526 1195.28 42.746C1196.08 41.9659 1196.93 40.5779 1197.83 38.582C1198.56 37.1207 1199.33 36.4871 1200.13 36.6886L1200.14 36.6995ZM1176.52 19.8971L1167.21 34.6084H1176.52V19.8971Z" fill="#EC6342"/>
<path d="M1218.4 47.5692C1216.97 47.5692 1215.45 47.419 1213.84 47.1187C1212.24 46.8184 1211.33 46.6683 1211.09 46.6683C1210.56 46.6683 1210.06 46.8257 1209.59 47.1407C1209.13 47.4557 1208.74 47.6131 1208.44 47.6131C1207.48 47.6131 1206.84 46.6976 1206.54 44.8701C1206.01 41.6143 1205.67 39.1863 1205.54 37.5895C1205.48 36.1283 1205.86 35.3958 1206.69 35.3958C1207.13 35.3958 1207.48 35.5386 1207.74 35.8206C1208.01 36.1026 1208.39 36.6593 1208.89 37.4906C1211.26 42.0465 1214.62 44.3208 1218.95 44.3208C1220.69 44.3208 1222 43.8813 1222.88 42.9987C1223.76 42.1197 1224.24 41.0284 1224.31 39.7319C1224.34 38.7358 1223.98 37.8056 1223.23 36.9413C1222.48 36.077 1221.61 35.3555 1220.63 34.7732C1219.64 34.1909 1218.42 33.5171 1216.95 32.7553C1216.52 32.5575 1216.2 32.4074 1216 32.3048C1212.6 30.5763 1210.36 29.2798 1209.29 28.4155C1207.16 26.654 1206.09 24.409 1206.09 21.6843C1206.09 18.9595 1207.27 16.5827 1209.62 14.6527C1211.97 12.7264 1214.96 11.7595 1218.6 11.7595C1219.53 11.7595 1220.64 11.8767 1221.93 12.1074C1223.21 12.3418 1223.99 12.4554 1224.25 12.4554C1224.69 12.4554 1225.15 12.3382 1225.63 12.1074C1226.11 11.8767 1226.5 11.7595 1226.8 11.7595C1227.27 11.7595 1227.65 11.9426 1227.95 12.3089C1228.26 12.6751 1228.51 13.3746 1228.7 14.4037C1229.2 16.5974 1229.54 18.5933 1229.7 20.3878C1229.8 21.8527 1229.39 22.5815 1228.45 22.5815C1227.82 22.5815 1227.04 21.882 1226.1 20.4867C1223.6 16.7658 1220.85 14.9017 1217.84 14.9017C1216.27 14.9017 1215.06 15.2936 1214.19 16.0737C1213.32 16.8537 1212.89 17.8938 1212.89 19.1903C1212.89 20.6552 1213.47 21.8674 1214.64 22.8306C1215.81 23.7937 1217.91 25.0426 1220.95 26.5697C1221.21 26.7016 1221.61 26.903 1222.15 27.1667C1223.51 27.8332 1224.53 28.3386 1225.18 28.6865C1225.83 29.0344 1226.64 29.5435 1227.6 30.2064C1228.57 30.8729 1229.28 31.4882 1229.73 32.0522C1230.18 32.6161 1230.59 33.3339 1230.96 34.1946C1231.32 35.0589 1231.51 35.9891 1231.51 36.9852C1231.54 40.1751 1230.26 42.735 1227.66 44.665C1225.05 46.595 1221.97 47.5582 1218.4 47.5582V47.5692Z" fill="#EC6342"/>
<path d="M1261.83 18.0989L1258.08 21.5378L1266.69 40.2373C1267.12 41.1675 1267.61 41.9329 1268.14 42.5299C1268.67 43.1268 1269.14 43.526 1269.54 43.7274C1269.94 43.9289 1270.28 44.1852 1270.54 44.5002C1270.81 44.8151 1270.94 45.2216 1270.94 45.7234C1270.94 46.2544 1270.75 46.6206 1270.36 46.8221C1269.98 47.0198 1269.32 47.1224 1268.39 47.1224H1260.73C1259.73 47.1224 1259.01 47.0162 1258.58 46.8001C1258.15 46.584 1257.93 46.2105 1257.93 45.6794C1257.93 45.2473 1258.15 44.7822 1258.58 44.2841C1259.02 43.786 1259.33 43.3283 1259.53 42.9144C1259.73 42.5006 1259.65 41.7278 1259.28 40.5962L1252.93 26.3353L1245.62 33.1179V38.8017C1245.62 40.1311 1245.79 41.2041 1246.12 42.0172C1246.46 42.8339 1246.81 43.3539 1247.2 43.5883C1247.58 43.8227 1247.94 44.112 1248.28 44.4599C1248.61 44.8078 1248.78 45.2326 1248.78 45.7307C1248.78 46.2617 1248.58 46.628 1248.18 46.8294C1247.78 47.0308 1247.06 47.1297 1246.03 47.1297H1238.07C1237.07 47.1297 1236.35 47.0308 1235.92 46.8294C1235.49 46.6316 1235.27 46.2654 1235.27 45.7307C1235.27 45.2326 1235.44 44.8078 1235.79 44.4599C1236.14 44.112 1236.52 43.819 1236.92 43.5883C1237.32 43.3576 1237.69 42.8339 1238.04 42.0172C1238.39 41.2041 1238.57 40.1311 1238.57 38.8017V20.5526C1238.57 19.2232 1238.4 18.1502 1238.07 17.3371C1237.73 16.5241 1237.37 16.0004 1236.97 15.766C1236.57 15.5353 1236.2 15.2423 1235.86 14.8944C1235.53 14.5465 1235.36 14.1217 1235.36 13.6236C1235.36 13.0926 1235.56 12.7263 1235.96 12.5249C1236.36 12.3235 1237.1 12.2246 1238.16 12.2246H1246.12C1247.12 12.2246 1247.83 12.3235 1248.25 12.5249C1248.67 12.7227 1248.87 13.0889 1248.87 13.6236C1248.87 14.1217 1248.71 14.5465 1248.37 14.8944C1248.04 15.2423 1247.67 15.5353 1247.25 15.766C1246.83 16.0004 1246.46 16.5241 1246.13 17.3371C1245.79 18.1538 1245.63 19.2232 1245.63 20.5526V28.6792L1257.03 18.1099C1257.7 17.48 1258.07 16.9453 1258.14 16.5131C1258.2 16.081 1258.08 15.7587 1257.76 15.539C1257.45 15.3229 1257.12 15.0482 1256.78 14.715C1256.45 14.3817 1256.28 14.0155 1256.28 13.6163C1256.28 12.6861 1256.97 12.2209 1258.34 12.2209H1264.74C1266.61 12.2209 1267.54 12.6861 1267.54 13.6163C1267.54 14.2498 1267.34 14.682 1266.94 14.9127C1266.54 15.1471 1265.83 15.5097 1264.82 16.0114C1263.8 16.5095 1262.8 17.209 1261.84 18.1062L1261.83 18.0989Z" fill="#EC6342"/>
<path d="M1299.22 36.6995C1299.72 36.7984 1300.03 37.0145 1300.14 37.3478C1300.26 37.681 1300.3 38.2304 1300.27 38.9921C1300.17 41.585 1299.92 43.5956 1299.52 45.0239C1299.32 45.8223 1298.93 46.3716 1298.37 46.6682C1297.8 46.9686 1296.78 47.1187 1295.32 47.1187H1275.15C1274.12 47.1187 1273.39 47.0198 1272.97 46.8184C1272.56 46.6206 1272.35 46.2544 1272.35 45.7197C1272.35 45.1557 1272.53 44.7163 1272.88 44.3976C1273.22 44.0827 1273.6 43.8337 1274 43.6505C1274.4 43.4674 1274.78 42.951 1275.12 42.1051C1275.47 41.2591 1275.65 40.1018 1275.65 38.6406V20.6881C1275.65 19.2269 1275.47 18.0696 1275.12 17.2236C1274.78 16.3776 1274.4 15.8612 1274 15.6781C1273.6 15.495 1273.22 15.246 1272.88 14.931C1272.53 14.6161 1272.35 14.1766 1272.35 13.6089C1272.35 13.0779 1272.56 12.7117 1272.97 12.5103C1273.39 12.3125 1274.12 12.21 1275.15 12.21H1294.32C1295.68 12.21 1296.66 12.3418 1297.24 12.6091C1297.83 12.8765 1298.24 13.3233 1298.47 13.9569C1299.17 15.4877 1299.67 17.198 1299.97 19.0914C1300.24 20.5196 1299.98 21.3363 1299.22 21.5341C1298.42 21.8014 1297.64 21.318 1296.87 20.0875C1295.87 18.4578 1294.79 17.2639 1293.64 16.4985C1292.49 15.7331 1291.11 15.3522 1289.51 15.3522H1287.16C1285.36 15.3522 1284.17 15.528 1283.59 15.8759C1283 16.2238 1282.71 16.8171 1282.71 17.6448V24.5774C1282.71 25.5736 1282.99 26.2328 1283.54 26.5477C1284.09 26.8627 1285 27.0202 1286.26 27.0202H1287.66C1288.4 27.0202 1288.99 26.8224 1289.44 26.4232C1289.89 26.024 1290.19 25.5772 1290.34 25.0755C1290.49 24.5774 1290.71 24.127 1290.99 23.7278C1291.27 23.3286 1291.63 23.1308 1292.07 23.1308C1292.6 23.1308 1292.97 23.3286 1293.17 23.7278C1293.37 24.127 1293.47 24.8082 1293.47 25.7713V31.6053C1293.47 33.235 1293.01 34.0481 1292.07 34.0481C1291.64 34.0481 1291.28 33.8393 1290.99 33.4255C1290.71 33.0116 1290.5 32.5612 1290.34 32.0778C1290.19 31.598 1289.9 31.1476 1289.44 30.7301C1288.99 30.3162 1288.4 30.1075 1287.67 30.1075H1286.27C1284.97 30.1075 1284.05 30.2649 1283.52 30.5799C1282.98 30.8949 1282.71 31.5541 1282.71 32.5502V41.6253C1282.71 42.4896 1283.02 43.0975 1283.64 43.4454C1284.26 43.7934 1285.53 43.9692 1287.47 43.9692L1290.77 43.9179C1292.38 43.9179 1293.58 43.526 1294.38 42.746C1295.18 41.9659 1296.04 40.5779 1296.98 38.582C1297.68 37.1207 1298.43 36.4871 1299.23 36.6886L1299.22 36.6995Z" fill="#EC6342"/>
<path d="M1321.78 17.751V38.7944C1321.78 40.1238 1321.95 41.1968 1322.28 42.0098C1322.62 42.8265 1322.99 43.3466 1323.39 43.581C1323.79 43.8153 1324.15 44.1047 1324.49 44.4526C1324.82 44.8005 1324.99 45.2253 1324.99 45.7234C1324.99 46.2544 1324.78 46.6206 1324.36 46.8221C1323.95 47.0198 1323.22 47.1224 1322.19 47.1224H1314.23C1313.23 47.1224 1312.51 47.0235 1312.08 46.8221C1311.65 46.6243 1311.43 46.2581 1311.43 45.7234C1311.43 45.2253 1311.61 44.8005 1311.96 44.4526C1312.31 44.1047 1312.68 43.8117 1313.08 43.581C1313.48 43.3502 1313.86 42.8265 1314.21 42.0098C1314.55 41.1968 1314.73 40.1238 1314.73 38.7944V17.751C1314.73 16.2897 1313.98 15.5573 1312.48 15.5573C1311.41 15.5573 1310.51 15.7807 1309.78 16.2311C1309.04 16.6816 1308.48 17.1943 1308.1 17.7766C1307.72 18.3589 1307.16 19.3294 1306.42 20.6918C1305.83 21.9223 1305.21 22.5376 1304.57 22.5376C1303.67 22.5376 1303.25 21.8051 1303.32 20.3439C1303.42 17.751 1303.67 15.7404 1304.07 14.3121C1304.27 13.5137 1304.66 12.9644 1305.22 12.6677C1305.79 12.3674 1306.81 12.2173 1308.28 12.2173H1328.24C1329.71 12.2173 1330.72 12.3674 1331.27 12.6677C1331.82 12.9681 1332.2 13.4991 1332.39 14.2645C1332.86 15.9272 1333.11 17.9561 1333.14 20.3475C1333.21 21.8124 1332.81 22.5412 1331.94 22.5412C1331.31 22.5412 1330.67 21.926 1330.04 20.6954C1329.04 18.7361 1328.16 17.3811 1327.41 16.6303C1326.66 15.8832 1325.52 15.5097 1323.99 15.5097C1322.45 15.5097 1321.78 16.2568 1321.78 17.7546V17.751Z" fill="#EC6342"/>
<path d="M1351.46 47.6168C1346.69 47.6168 1342.74 46.064 1339.62 42.9547C1336.5 39.8455 1334.95 35.8682 1334.95 31.0121C1334.95 25.6285 1336.72 21.0653 1340.27 17.3262C1343.83 13.587 1348.26 11.7156 1353.56 11.7156C1358.5 11.7156 1362.49 13.3197 1365.52 16.5278C1368.56 19.7359 1370.07 23.7828 1370.07 28.6682C1370.07 34.0884 1368.32 38.6003 1364.82 42.2076C1361.32 45.815 1356.86 47.6168 1351.46 47.6168ZM1354.06 43.6762C1357.1 43.6762 1359.37 42.6288 1360.89 40.534C1362.41 38.4392 1363.17 35.7474 1363.17 32.455C1363.17 29.5948 1362.7 26.87 1361.77 24.2772C1360.83 21.6843 1359.43 19.5309 1357.56 17.8206C1355.7 16.1103 1353.58 15.2533 1351.21 15.2533C1348.24 15.2533 1345.94 16.341 1344.3 18.5201C1342.67 20.6991 1341.85 23.3506 1341.85 26.4745C1341.85 31.0304 1342.98 35.0332 1345.25 38.4904C1347.52 41.9476 1350.46 43.6762 1354.06 43.6762Z" fill="#EC6342"/>
<path d="M1397.8 34.2568L1401.55 40.8379C1401.98 41.5704 1402.48 42.193 1403.03 42.7093C1403.58 43.2257 1404.03 43.5736 1404.38 43.7567C1404.73 43.9399 1405.03 44.1889 1405.28 44.5038C1405.53 44.8188 1405.66 45.2253 1405.66 45.727C1405.66 46.2581 1405.47 46.6243 1405.08 46.8257C1404.7 47.0235 1404.04 47.126 1403.1 47.126H1395.75C1394.15 47.126 1393.34 46.6463 1393.34 45.6794C1393.34 45.2473 1393.55 44.7639 1393.97 44.2328C1394.38 43.7018 1394.66 43.2367 1394.8 42.8375C1394.93 42.4383 1394.76 41.6912 1394.3 40.5925L1391.5 35.7071C1390.43 35.773 1389.59 35.806 1388.99 35.806H1385.04C1384.37 35.806 1384.04 36.1392 1384.04 36.8021V38.798C1384.04 40.1274 1384.2 41.2005 1384.54 42.0135C1384.87 42.8302 1385.23 43.3502 1385.61 43.5846C1386 43.819 1386.36 44.1083 1386.69 44.4562C1387.03 44.8042 1387.19 45.229 1387.19 45.727C1387.19 46.2581 1386.99 46.6243 1386.59 46.8257C1386.19 47.0272 1385.47 47.126 1384.44 47.126H1376.48C1375.49 47.126 1374.76 47.0272 1374.33 46.8257C1373.9 46.628 1373.68 46.2617 1373.68 45.727C1373.68 45.229 1373.86 44.8042 1374.21 44.4562C1374.56 44.1083 1374.93 43.8153 1375.33 43.5846C1375.73 43.3539 1376.11 42.8302 1376.46 42.0135C1376.81 41.2005 1376.98 40.1274 1376.98 38.798V20.6991C1376.98 19.2379 1376.81 18.0806 1376.46 17.2346C1376.11 16.3886 1375.73 15.8722 1375.33 15.6891C1374.93 15.506 1374.56 15.257 1374.21 14.942C1373.86 14.6271 1373.68 14.1876 1373.68 13.6199C1373.68 13.0889 1373.89 12.7227 1374.31 12.5213C1374.72 12.3235 1375.45 12.2209 1376.48 12.2209H1387.39C1392.63 12.2209 1396.68 13.3599 1399.53 15.6378C1402.38 17.9158 1403.81 20.8969 1403.81 24.5884C1403.81 29.2761 1401.8 32.4989 1397.8 34.2605L1397.8 34.2568ZM1388.64 32.7626C1391.14 32.7626 1393.08 32.1327 1394.47 30.8692C1395.85 29.6057 1396.55 27.7783 1396.55 25.3831C1396.55 22.3251 1395.67 19.8641 1393.92 18.0037C1392.17 16.1432 1389.9 15.213 1387.14 15.213C1385.83 15.1801 1384.99 15.2533 1384.61 15.4364C1384.23 15.6195 1384.03 15.9784 1384.03 16.5095V31.1695C1384.03 31.7665 1384.35 32.184 1385 32.4147C1385.65 32.6491 1386.86 32.7626 1388.63 32.7626H1388.64Z" fill="#EC6342"/>
<path d="M1431.98 12.2649H1436.48C1438.21 12.2649 1439.08 12.6824 1439.08 13.5101C1439.08 13.9093 1438.92 14.2572 1438.61 14.5575C1438.29 14.8578 1437.92 15.1141 1437.5 15.3302C1437.09 15.5463 1436.62 15.9382 1436.1 16.5021C1435.59 17.0661 1435.16 17.7656 1434.83 18.597L1424.32 45.522C1424.12 46.0859 1423.86 46.4778 1423.54 46.6939C1423.23 46.91 1422.6 47.0857 1421.67 47.2176C1420.53 47.3824 1419.76 47.4007 1419.34 47.2689C1418.92 47.137 1418.62 46.8038 1418.41 46.2727L1407.35 18.7984C1406.99 17.8682 1406.57 17.1101 1406.11 16.5314C1405.64 15.9491 1405.24 15.5609 1404.9 15.3595C1404.57 15.1617 1404.29 14.9274 1404.05 14.66C1403.82 14.3927 1403.71 14.0631 1403.71 13.6639C1403.71 13.1329 1403.9 12.7593 1404.3 12.5432C1404.7 12.3272 1405.39 12.2173 1406.36 12.2173H1414.41C1416.01 12.2173 1416.82 12.6824 1416.82 13.6126C1416.82 14.1107 1416.55 14.5611 1416.01 14.9603C1415.48 15.3595 1415.08 15.7514 1414.81 16.1323C1414.54 16.5131 1414.61 17.4031 1415.01 18.7984L1423.12 39.3913L1431.02 18.597C1431.42 17.2346 1431.52 16.363 1431.33 15.9784C1431.13 15.5976 1430.81 15.2057 1430.37 14.8065C1429.94 14.4073 1429.72 13.9935 1429.72 13.5613C1429.72 12.697 1430.47 12.2649 1431.98 12.2649Z" fill="#EC6342"/>
<path d="M1467.36 36.6995C1467.86 36.7984 1468.16 37.0145 1468.28 37.3478C1468.4 37.681 1468.44 38.2304 1468.41 38.9921C1468.31 41.585 1468.06 43.5956 1467.66 45.0239C1467.46 45.8223 1467.07 46.3716 1466.51 46.6682C1465.94 46.9686 1464.92 47.1187 1463.46 47.1187H1443.29C1442.26 47.1187 1441.53 47.0198 1441.11 46.8184C1440.69 46.6206 1440.49 46.2544 1440.49 45.7197C1440.49 45.1557 1440.66 44.7163 1441.01 44.3976C1441.36 44.0827 1441.74 43.8337 1442.14 43.6505C1442.54 43.4674 1442.91 42.951 1443.26 42.1051C1443.61 41.2591 1443.79 40.1018 1443.79 38.6406V20.6881C1443.79 19.2269 1443.61 18.0696 1443.26 17.2236C1442.91 16.3776 1442.54 15.8612 1442.14 15.6781C1441.74 15.495 1441.36 15.246 1441.01 14.931C1440.66 14.6161 1440.49 14.1766 1440.49 13.6089C1440.49 13.0779 1440.7 12.7117 1441.11 12.5103C1441.53 12.3125 1442.26 12.21 1443.29 12.21H1462.46C1463.82 12.21 1464.8 12.3418 1465.38 12.6091C1465.97 12.8765 1466.37 13.3233 1466.61 13.9569C1467.31 15.4877 1467.81 17.198 1468.11 19.0914C1468.38 20.5196 1468.12 21.3363 1467.36 21.5341C1466.56 21.8014 1465.78 21.318 1465.01 20.0875C1464.01 18.4578 1462.93 17.2639 1461.78 16.4985C1460.63 15.7331 1459.25 15.3522 1457.65 15.3522H1455.3C1453.5 15.3522 1452.3 15.528 1451.72 15.8759C1451.14 16.2238 1450.85 16.8171 1450.85 17.6448V24.5774C1450.85 25.5736 1451.12 26.2328 1451.68 26.5477C1452.23 26.8627 1453.14 27.0202 1454.4 27.0202H1455.8C1456.54 27.0202 1457.13 26.8224 1457.58 26.4232C1458.03 26.024 1458.33 25.5772 1458.48 25.0755C1458.63 24.5774 1458.85 24.127 1459.13 23.7278C1459.41 23.3286 1459.77 23.1308 1460.21 23.1308C1460.74 23.1308 1461.11 23.3286 1461.31 23.7278C1461.51 24.127 1461.61 24.8082 1461.61 25.7713V31.6053C1461.61 33.235 1461.14 34.0481 1460.21 34.0481C1459.78 34.0481 1459.42 33.8393 1459.13 33.4255C1458.85 33.0116 1458.63 32.5612 1458.48 32.0778C1458.33 31.598 1458.03 31.1476 1457.58 30.7301C1457.13 30.3162 1456.54 30.1075 1455.81 30.1075H1454.41C1453.11 30.1075 1452.19 30.2649 1451.65 30.5799C1451.12 30.8949 1450.85 31.5541 1450.85 32.5502V41.6253C1450.85 42.4896 1451.16 43.0975 1451.78 43.4454C1452.4 43.7934 1453.67 43.9692 1455.61 43.9692L1458.91 43.9179C1460.52 43.9179 1461.71 43.526 1462.51 42.746C1463.32 41.9659 1464.18 40.5779 1465.12 38.582C1465.82 37.1207 1466.57 36.4871 1467.37 36.6886L1467.36 36.6995Z" fill="#EC6342"/>
<path d="M1489.92 17.751V38.7944C1489.92 40.1238 1490.09 41.1968 1490.42 42.0098C1490.76 42.8265 1491.12 43.3466 1491.52 43.581C1491.93 43.8153 1492.29 44.1047 1492.63 44.4526C1492.96 44.8005 1493.13 45.2253 1493.13 45.7234C1493.13 46.2544 1492.92 46.6206 1492.5 46.8221C1492.08 47.0198 1491.36 47.1224 1490.33 47.1224H1482.37C1481.37 47.1224 1480.65 47.0235 1480.22 46.8221C1479.79 46.6243 1479.57 46.2581 1479.57 45.7234C1479.57 45.2253 1479.74 44.8005 1480.09 44.4526C1480.44 44.1047 1480.82 43.8117 1481.22 43.581C1481.62 43.3502 1481.99 42.8265 1482.34 42.0098C1482.69 41.1968 1482.87 40.1238 1482.87 38.7944V17.751C1482.87 16.2897 1482.12 15.5573 1480.62 15.5573C1479.55 15.5573 1478.65 15.7807 1477.91 16.2311C1477.18 16.6816 1476.62 17.1943 1476.24 17.7766C1475.86 18.3589 1475.29 19.3294 1474.56 20.6918C1473.96 21.9223 1473.35 22.5376 1472.71 22.5376C1471.81 22.5376 1471.39 21.8051 1471.46 20.3439C1471.56 17.751 1471.81 15.7404 1472.21 14.3121C1472.41 13.5137 1472.79 12.9644 1473.36 12.6677C1473.93 12.3674 1474.94 12.2173 1476.42 12.2173H1496.38C1497.85 12.2173 1498.86 12.3674 1499.41 12.6677C1499.96 12.9681 1500.33 13.4991 1500.53 14.2645C1501 15.9272 1501.25 17.9561 1501.28 20.3475C1501.35 21.8124 1500.95 22.5412 1500.08 22.5412C1499.45 22.5412 1498.81 21.926 1498.18 20.6954C1497.18 18.7361 1496.3 17.3811 1495.55 16.6303C1494.8 15.8832 1493.66 15.5097 1492.12 15.5097C1490.59 15.5097 1489.92 16.2568 1489.92 17.7546V17.751Z" fill="#EC6342"/>
</svg>
